<svg xmlns="http://www.w3.org/2000/svg" xmlns:xlink="http://www.w3.org/1999/xlink" width="105" height="105" viewBox="0 0 105 105">
  <defs>
    <clipPath id="clip-path">
      <rect id="Rectángulo_405231" data-name="Rectángulo 405231" width="63.669" height="62.133" fill="#12263f"/>
    </clipPath>
  </defs>
  <g id="Grupo_1115806" data-name="Grupo 1115806" transform="translate(-590.051 -2774)">
    <g id="Grupo_1115793" data-name="Grupo 1115793" transform="translate(0 1491)">
      <circle id="Elipse_11803" data-name="Elipse 11803" cx="52.5" cy="52.5" r="52.5" transform="translate(590.051 1283)" fill="#f9f2c8"/>
    </g>
    <g id="Grupo_1115799" data-name="Grupo 1115799" transform="translate(611.051 2795)">
      <g id="Grupo_1115798" data-name="Grupo 1115798" clip-path="url(#clip-path)">
        <path id="Trazado_988748" data-name="Trazado 988748" d="M167.47,169.974a5.592,5.592,0,0,1-3.8-1.485L147.49,153.566a1.026,1.026,0,0,1-.058-1.449l6.22-6.742a1.025,1.025,0,0,1,1.45-.058l16.176,14.924a5.61,5.61,0,0,1-3.808,9.735m-17.834-17.221,15.422,14.228a3.561,3.561,0,1,0,4.829-5.234l-15.422-14.228Z" transform="translate(-109.415 -107.842)" fill="#12263f"/>
        <path id="Trazado_988749" data-name="Trazado 988749" d="M134.886,152.176a1.022,1.022,0,0,1-.7-.272l-2.793-2.577a1.026,1.026,0,1,1,1.391-1.508l2.793,2.577a1.026,1.026,0,0,1-.7,1.78" transform="translate(-97.45 -109.703)" fill="#12263f"/>
        <path id="Trazado_988750" data-name="Trazado 988750" d="M150.375,136.2a1.022,1.022,0,0,1-.7-.272l-2.653-2.447a1.026,1.026,0,1,1,1.391-1.508l2.652,2.447a1.026,1.026,0,0,1-.7,1.78" transform="translate(-109.071 -97.923)" fill="#12263f"/>
        <path id="Trazado_988751" data-name="Trazado 988751" d="M21.018,42.035A21.018,21.018,0,1,1,42.035,21.018,21.042,21.042,0,0,1,21.018,42.035m0-39.984A18.966,18.966,0,1,0,39.983,21.018,18.987,18.987,0,0,0,21.018,2.052" fill="#12263f"/>
        <path id="Trazado_988752" data-name="Trazado 988752" d="M49.008,44.736H25.815A3.759,3.759,0,0,1,22.559,39.1l11.6-20.086a3.76,3.76,0,0,1,6.511,0L52.264,39.1a3.759,3.759,0,0,1-3.256,5.639m-13.075-24.7-11.6,20.086a1.707,1.707,0,0,0,1.479,2.561H49.008a1.707,1.707,0,0,0,1.479-2.561L38.89,20.037a1.708,1.708,0,0,0-2.958,0" transform="translate(-16.394 -12.738)" fill="#12263f"/>
        <path id="Trazado_988753" data-name="Trazado 988753" d="M78.97,54.178a1.026,1.026,0,0,1-1.026-1.026V43.62a1.026,1.026,0,0,1,2.052,0v9.532a1.026,1.026,0,0,1-1.026,1.026" transform="translate(-57.952 -31.669)" fill="#12263f"/>
        <path id="Trazado_988754" data-name="Trazado 988754" d="M78.97,99.389a1.026,1.026,0,0,1-1.026-1.026v-.629a1.026,1.026,0,0,1,2.052,0v.629a1.026,1.026,0,0,1-1.026,1.026" transform="translate(-57.952 -71.904)" fill="#12263f"/>
      </g>
    </g>
  </g>
</svg>
