<svg xmlns="http://www.w3.org/2000/svg" xmlns:xlink="http://www.w3.org/1999/xlink" width="105" height="105" viewBox="0 0 105 105">
  <defs>
    <clipPath id="clip-path">
      <rect id="Rectángulo_405232" data-name="Rectángulo 405232" width="63.855" height="58.489" fill="#12263f"/>
    </clipPath>
  </defs>
  <g id="Grupo_1115805" data-name="Grupo 1115805" transform="translate(-905.051 -2774)">
    <g id="Grupo_1115794" data-name="Grupo 1115794" transform="translate(0 1491)">
      <circle id="Elipse_11804" data-name="Elipse 11804" cx="52.5" cy="52.5" r="52.5" transform="translate(905.051 1283)" fill="#f9f2c8"/>
    </g>
    <g id="Grupo_1115801" data-name="Grupo 1115801" transform="translate(926.051 2798.645)">
      <g id="Grupo_1115800" data-name="Grupo 1115800" clip-path="url(#clip-path)">
        <path id="Trazado_988755" data-name="Trazado 988755" d="M129.325,164.331a1.091,1.091,0,0,1-1.091-1.091v-15.5h-6.212v15.5a1.091,1.091,0,1,1-2.183,0V146.646a1.091,1.091,0,0,1,1.091-1.091h8.395a1.091,1.091,0,0,1,1.091,1.091V163.24a1.091,1.091,0,0,1-1.091,1.091" transform="translate(-87.143 -105.843)" fill="#12263f"/>
        <path id="Trazado_988756" data-name="Trazado 988756" d="M180.208,187.761a1.091,1.091,0,0,1-1.091-1.091v-6.712H172.9v6.712a1.091,1.091,0,0,1-2.183,0v-7.8a1.091,1.091,0,0,1,1.091-1.091h8.4a1.091,1.091,0,0,1,1.091,1.091v7.8a1.091,1.091,0,0,1-1.091,1.091" transform="translate(-124.142 -129.273)" fill="#12263f"/>
        <path id="Trazado_988757" data-name="Trazado 988757" d="M78.435,138.124a1.091,1.091,0,0,1-1.091-1.091V111.7H71.132v25.335a1.091,1.091,0,1,1-2.183,0V110.606a1.091,1.091,0,0,1,1.091-1.091h8.4a1.091,1.091,0,0,1,1.091,1.091v26.426a1.091,1.091,0,0,1-1.091,1.091" transform="translate(-50.138 -79.636)" fill="#12263f"/>
        <path id="Trazado_988758" data-name="Trazado 988758" d="M27.548,102.7a1.091,1.091,0,0,1-1.091-1.091V62.988H20.242v38.625a1.091,1.091,0,0,1-2.183,0V61.9A1.091,1.091,0,0,1,19.15,60.8h8.4A1.091,1.091,0,0,1,28.639,61.9v39.716a1.091,1.091,0,0,1-1.091,1.091" transform="translate(-13.132 -44.216)" fill="#12263f"/>
        <path id="Trazado_988759" data-name="Trazado 988759" d="M1.091,69.626A1.091,1.091,0,0,1,0,68.534V16.406a1.091,1.091,0,0,1,2.183,0V68.534a1.091,1.091,0,0,1-1.091,1.091" transform="translate(0 -11.137)" fill="#12263f"/>
        <path id="Trazado_988760" data-name="Trazado 988760" d="M62.764,208.561H1.091a1.091,1.091,0,1,1,0-2.183H62.764a1.091,1.091,0,1,1,0,2.183" transform="translate(0 -150.072)" fill="#12263f"/>
        <path id="Trazado_988761" data-name="Trazado 988761" d="M82.616,50.768a1.084,1.084,0,0,1-.347-.057A81.643,81.643,0,0,1,42.057,21.265l-5.337-7.316a1.091,1.091,0,0,1,1.763-1.286l5.337,7.316A79.476,79.476,0,0,0,82.962,48.642a1.091,1.091,0,0,1-.347,2.126" transform="translate(-26.549 -8.882)" fill="#12263f"/>
        <path id="Trazado_988762" data-name="Trazado 988762" d="M179.979,134.815a1.091,1.091,0,0,1-.634-1.98,21.078,21.078,0,0,1,5.024-2.643,21.11,21.11,0,0,1-2.618-5.032,1.091,1.091,0,0,1,2.054-.739,18.919,18.919,0,0,0,3.207,5.64,1.092,1.092,0,0,1-.18,1.561,1.111,1.111,0,0,1-.371.187,18.912,18.912,0,0,0-5.851,2.8,1.085,1.085,0,0,1-.632.2" transform="translate(-130.081 -89.95)" fill="#12263f"/>
        <path id="Trazado_988763" data-name="Trazado 988763" d="M117.943,28.018h-12.46a1.091,1.091,0,0,1,0-2.183h12.46a1.314,1.314,0,0,0,1.138-1.971L106.943,2.84a1.314,1.314,0,0,0-2.276,0L96.09,17.7a1.091,1.091,0,1,1-1.89-1.091l8.577-14.857a3.5,3.5,0,0,1,6.057,0l12.138,21.024a3.5,3.5,0,0,1-3.028,5.245" transform="translate(-68.392)" fill="#12263f"/>
        <path id="Trazado_988764" data-name="Trazado 988764" d="M134.219,37.885a1.091,1.091,0,0,1-1.091-1.091V28.1a1.091,1.091,0,0,1,2.183,0v8.689a1.091,1.091,0,0,1-1.091,1.091" transform="translate(-96.807 -19.643)" fill="#12263f"/>
        <path id="Trazado_988765" data-name="Trazado 988765" d="M134.219,78.659a1.091,1.091,0,0,1-1.091-1.091v-.362a1.091,1.091,0,0,1,2.183,0v.362a1.091,1.091,0,0,1-1.091,1.091" transform="translate(-96.807 -55.348)" fill="#12263f"/>
      </g>
    </g>
  </g>
</svg>
