<svg xmlns="http://www.w3.org/2000/svg" xmlns:xlink="http://www.w3.org/1999/xlink" width="105" height="105" viewBox="0 0 105 105">
  <defs>
    <clipPath id="clip-path">
      <rect id="Rectángulo_406211" data-name="Rectángulo 406211" width="52.973" height="73.074" transform="translate(0 0)" fill="#12263f"/>
    </clipPath>
  </defs>
  <g id="Grupo_1118484" data-name="Grupo 1118484" transform="translate(-1219.976 -2987)">
    <g id="Grupo_1118475" data-name="Grupo 1118475" transform="translate(-0.075 213)">
      <g id="Grupo_1115795" data-name="Grupo 1115795" transform="translate(0 1491)">
        <circle id="Elipse_11805" data-name="Elipse 11805" cx="52.5" cy="52.5" r="52.5" transform="translate(1220.051 1283)" fill="#f9f2c8"/>
      </g>
    </g>
    <g id="Grupo_1118483" data-name="Grupo 1118483" transform="translate(1245.976 3002.997)">
      <g id="Grupo_1118482" data-name="Grupo 1118482" transform="translate(0 0.003)" clip-path="url(#clip-path)">
        <path id="Trazado_1018598" data-name="Trazado 1018598" d="M39.155,5.974h-6.34a6.7,6.7,0,0,0-1.126-2.5,6.587,6.587,0,0,0-3.379-2.433A20.948,20.948,0,0,0,15.439.99a6.686,6.686,0,0,0-4.581,4.984H4.525A4.53,4.53,0,0,0,0,10.5v47.68A4.53,4.53,0,0,0,4.525,62.7H21.84a.781.781,0,0,0,0-1.563H4.525a2.966,2.966,0,0,1-2.962-2.962V10.5A2.966,2.966,0,0,1,4.525,7.536h6.18v2.891a.782.782,0,0,0,.781.781H32.194a.782.782,0,0,0,.781-.781V7.536h6.18A2.965,2.965,0,0,1,42.118,10.5V40.731a.781.781,0,1,0,1.563,0V10.5a4.53,4.53,0,0,0-4.525-4.525M31.412,9.646H12.268V7.408A5.135,5.135,0,0,1,15.9,2.482a19.44,19.44,0,0,1,11.941.052,5.1,5.1,0,0,1,3.569,4.9Z" transform="translate(0 -0.003)" fill="#12263f"/>
        <path id="Trazado_1018599" data-name="Trazado 1018599" d="M100.217,499.389H79.431a.781.781,0,0,1,0-1.563h20.785a.781.781,0,1,1,0,1.563" transform="translate(-73.102 -462.71)" fill="#12263f"/>
        <path id="Trazado_1018600" data-name="Trazado 1018600" d="M93.029,611.272h-13.6a.781.781,0,0,1,0-1.563h13.6a.781.781,0,1,1,0,1.563" transform="translate(-73.103 -566.7)" fill="#12263f"/>
        <path id="Trazado_1018601" data-name="Trazado 1018601" d="M93.029,723.154h-13.6a.781.781,0,0,1,0-1.563h13.6a.781.781,0,1,1,0,1.563" transform="translate(-73.103 -670.69)" fill="#12263f"/>
        <path id="Trazado_1018602" data-name="Trazado 1018602" d="M339.062,601.466l-5.46-5.913a.781.781,0,0,0-1.1-.044l-.488.45-1.591-1.722a11.731,11.731,0,1,0-10.186,5.155q.24.009.479.009a11.7,11.7,0,0,0,4.261-.8,11.434,11.434,0,0,0,1.486-.707l1.589,1.721-.488.45a.782.782,0,0,0-.045,1.1l5.46,5.913a4.142,4.142,0,0,0,6.086-5.619m-12.86-5.241-.044.027,0,0a10.139,10.139,0,1,1,2.647-2.44.477.477,0,0,0-.03.039,10.262,10.262,0,0,1-2.568,2.371m1.58.8q.449-.341.869-.729t.8-.809l1.415,1.533-1.664,1.537Zm9.987,9.145a2.582,2.582,0,0,1-3.644-.145l-4.931-5.339.481-.444.02-.018,2.8-2.586.488-.451,4.93,5.339a2.582,2.582,0,0,1-.145,3.644" transform="translate(-287.186 -535.341)" fill="#12263f"/>
        <path id="Trazado_1018603" data-name="Trazado 1018603" d="M368.005,643.152c-.11,0-.22,0-.331-.007a8.127,8.127,0,1,1,6.293-13.634h0a8.127,8.127,0,0,1-5.962,13.64m-.01-14.688a6.561,6.561,0,1,0,4.825,2.108,6.539,6.539,0,0,0-4.825-2.108" transform="translate(-334.485 -582.681)" fill="#12263f"/>
        <path id="Trazado_1018604" data-name="Trazado 1018604" d="M111.482,239.15a1.642,1.642,0,0,1-2.443,1.432l-7.494,7.03a.781.781,0,0,1-1.238-.229l-1.6-3.315c-.038,0-.076,0-.114,0a1.673,1.673,0,0,1-.408-.051l-4.213,6.161a1.641,1.641,0,1,1-3.194.532,1.6,1.6,0,0,1,.032-.32l-2.765-3.841L83,251.982a1.638,1.638,0,1,1-1.045-1.172l5.594-6.019a.783.783,0,0,1,1.207.075l3.1,4.306a1.653,1.653,0,0,1,.563-.1,1.612,1.612,0,0,1,.386.046l4.227-6.18a1.641,1.641,0,1,1,3,.281l1.223,2.525,6.951-6.52c0-.025,0-.05,0-.075a1.641,1.641,0,1,1,3.282,0" transform="translate(-74.131 -220.755)" fill="#12263f"/>
      </g>
    </g>
  </g>
</svg>
