<svg xmlns="http://www.w3.org/2000/svg" xmlns:xlink="http://www.w3.org/1999/xlink" width="190" height="84" viewBox="0 0 190 84">
  <defs>
    <clipPath id="clip-path">
      <rect id="Rect치ngulo_404511" data-name="Rect치ngulo 404511" width="73.37" height="58.243" fill="#12263f"/>
    </clipPath>
  </defs>
  <g id="Grupo_1118493" data-name="Grupo 1118493" transform="translate(-1230 -386)">
    <rect id="Rect치ngulo_404396" data-name="Rect치ngulo 404396" width="190" height="84" transform="translate(1230 386)" fill="#f8a230"/>
    <g id="Grupo_1112632" data-name="Grupo 1112632" transform="translate(1288.314 398.379)">
      <g id="Grupo_1112631" data-name="Grupo 1112631" clip-path="url(#clip-path)">
        <path id="Trazado_980946" data-name="Trazado 980946" d="M15.61,46.379a.973.973,0,0,1-1.945,0V44.4a14.789,14.789,0,0,1-1.545-.6,15.034,15.034,0,0,1-1.438-.747L9.2,44.532a.976.976,0,0,1-1.381,0l-5-5a.976.976,0,0,1,0-1.381L4.581,36.4q-.322-.66-.584-1.349-.252-.662-.447-1.354H.977A.976.976,0,0,1,0,32.718V25.651a.976.976,0,0,1,.977-.976H3.55q.2-.691.447-1.353.261-.688.584-1.349L2.824,20.214a.976.976,0,0,1,0-1.38l5-5a.977.977,0,0,1,1.381,0l1.48,1.48a14.983,14.983,0,0,1,1.438-.747,14.744,14.744,0,0,1,1.542-.6V11.99a.976.976,0,0,1,.976-.977H21.7a.976.976,0,0,1,.976.977v1.985a14.756,14.756,0,0,1,1.541.6,15.026,15.026,0,0,1,1.438.747l1.48-1.48a.977.977,0,0,1,1.381,0l3.294,3.294a.976.976,0,0,1-1.381,1.381l-2.6-2.6-1.338,1.338h0a.974.974,0,0,1-1.227.123,13.075,13.075,0,0,0-1.844-1.021,12.749,12.749,0,0,0-1.919-.689.977.977,0,0,1-.774-.955V12.966H15.614V14.7h0a.976.976,0,0,1-.723.942,12.742,12.742,0,0,0-1.969.7,13.057,13.057,0,0,0-1.791.986.976.976,0,0,1-1.281-.087L8.511,15.908,4.895,19.524l1.569,1.569,0,0a.973.973,0,0,1,.166,1.153,14.216,14.216,0,0,0-.808,1.759,14.385,14.385,0,0,0-.551,1.8.977.977,0,0,1-.964.819H1.953v5.114H4.3v0a.975.975,0,0,1,.95.757,14.337,14.337,0,0,0,1.334,3.548.976.976,0,0,1-.125,1.227L4.895,38.844l3.617,3.616,1.338-1.338h0A.975.975,0,0,1,11.078,41a13.048,13.048,0,0,0,1.844,1.021,12.772,12.772,0,0,0,1.968.7v0a.973.973,0,0,1,.721.94Z" transform="translate(0 -8.991)" fill="#12263f"/>
        <path id="Trazado_980947" data-name="Trazado 980947" d="M56.881,74.351a.973.973,0,1,1,.305,1.923q-.409.065-.77.094-.395.031-.777.031a9.744,9.744,0,1,1,9.11-13.218.975.975,0,0,1-1.823.694A7.8,7.8,0,1,0,55.64,74.446q.326,0,.624-.024Q56.606,74.4,56.881,74.351Z" transform="translate(-37.469 -46.459)" fill="#12263f"/>
        <path id="Trazado_980948" data-name="Trazado 980948" d="M211.559,209.017a3.176,3.176,0,1,1-2.245.93,3.163,3.163,0,0,1,2.245-.93m.864,2.311a1.222,1.222,0,1,0,.358.864,1.218,1.218,0,0,0-.358-.864" transform="translate(-170.132 -170.649)" fill="#12263f"/>
        <path id="Trazado_980949" data-name="Trazado 980949" d="M208.75,122.473c.289-1.8.536-3.765.714-5.546.185-1.858.293-3.517.293-4.562a1.92,1.92,0,0,0-1.2-1.892l-.037-.016a2.534,2.534,0,0,0-1.758.016,1.918,1.918,0,0,0-1.2,1.892c0,1.046.108,2.7.293,4.562.177,1.781.424,3.747.714,5.546a1.494,1.494,0,0,0,.638,1.1.894.894,0,0,0,.909,0,1.5,1.5,0,0,0,.638-1.1m2.651-5.356c-.181,1.812-.432,3.818-.729,5.661a3.392,3.392,0,0,1-1.569,2.476,2.821,2.821,0,0,1-2.892,0,3.393,3.393,0,0,1-1.569-2.476c-.3-1.843-.548-3.849-.729-5.661-.195-1.955-.308-3.683-.308-4.753a3.792,3.792,0,0,1,2.435-3.7,4.367,4.367,0,0,1,3.181-.021l.056.021a3.79,3.79,0,0,1,2.432,3.7C211.709,113.434,211.6,115.163,211.4,117.117Z" transform="translate(-166.231 -88.464)" fill="#12263f"/>
        <path id="Trazado_980950" data-name="Trazado 980950" d="M93.088,5.465l20.985,36.347a10.807,10.807,0,0,1,1.475,5.433,11.045,11.045,0,0,1-1.492,5.511c-.011.018-.022.036-.033.053a11.041,11.041,0,0,1-3.992,3.989l-.058.031a10.806,10.806,0,0,1-5.383,1.413H62.62A10.8,10.8,0,0,1,57.183,56.8a11.115,11.115,0,0,1-5.521-9.554,10.807,10.807,0,0,1,1.475-5.432c.01-.017.02-.034.031-.05l20.956-36.3h0a10.828,10.828,0,0,1,3.975-4A11.027,11.027,0,0,1,83.605,0V0a11.025,11.025,0,0,1,5.509,1.463A10.829,10.829,0,0,1,93.088,5.465Zm19.3,37.324L91.4,6.442a8.9,8.9,0,0,0-3.265-3.289,9.072,9.072,0,0,0-4.532-1.2v0a9.069,9.069,0,0,0-4.532,1.2,8.9,8.9,0,0,0-3.265,3.289h0L54.851,42.735c-.009.018-.019.036-.029.054a8.868,8.868,0,0,0-1.207,4.456,9.163,9.163,0,0,0,4.537,7.868A8.87,8.87,0,0,0,62.62,56.29h41.97a8.876,8.876,0,0,0,4.418-1.148l.047-.029a9.086,9.086,0,0,0,3.289-3.282c.009-.017.018-.034.028-.051a9.086,9.086,0,0,0,1.225-4.534A8.865,8.865,0,0,0,112.388,42.789Z" transform="translate(-42.179)" fill="#12263f"/>
        <path id="Trazado_980951" data-name="Trazado 980951" d="M110.692,33.022a3.581,3.581,0,0,0-1.31-1.324,3.724,3.724,0,0,0-3.66,0v0a3.577,3.577,0,0,0-1.314,1.321L83.423,69.368h0a3.538,3.538,0,0,0-.48,1.779,3.7,3.7,0,0,0,1.839,3.188l.044.027a3.546,3.546,0,0,0,1.738.441h41.97a3.545,3.545,0,0,0,1.784-.467v0a3.683,3.683,0,0,0,1.344-1.348l0,0h0a3.682,3.682,0,0,0,.5-1.836,3.54,3.54,0,0,0-.481-1.779Zm-.341-3.01a5.507,5.507,0,0,1,2.027,2.034l20.985,36.347a5.482,5.482,0,0,1,.748,2.756,5.639,5.639,0,0,1-.763,2.812h0a5.629,5.629,0,0,1-2.051,2.063v0l0,0a5.476,5.476,0,0,1-2.755.735H86.565a5.477,5.477,0,0,1-2.7-.7c-.02-.01-.04-.021-.06-.032a5.692,5.692,0,0,1-2.816-4.874,5.483,5.483,0,0,1,.747-2.756h0l20.983-36.344a5.516,5.516,0,0,1,2.023-2.038v0l0,0a5.612,5.612,0,0,1,5.6,0Z" transform="translate(-66.124 -23.891)" fill="#12263f"/>
      </g>
    </g>
  </g>
</svg>
