<svg xmlns="http://www.w3.org/2000/svg" xmlns:xlink="http://www.w3.org/1999/xlink" width="105" height="105" viewBox="0 0 105 105">
  <defs>
    <clipPath id="clip-path">
      <rect id="Rectángulo_404413" data-name="Rectángulo 404413" width="57.999" height="57.924" fill="#12263f"/>
    </clipPath>
  </defs>
  <g id="Grupo_1112381" data-name="Grupo 1112381" transform="translate(-275.051 -1283)">
    <circle id="Elipse_11802" data-name="Elipse 11802" cx="52.5" cy="52.5" r="52.5" transform="translate(275.051 1283)" fill="#f9f2c8"/>
    <g id="Grupo_1112366" data-name="Grupo 1112366" transform="translate(298.551 1306.538)">
      <g id="Grupo_1112365" data-name="Grupo 1112365" clip-path="url(#clip-path)">
        <path id="Trazado_978165" data-name="Trazado 978165" d="M16.924,43.127l-1.395-2.4a.818.818,0,0,0-.708-.408H9.284a.819.819,0,0,0-.71.411L5.812,45.533a.819.819,0,0,0,0,.818l1.38,2.387,1.381,2.4a.819.819,0,0,0,.71.411h5.538a.818.818,0,0,0,.708-.408l1.4-2.4,1.381-2.389a.819.819,0,0,0,0-.818ZM14.35,49.915H9.758L7.467,45.94l2.291-3.986H14.35l1.156,1.992,1.146,1.994ZM46.443,23.071A11.541,11.541,0,0,0,57.682,8.854a.818.818,0,0,0-1.375-.391l-6.1,6.1-5.342-1.439-.708-2.666-.719-2.676L45.4,5.836l4.129-4.143A.818.818,0,0,0,49.134.319a11.526,11.526,0,0,0-13.9,13.861l-8.106,8.111L13.273,8.435l-.527-3.68a.818.818,0,0,0-.441-.614L5.469.688A.818.818,0,0,0,4.521.84L.24,5.121a.819.819,0,0,0-.152.948L3.54,12.9a.819.819,0,0,0,.615.441l3.68.527L21.692,27.731l-6.982,6.986A11.6,11.6,0,0,0,3.9,37.781,11.53,11.53,0,1,0,23.284,43.29l4.132-4.132,2.294,2.294a.818.818,0,0,0,1.151.006l.655-.641a1.336,1.336,0,0,1,.952-.392h.006a1.3,1.3,0,0,1,.932.387l.01.009a1.3,1.3,0,0,1,.387.932,1.337,1.337,0,0,1-.392.958l-.649.649a.818.818,0,0,0,0,1.158l11.116,11.1A7.878,7.878,0,0,0,55.021,44.479l-11.1-11.117a.819.819,0,0,0-.579-.24h0a.819.819,0,0,0-.579.24l-.649.649a1.336,1.336,0,0,1-.952.392h-.006a1.3,1.3,0,0,1-.932-.387l-.01-.01a1.3,1.3,0,0,1-.387-.932,1.336,1.336,0,0,1,.392-.958l.649-.649a.819.819,0,0,0,0-1.159l-2.3-2.294,5.249-5.249a11.508,11.508,0,0,0,2.634.305M8.8,12.523a.819.819,0,0,0-.463-.231l-3.527-.506L1.816,5.86,5.26,2.417,11.186,5.41l.506,3.527a.818.818,0,0,0,.232.463L25.972,23.448l-3.123,3.125Zm45.063,41.94a6.25,6.25,0,0,1-8.209.54L54.4,46.254a6.25,6.25,0,0,1-.54,8.209M39.128,30.89l-.069.069a2.962,2.962,0,0,0-.872,2.122,2.976,2.976,0,0,0,2.959,2.958h.013a2.962,2.962,0,0,0,2.109-.872l.07-.07,9.946,9.959-8.828,8.828L34.5,43.939l.07-.07a2.962,2.962,0,0,0,.872-2.122,2.976,2.976,0,0,0-2.958-2.959,2.974,2.974,0,0,0-2.116.865l-.07.069L28.574,38,37.4,29.172Zm3.853-9.612L21.8,42.463a.818.818,0,0,0-.209.8,9.867,9.867,0,1,1-6.847-6.848.818.818,0,0,0,.8-.21l21.184-21.2a.818.818,0,0,0,.209-.8,9.89,9.89,0,0,1,10.3-12.537l-3,3.007L41.947,6.956a.818.818,0,0,0-.214.793l.842,3.132L43.4,14a.818.818,0,0,0,.579.58l6.255,1.684a.818.818,0,0,0,.792-.211l5.3-5.3A9.907,9.907,0,0,1,43.78,21.069a.819.819,0,0,0-.8.21" transform="translate(0 0)" fill="#12263f"/>
      </g>
    </g>
  </g>
</svg>
