<svg xmlns="http://www.w3.org/2000/svg" xmlns:xlink="http://www.w3.org/1999/xlink" width="105" height="105" viewBox="0 0 105 105">
  <defs>
    <clipPath id="clip-path">
      <rect id="Rectángulo_404414" data-name="Rectángulo 404414" width="32.211" height="57.001" fill="#12263f"/>
    </clipPath>
  </defs>
  <g id="Grupo_1112378" data-name="Grupo 1112378" transform="translate(-590.051 -1283)">
    <circle id="Elipse_11803" data-name="Elipse 11803" cx="52.5" cy="52.5" r="52.5" transform="translate(590.051 1283)" fill="#f9f2c8"/>
    <g id="Grupo_1112368" data-name="Grupo 1112368" transform="translate(626.445 1307)">
      <g id="Grupo_1112367" data-name="Grupo 1112367" clip-path="url(#clip-path)">
        <path id="Trazado_978166" data-name="Trazado 978166" d="M32.211,20.369a4.351,4.351,0,0,0-1.382-3.225c-1.424-1.367-3.195-1.28-5.032-1.29l0-4.791.146-.032a3.5,3.5,0,0,0,2.341-1.416c.708-1.05.553-6.667.21-7.885A2.489,2.489,0,0,0,27.376.284C26.3-.248,22.675.131,21.364.132L10.216.139A27.18,27.18,0,0,0,4.907.276,2.983,2.983,0,0,0,3.514,1.529a40.263,40.263,0,0,0-.14,6.023,4.187,4.187,0,0,0,.343,2.214,2.674,2.674,0,0,0,1.913,1.12l1.424.089.009,4.749c-2.153.087-4.16.038-5.746,1.73A4.63,4.63,0,0,0,.091,19.946a26.845,26.845,0,0,0-.042,3.767L.04,31.242.046,45.1c.006,2.281-.1,4.628.03,6.9a5.082,5.082,0,0,0,1.813,3.664A5.277,5.277,0,0,0,4.51,56.839a51.559,51.559,0,0,0,7.027.07L27,56.888c1.406.013,2.906-.014,4-1.042a3.638,3.638,0,0,0,1.1-1.89,19.858,19.858,0,0,0,.079-3.376l.012-6.745ZM5.281,9.069A51.136,51.136,0,0,1,5.22,1.947l19.79-.082a3.706,3.706,0,0,1,1.476.124c.683,1.059.4,5.141.252,6.488a3.782,3.782,0,0,1-.6.539,17.483,17.483,0,0,1-4.024.121L7.628,9.166ZM23.92,15.616c-.787.524-2.748.262-3.763.261L8.873,15.8l-.012-4.949,11.081-.011c.984,0,3.207-.267,3.99.289a19.964,19.964,0,0,1-.012,4.486m6,38.829a2.247,2.247,0,0,1-1.19.629,47.6,47.6,0,0,1-7.224.079L6.912,55.106c-1.594.02-2.988.189-4.224-1S1.695,50.7,1.676,49.13l28.251.2.495.265c.067,1.288.465,3.867-.5,4.85m.522-26.46.024,19.551L20.006,47.5,1.673,47.485l.073-19.033c.012-2.61-.322-5.823.149-8.357a3.17,3.17,0,0,1,.966-1.644c1.594-1.473,5.339-.871,7.349-.836l12.566.011a32.215,32.215,0,0,1,5.363.08,2.769,2.769,0,0,1,2.229,2.2c.4,2.464.064,5.553.073,8.077" transform="translate(0 0)" fill="#12263f"/>
        <path id="Trazado_978167" data-name="Trazado 978167" d="M115.6,38.117l.686-.16c.616-1.039.361-2.588.358-3.8l-.358-.5a3.162,3.162,0,0,0-.966.046c-.592.962-.31,2.749-.285,3.873Z" transform="translate(-101.75 -29.777)" fill="#12263f"/>
        <path id="Trazado_978168" data-name="Trazado 978168" d="M85.781,37.8l.951-.061c.641-.973.34-2.939.316-4.1l-.355-.325-1.108.1a14.108,14.108,0,0,0-.143,3.873Z" transform="translate(-75.58 -29.487)" fill="#12263f"/>
        <path id="Trazado_978169" data-name="Trazado 978169" d="M206.645,38.009l1.023-.1a7.562,7.562,0,0,0,.206-3.867l-.179-.366a1.294,1.294,0,0,0-1.075-.1c-.638.952-.34,2.847-.313,3.987Z" transform="translate(-182.548 -29.658)" fill="#12263f"/>
        <path id="Trazado_978170" data-name="Trazado 978170" d="M145.946,38.431l.8.005c.729-.895.647-2.315.565-3.478a2.123,2.123,0,0,0-.164-.609c-.44-.282-.468-.353-1.011-.3-.917,1.018-.586,2.6-.541,3.914Z" transform="translate(-128.798 -30.127)" fill="#12263f"/>
        <path id="Trazado_978171" data-name="Trazado 978171" d="M175.694,37.691a2.316,2.316,0,0,0,1.084.119c.583-1,.31-2.769.307-3.945l-.419-.553-.862.1c-.62.822-.541,2.637-.38,3.645a1.8,1.8,0,0,0,.27.637" transform="translate(-155.189 -29.489)" fill="#12263f"/>
        <path id="Trazado_978172" data-name="Trazado 978172" d="M56.323,34.214l-.225-.393a2.033,2.033,0,0,0-1.1-.063c-.547.759-.529,2.7-.349,3.64.112.589.213.583.689.91l.407-.067c.829-1.132.556-2.637.577-4.028" transform="translate(-48.278 -29.838)" fill="#12263f"/>
        <path id="Trazado_978173" data-name="Trazado 978173" d="M76.149,210.628c-1.543-1.131-3.337-.8-5.2-.79,0-1.586.392-4.569-.416-5.841-1.09-.778-4.431-.533-5.791-.379a1.8,1.8,0,0,0-1.233,1.025l-.058,5.217c-1.324-.01-4.44-.383-5.363.562-.777.8-.592,4.183-.437,5.27a1.916,1.916,0,0,0,.969,1.367,30.943,30.943,0,0,0,4.755.111c.006,1.608-.222,3.621.246,5.159,1.254,1.23,3.116.822,4.8.8l1.124-.013c.629-.288.954-.382,1.26-1.049.534-1.161.209-3.59.2-4.889,1.257.01,3.875.355,4.868-.4.884-1.008.62-3.885.507-5.2a4,4,0,0,0-.231-.958m-7.024,4.739.033,5.671-.44.349H65.162l-.027-5.953-5.724-.06,0-3.845,5.682-.041.076-6.148,4.021,0v6.041c1.09.5,4.173.149,5.472.153l.006,3.806Z" transform="translate(-50.917 -180.105)" fill="#12263f"/>
      </g>
    </g>
  </g>
</svg>
