<svg xmlns="http://www.w3.org/2000/svg" xmlns:xlink="http://www.w3.org/1999/xlink" width="105" height="105" viewBox="0 0 105 105">
  <defs>
    <clipPath id="clip-path">
      <rect id="Rectángulo_404415" data-name="Rectángulo 404415" width="52.825" height="56.64" fill="#12263f"/>
    </clipPath>
  </defs>
  <g id="Grupo_1112379" data-name="Grupo 1112379" transform="translate(-905.051 -1283)">
    <circle id="Elipse_11804" data-name="Elipse 11804" cx="52.5" cy="52.5" r="52.5" transform="translate(905.051 1283)" fill="#f9f2c8"/>
    <g id="Grupo_1112370" data-name="Grupo 1112370" transform="translate(931.051 1306.855)">
      <g id="Grupo_1112369" data-name="Grupo 1112369" clip-path="url(#clip-path)">
        <path id="Trazado_978174" data-name="Trazado 978174" d="M133.46,224.108h-24.4a1.133,1.133,0,0,1-1.128-1.021l-3.3-32.969a1.133,1.133,0,1,1,2.255-.226l3.194,31.948h22.349l1.507-15.071A1.133,1.133,0,0,1,136.2,207l-1.609,16.091a1.133,1.133,0,0,1-1.128,1.021" transform="translate(-92.772 -167.468)" fill="#12263f"/>
        <path id="Trazado_978175" data-name="Trazado 978175" d="M86.619,154.976H85.371a2.334,2.334,0,0,1-2.332-2.332v-2.226a2.334,2.334,0,0,1,2.332-2.332h7.271a1.133,1.133,0,1,1,0,2.267H85.371a.065.065,0,0,0-.065.065v2.226a.065.065,0,0,0,.065.065h1.249a1.133,1.133,0,1,1,0,2.267" transform="translate(-73.628 -131.305)" fill="#12263f"/>
        <path id="Trazado_978176" data-name="Trazado 978176" d="M299.7,191.141h-5.23a1.133,1.133,0,1,1,0-2.267h5.23a1.133,1.133,0,0,1,0,2.267" transform="translate(-260.091 -167.469)" fill="#12263f"/>
        <path id="Trazado_978177" data-name="Trazado 978177" d="M273.322,150.355h-8.6a1.133,1.133,0,1,1,0-2.267h8.6a1.133,1.133,0,1,1,0,2.267" transform="translate(-233.716 -131.305)" fill="#12263f"/>
        <path id="Trazado_978178" data-name="Trazado 978178" d="M206.767,72.286a1.134,1.134,0,0,1-1.086-1.459,3.151,3.151,0,0,0-2.344-3.98,1.133,1.133,0,0,1-.893-1.15c0-.018,0-.037,0-.055a3.15,3.15,0,0,0-3.146-3.146,1.133,1.133,0,0,1,0-2.267,5.421,5.421,0,0,1,5.361,4.66,5.417,5.417,0,0,1,3.193,6.59,1.134,1.134,0,0,1-1.085.808" transform="translate(-175.707 -53.402)" fill="#12263f"/>
        <path id="Trazado_978179" data-name="Trazado 978179" d="M78.858,74.145a1.133,1.133,0,0,1-1.133-1.133,8.441,8.441,0,0,1,.182-1.423,5.2,5.2,0,1,1,7.653-6.537,1.133,1.133,0,1,1-2.036,1,2.93,2.93,0,1,0-3.831,3.961,1.133,1.133,0,0,1,.568,1.5,7.069,7.069,0,0,0-.27,1.5,1.133,1.133,0,0,1-1.133,1.133" transform="translate(-67.116 -55.096)" fill="#12263f"/>
        <path id="Trazado_978180" data-name="Trazado 978180" d="M158.906,154.976a1.133,1.133,0,0,1-1.133-1.133V149.22a1.133,1.133,0,0,1,2.267,0v4.622a1.133,1.133,0,0,1-1.133,1.133" transform="translate(-139.893 -131.305)" fill="#12263f"/>
        <path id="Trazado_978181" data-name="Trazado 978181" d="M161.224,156.569a3.455,3.455,0,0,1-3.452-3.451v-.577a1.133,1.133,0,1,1,2.267,0v.577a1.185,1.185,0,0,0,2.369,0v-3.885a1.133,1.133,0,0,1,2.01-.719,3.147,3.147,0,0,0,5.448-1.087,1.133,1.133,0,0,1,2.171.651,5.418,5.418,0,0,1-7.362,3.4v1.639a3.454,3.454,0,0,1-3.451,3.451" transform="translate(-139.892 -130.004)" fill="#12263f"/>
        <path id="Trazado_978182" data-name="Trazado 978182" d="M200.607,102.643a1.133,1.133,0,0,1-.945-1.757,5.408,5.408,0,0,1,4.817-2.415c.134.008.269.021.4.039a1.133,1.133,0,1,1-.3,2.247c-.078-.01-.156-.018-.234-.022a3.135,3.135,0,0,0-2.793,1.4,1.132,1.132,0,0,1-.947.509" transform="translate(-176.868 -87.302)" fill="#12263f"/>
        <path id="Trazado_978183" data-name="Trazado 978183" d="M299.2,141.65a6.065,6.065,0,0,1-3.958-1.625,1.133,1.133,0,0,1,1.472-1.723c1.694,1.447,3.286,1.438,5.162-.031a1.133,1.133,0,0,1,1.408.009c1.56,1.253,2.531,1,3.126.7a.992.992,0,0,0,.519-.889V123.012a6.582,6.582,0,0,0-6.574-6.574h-7.15c-1.195,0-1.8.908-1.8,2.7a1.133,1.133,0,1,1-2.267,0,5.113,5.113,0,0,1,1.489-4.04,3.9,3.9,0,0,1,2.578-.926h7.15a8.851,8.851,0,0,1,8.841,8.841v15.075A3.234,3.234,0,0,1,307.435,141a4.653,4.653,0,0,1-4.865-.44,6.192,6.192,0,0,1-3.371,1.093" transform="translate(-256.371 -101.232)" fill="#12263f"/>
        <path id="Trazado_978184" data-name="Trazado 978184" d="M398.829,191.616a1.133,1.133,0,0,1-1.133-1.133v-17.3a1.133,1.133,0,1,1,2.267,0v17.3a1.133,1.133,0,0,1-1.133,1.133" transform="translate(-352.626 -152.553)" fill="#12263f"/>
        <path id="Trazado_978185" data-name="Trazado 978185" d="M340.617,170.369a1.133,1.133,0,0,1-1.133-1.133V149.221a1.133,1.133,0,1,1,2.267,0v20.014a1.133,1.133,0,0,1-1.133,1.133" transform="translate(-301.011 -131.305)" fill="#12263f"/>
        <path id="Trazado_978186" data-name="Trazado 978186" d="M66.687,273.778a1.133,1.133,0,0,1-.659-2.056L86,257.493a1.133,1.133,0,1,1,1.315,1.846L67.344,273.567a1.129,1.129,0,0,1-.657.21" transform="translate(-58.124 -228.125)" fill="#12263f"/>
        <path id="Trazado_978187" data-name="Trazado 978187" d="M141.7,6.665a3.332,3.332,0,1,1,3.332-3.332A3.336,3.336,0,0,1,141.7,6.665m0-4.4a1.066,1.066,0,1,0,1.066,1.066A1.067,1.067,0,0,0,141.7,2.267" transform="translate(-122.687)" fill="#12263f"/>
        <path id="Trazado_978188" data-name="Trazado 978188" d="M3.332,196.846a3.332,3.332,0,1,1,3.332-3.332,3.336,3.336,0,0,1-3.332,3.332m0-4.4A1.066,1.066,0,1,0,4.4,193.513a1.067,1.067,0,0,0-1.066-1.066" transform="translate(0 -168.628)" fill="#12263f"/>
      </g>
    </g>
  </g>
</svg>
