<svg xmlns="http://www.w3.org/2000/svg" xmlns:xlink="http://www.w3.org/1999/xlink" width="105" height="105" viewBox="0 0 105 105">
  <defs>
    <clipPath id="clip-path">
      <rect id="Rectángulo_404416" data-name="Rectángulo 404416" width="47.046" height="55.683" fill="#12263f"/>
    </clipPath>
  </defs>
  <g id="Grupo_1112380" data-name="Grupo 1112380" transform="translate(-1220.051 -1283)">
    <circle id="Elipse_11805" data-name="Elipse 11805" cx="52.5" cy="52.5" r="52.5" transform="translate(1220.051 1283)" fill="#f9f2c8"/>
    <g id="Grupo_1112372" data-name="Grupo 1112372" transform="translate(1249.027 1306.855)">
      <g id="Grupo_1112371" data-name="Grupo 1112371" transform="translate(0 0)" clip-path="url(#clip-path)">
        <path id="Trazado_978189" data-name="Trazado 978189" d="M38.221,35.728H6.095a.98.98,0,0,1-.981-.945l-.221-6a.981.981,0,0,1,.98-1.018H38.439a.983.983,0,0,1,.983,1.018l-.223,6a.979.979,0,0,1-.979.945M7.04,33.765H37.273l.15-4.038H6.891Z" transform="translate(1.366 7.756)" fill="#12263f"/>
        <path id="Trazado_978190" data-name="Trazado 978190" d="M32.9,46.936h-2.27a3.669,3.669,0,0,1-3.664-3.665V40.327a.983.983,0,0,1,.94-.981,3.218,3.218,0,0,0,3.074-3.074l.148-4.015a.981.981,0,0,1,.98-.945H32.9a3.669,3.669,0,0,1,3.665,3.665V43.27A3.669,3.669,0,0,1,32.9,46.936M28.927,41.18v2.09a1.7,1.7,0,0,0,1.7,1.7H32.9a1.7,1.7,0,0,0,1.7-1.7V34.976a1.7,1.7,0,0,0-1.547-1.7l-.113,3.063a5.2,5.2,0,0,1-4.013,4.836" transform="translate(7.533 8.747)" fill="#12263f"/>
        <path id="Trazado_978191" data-name="Trazado 978191" d="M34.132,47.6H10.572A5.156,5.156,0,0,1,5.4,42.618L4.194,9.865a.979.979,0,0,1,.981-1.017H39.527a.979.979,0,0,1,.981,1.017L39.3,42.618A5.156,5.156,0,0,1,34.132,47.6M6.194,10.811,7.364,42.546a3.2,3.2,0,0,0,3.207,3.09H34.132a3.2,3.2,0,0,0,3.207-3.09l1.169-31.736Z" transform="translate(1.171 2.472)" fill="#12263f"/>
        <path id="Trazado_978192" data-name="Trazado 978192" d="M40.134,12.351H5.266a2.026,2.026,0,0,1-2.02-1.906l-.294-4.96A2.024,2.024,0,0,1,4.973,3.339H40.427a2.024,2.024,0,0,1,2.021,2.147l-.293,4.959a2.028,2.028,0,0,1-2.021,1.906M4.912,5.368l.294,4.961a.06.06,0,0,0,.06.058H40.134a.062.062,0,0,0,.061-.059l.293-4.96L40.427,5.3H4.973l-1.041.123Z" transform="translate(0.824 0.933)" fill="#12263f"/>
        <path id="Trazado_978193" data-name="Trazado 978193" d="M37.817,6.234H6.273a.982.982,0,0,1-.979-1.061A5.664,5.664,0,0,1,10.908,0H33.182A5.663,5.663,0,0,1,38.8,5.174a.982.982,0,0,1-.979,1.061M7.5,4.272H36.588a3.7,3.7,0,0,0-3.406-2.309H10.908A3.7,3.7,0,0,0,7.5,4.272" transform="translate(1.478 0)" fill="#12263f"/>
        <path id="Trazado_978194" data-name="Trazado 978194" d="M31.628,23.784a.981.981,0,0,1-.66-1.708l3.7-3.362V13.786H32.137a.981.981,0,1,1,0-1.963h3.512a.981.981,0,0,1,.981.981v6.343a.979.979,0,0,1-.321.725l-4.021,3.655a.975.975,0,0,1-.66.256" transform="translate(8.561 3.303)" fill="#12263f"/>
        <path id="Trazado_978195" data-name="Trazado 978195" d="M8.241,46.936H5.972a3.669,3.669,0,0,1-3.665-3.664v-8.3a3.669,3.669,0,0,1,3.665-3.665h.789a.982.982,0,0,1,.981.945l.147,4.015a3.219,3.219,0,0,0,3.074,3.074.984.984,0,0,1,.942.981v2.945a3.669,3.669,0,0,1-3.665,3.664M5.816,33.281a1.7,1.7,0,0,0-1.545,1.7v8.3a1.7,1.7,0,0,0,1.7,1.7H8.241a1.7,1.7,0,0,0,1.7-1.7V41.18a5.2,5.2,0,0,1-4.013-4.836Z" transform="translate(0.644 8.747)" fill="#12263f"/>
        <path id="Trazado_978196" data-name="Trazado 978196" d="M6.451,23.784a.975.975,0,0,1-.66-.256L1.77,19.873a.979.979,0,0,1-.321-.725V12.8a.981.981,0,0,1,.981-.981H5.942a.981.981,0,0,1,0,1.963H3.413v4.928l3.7,3.362a.981.981,0,0,1-.66,1.708" transform="translate(0.405 3.303)" fill="#12263f"/>
        <path id="Trazado_978197" data-name="Trazado 978197" d="M46.064,43.953H.981a.982.982,0,0,1,0-1.964H46.064a.982.982,0,0,1,0,1.964" transform="translate(0 11.73)" fill="#12263f"/>
        <path id="Trazado_978198" data-name="Trazado 978198" d="M24.878,26.878H19.756a.981.981,0,1,1,0-1.963h5.121a1.108,1.108,0,0,0,.96-1.663l-.974-1.685a.982.982,0,0,1,1.7-.981l.972,1.685a3.071,3.071,0,0,1-2.66,4.607" transform="translate(5.245 5.614)" fill="#12263f"/>
        <path id="Trazado_978199" data-name="Trazado 978199" d="M18.117,27.581H14.886a3.071,3.071,0,0,1-2.66-4.607l2.831-4.9a.982.982,0,1,1,1.7.981l-2.831,4.9a1.109,1.109,0,0,0,.96,1.663h3.232a.981.981,0,1,1,0,1.963" transform="translate(3.299 4.911)" fill="#12263f"/>
        <path id="Trazado_978200" data-name="Trazado 978200" d="M24.921,21.134a.982.982,0,0,1-.851-.491l-3.346-5.794a1.107,1.107,0,0,0-1.918,0l-1.265,2.189a.981.981,0,1,1-1.7-.981l1.264-2.189a3.072,3.072,0,0,1,5.32,0l3.344,5.794a.982.982,0,0,1-.849,1.473" transform="translate(4.389 3.445)" fill="#12263f"/>
        <path id="Trazado_978201" data-name="Trazado 978201" d="M23.5,20.073a.983.983,0,0,1-.507-.141L21.281,18.9a.981.981,0,0,1,1.013-1.681l.224.136v-.241a.981.981,0,1,1,1.963,0v1.979a.981.981,0,0,1-.981.981" transform="translate(5.812 4.506)" fill="#12263f"/>
        <path id="Trazado_978202" data-name="Trazado 978202" d="M15.609,21.491a.981.981,0,0,1-.981-.981v-.241L14.4,20.4a.982.982,0,0,1-1.015-1.681L15.1,17.691a.981.981,0,0,1,1.488.841v1.978a.981.981,0,0,1-.981.981" transform="translate(3.608 4.903)" fill="#12263f"/>
        <path id="Trazado_978203" data-name="Trazado 978203" d="M21.478,27.017a.986.986,0,0,1-.489-.13L19.273,25.9a.982.982,0,0,1,.014-1.709l1.748-.97a.981.981,0,0,1,.953,1.716l-.229.127.209.12a.981.981,0,0,1-.49,1.832" transform="translate(5.247 6.453)" fill="#12263f"/>
      </g>
    </g>
  </g>
</svg>
