<svg xmlns="http://www.w3.org/2000/svg" xmlns:xlink="http://www.w3.org/1999/xlink" width="105" height="105" viewBox="0 0 105 105">
  <defs>
    <clipPath id="clip-path">
      <rect id="Rectángulo_404418" data-name="Rectángulo 404418" width="59.42" height="39.617" fill="#12263f"/>
    </clipPath>
  </defs>
  <g id="Grupo_1112377" data-name="Grupo 1112377" transform="translate(-590.051 -1496)">
    <circle id="Elipse_11806" data-name="Elipse 11806" cx="52.5" cy="52.5" r="52.5" transform="translate(590.051 1496)" fill="#f9f2c8"/>
    <g id="Grupo_1112376" data-name="Grupo 1112376" transform="translate(613.051 1529)">
      <g id="Grupo_1112375" data-name="Grupo 1112375" clip-path="url(#clip-path)">
        <path id="Trazado_978207" data-name="Trazado 978207" d="M273.352,141.211a1.1,1.1,0,0,1-1.1-1.1v-3.187a10.191,10.191,0,0,1,3.3-7.5l3.657-3.349a4.509,4.509,0,0,0,1.124-1.614l1.813-4.45a3.628,3.628,0,0,1,6.8,2.516l-1.443,4.328a7.079,7.079,0,0,1-1.117,2.1l-2.241,2.9a1.1,1.1,0,1,1-1.737-1.343l2.241-2.9a4.887,4.887,0,0,0,.772-1.447l1.443-4.328a1.432,1.432,0,0,0-2.685-.993l-1.813,4.45a6.72,6.72,0,0,1-1.674,2.406l-3.657,3.348a7.99,7.99,0,0,0-2.588,5.879v3.187a1.1,1.1,0,0,1-1.1,1.1" transform="translate(-234.892 -101.593)" fill="#12263f"/>
        <path id="Trazado_978208" data-name="Trazado 978208" d="M347.15,39.617a1.1,1.1,0,0,1-.976-1.6l3.258-6.357a19.965,19.965,0,0,0,1.933-5.857l1.082-6.544a5.875,5.875,0,0,0-.3-2.982l-4.81-13.127a1.484,1.484,0,0,0-2.8.991L348,14.124a4.753,4.753,0,0,1,.129,2.684l-.216.89a1.1,1.1,0,1,1-2.134-.518l.216-.89a2.56,2.56,0,0,0-.069-1.447l-3.466-9.99-.005-.015a3.68,3.68,0,0,1,6.938-2.452l4.81,13.127a8.074,8.074,0,0,1,.413,4.1l-1.083,6.551a22.156,22.156,0,0,1-2.145,6.5l-3.258,6.356a1.1,1.1,0,0,1-.978.6" transform="translate(-295.294 0)" fill="#12263f"/>
        <path id="Trazado_978209" data-name="Trazado 978209" d="M123.642,26.229a1.1,1.1,0,0,1-.491-.116,46.158,46.158,0,0,1-8.394-6.427c-3.587-3.549-5.554-6.967-5.847-10.157a8.913,8.913,0,0,1,2.209-6.737A8.173,8.173,0,0,1,117.095.017a8.4,8.4,0,0,1,6.548,2.917A8.4,8.4,0,0,1,130.19.017a8.172,8.172,0,0,1,5.975,2.776,8.914,8.914,0,0,1,2.209,6.737c-.294,3.19-2.261,6.607-5.847,10.157a46.156,46.156,0,0,1-8.394,6.427,1.1,1.1,0,0,1-.491.116M117.27,2.211h-.13a6,6,0,0,0-4.384,2.043,6.711,6.711,0,0,0-1.66,5.074c.168,1.83,1.208,4.841,5.205,8.8a44,44,0,0,0,7.34,5.723,43.992,43.992,0,0,0,7.34-5.723c4-3.956,5.037-6.967,5.205-8.8a6.711,6.711,0,0,0-1.66-5.074,6,6,0,0,0-4.383-2.043A6.217,6.217,0,0,0,124.6,5.374a1.1,1.1,0,0,1-1.911,0,6.216,6.216,0,0,0-5.416-3.164" transform="translate(-93.932 -0.013)" fill="#12263f"/>
        <path id="Trazado_978210" data-name="Trazado 978210" d="M53.493,141.211a1.1,1.1,0,0,1-1.1-1.1v-3.187a7.991,7.991,0,0,0-2.588-5.879L46.15,127.7a6.72,6.72,0,0,1-1.674-2.406l-1.813-4.45a1.432,1.432,0,0,0-2.685.993l1.443,4.328a4.886,4.886,0,0,0,.772,1.448l2.241,2.9a1.1,1.1,0,0,1-1.737,1.343l-2.241-2.9a7.082,7.082,0,0,1-1.117-2.1L37.9,122.531a3.628,3.628,0,0,1,6.8-2.516l1.813,4.45a4.51,4.51,0,0,0,1.124,1.615l3.657,3.348a10.191,10.191,0,0,1,3.3,7.5v3.187a1.1,1.1,0,0,1-1.1,1.1" transform="translate(-32.532 -101.593)" fill="#12263f"/>
        <path id="Trazado_978211" data-name="Trazado 978211" d="M7.564,39.618a1.1,1.1,0,0,1-.978-.6L3.328,32.664a22.162,22.162,0,0,1-2.145-6.5L.1,19.619a8.086,8.086,0,0,1,.415-4.113L5.319,2.4A3.68,3.68,0,0,1,12.261,4.84l-.005.015-3.466,9.99a2.561,2.561,0,0,0-.07,1.447l.216.89A1.1,1.1,0,1,1,6.8,17.7l-.216-.89a4.753,4.753,0,0,1,.129-2.684l3.464-9.981a1.484,1.484,0,0,0-2.8-.983L2.574,16.27a5.889,5.889,0,0,0-.306,3l1.081,6.538a19.97,19.97,0,0,0,1.933,5.857L8.54,38.019a1.1,1.1,0,0,1-.976,1.6" transform="translate(0 0)" fill="#12263f"/>
      </g>
    </g>
  </g>
</svg>
