<svg xmlns="http://www.w3.org/2000/svg" xmlns:xlink="http://www.w3.org/1999/xlink" width="105" height="105" viewBox="0 0 105 105">
  <defs>
    <clipPath id="clip-path">
      <rect id="Rectángulo_404417" data-name="Rectángulo 404417" width="50.931" height="66.473" fill="none"/>
    </clipPath>
  </defs>
  <g id="Grupo_1112382" data-name="Grupo 1112382" transform="translate(-905.051 -1496)">
    <circle id="Elipse_11807" data-name="Elipse 11807" cx="52.5" cy="52.5" r="52.5" transform="translate(905.051 1496)" fill="#f9f2c8"/>
    <g id="Grupo_1112374" data-name="Grupo 1112374" transform="translate(932.051 1515.264)">
      <g id="Grupo_1112373" data-name="Grupo 1112373" clip-path="url(#clip-path)">
        <path id="Trazado_978204" data-name="Trazado 978204" d="M75.587,15.541A6.65,6.65,0,0,0,82.23,8.9V6.13a6.259,6.259,0,0,0-7.2-6.089A6.1,6.1,0,0,0,68.944,6.13V8.9a6.65,6.65,0,0,0,6.643,6.643M71.158,6.13a3.88,3.88,0,0,1,3.875-3.875h1.107A3.88,3.88,0,0,1,80.016,6.13V8.9a4.429,4.429,0,0,1-8.858,0Z" transform="translate(-58.979 0)" fill="#1d1d1b"/>
        <path id="Trazado_978205" data-name="Trazado 978205" d="M40.966,122.855H31a6.86,6.86,0,0,0-5.536,2.508,6.861,6.861,0,0,0-5.536-2.508H9.965A9.976,9.976,0,0,0,0,132.82v13.286c.036,3.633,3.153,5.9,6.643,5.536v15.5a4.434,4.434,0,0,0,4.429,4.429h2.214a4.4,4.4,0,0,0,3.322-1.531,4.4,4.4,0,0,0,3.321,1.531h2.214a4.4,4.4,0,0,0,3.322-1.531,4.4,4.4,0,0,0,3.321,1.531H31a4.4,4.4,0,0,0,3.322-1.531,4.4,4.4,0,0,0,3.321,1.531h2.214a4.434,4.434,0,0,0,4.429-4.429v-15.5c3.49.366,6.607-1.9,6.643-5.536V132.82a9.976,9.976,0,0,0-9.965-9.965m-18.822,46.5H19.929a2.217,2.217,0,0,1-2.214-2.214V148.32a1.107,1.107,0,0,0-2.214,0v18.822a2.217,2.217,0,0,1-2.214,2.214H11.072a2.217,2.217,0,0,1-2.214-2.214V137.248a1.107,1.107,0,0,0-2.214,0v12.179H5.536a3.325,3.325,0,0,1-3.322-3.321V132.82a7.759,7.759,0,0,1,7.75-7.75h9.965c2.736,0,4.429,1.724,4.429,3.321v38.752a2.217,2.217,0,0,1-2.214,2.214m26.573-23.251a3.325,3.325,0,0,1-3.322,3.321H44.288V137.248a1.107,1.107,0,0,0-2.214,0v29.894a2.217,2.217,0,0,1-2.214,2.214H37.644a2.217,2.217,0,0,1-2.214-2.214V148.32a1.107,1.107,0,0,0-2.214,0v18.822A2.217,2.217,0,0,1,31,169.357H28.787a2.217,2.217,0,0,1-2.214-2.214V128.391c0-1.6,1.693-3.321,4.429-3.321h9.965a7.759,7.759,0,0,1,7.75,7.75Z" transform="translate(0 -105.099)" fill="#1d1d1b"/>
        <path id="Trazado_978206" data-name="Trazado 978206" d="M198.155,15.541A6.65,6.65,0,0,0,204.8,8.9V6.13A6.259,6.259,0,0,0,197.6.041a6.1,6.1,0,0,0-6.089,6.089V8.9a6.65,6.65,0,0,0,6.643,6.643M193.726,6.13A3.88,3.88,0,0,1,197.6,2.255h1.107a3.88,3.88,0,0,1,3.875,3.875V8.9a4.429,4.429,0,1,1-8.857,0Z" transform="translate(-163.832 0)" fill="#1d1d1b"/>
      </g>
    </g>
  </g>
</svg>
