<svg id="Grupo_1112384" data-name="Grupo 1112384" xmlns="http://www.w3.org/2000/svg" xmlns:xlink="http://www.w3.org/1999/xlink" width="463.527" height="84.48" viewBox="0 0 463.527 84.48">
  <defs>
    <clipPath id="clip-path">
      <rect id="Rectángulo_404421" data-name="Rectángulo 404421" width="463.527" height="84.48" fill="none"/>
    </clipPath>
  </defs>
  <g id="Grupo_1112383" data-name="Grupo 1112383" clip-path="url(#clip-path)">
    <path id="Trazado_978212" data-name="Trazado 978212" d="M734.623,42.239A42.24,42.24,0,1,1,692.382,0a42.24,42.24,0,0,1,42.24,42.24" transform="translate(-555.394 0.001)" fill="#ffc404"/>
    <path id="Trazado_978213" data-name="Trazado 978213" d="M721.972,35.764a36.063,36.063,0,1,1-36.063,36.063,36.1,36.1,0,0,1,36.063-36.063m0-1.13a37.193,37.193,0,1,0,37.193,37.193,37.235,37.235,0,0,0-37.193-37.193" transform="translate(-584.983 -29.587)"/>
    <path id="Trazado_978214" data-name="Trazado 978214" d="M755.241,159.654,732.9,137.486a31.416,31.416,0,0,0-9.171,22.2c0,.012,0,.024,0,.036h63.033c0-.012,0-.024,0-.036a31.416,31.416,0,0,0-9.172-22.2Z" transform="translate(-618.252 -117.45)"/>
    <path id="Trazado_978215" data-name="Trazado 978215" d="M871.968,289.74l-11.652,29.284.033.014a31.419,31.419,0,0,0,24.021-.368Z" transform="translate(-734.938 -247.515)"/>
    <path id="Trazado_978216" data-name="Trazado 978216" d="M786.287,136.236c0-.012,0-.024,0-.036A31.607,31.607,0,0,0,772.352,110l-17.538,26.2-17.841-25.981.042-.23A31.608,31.608,0,0,0,723.06,136.2c0,.012,0,.024,0,.036Z" transform="translate(-617.685 -93.96)"/>
    <path id="Trazado_978217" data-name="Trazado 978217" d="M870.493,232.206a11.855,11.855,0,1,1,11.855-11.855,11.869,11.869,0,0,1-11.855,11.855" transform="translate(-733.505 -178.111)" fill="#ffc404"/>
    <path id="Trazado_978218" data-name="Trazado 978218" d="M883.536,243.024a9.63,9.63,0,1,1,9.63-9.63,9.641,9.641,0,0,1-9.63,9.63" transform="translate(-746.548 -191.153)"/>
    <path id="Trazado_978219" data-name="Trazado 978219" d="M1377.7,84.905h-69.676a7.366,7.366,0,0,1-6.589-10.66l34.838-69.676a7.366,7.366,0,0,1,13.177,0l34.838,69.676a7.366,7.366,0,0,1-6.588,10.66" transform="translate(-1111.102 -0.425)" fill="#ffc404"/>
    <path id="Trazado_978220" data-name="Trazado 978220" d="M1372.443,36.261a1.127,1.127,0,0,1,1.063.657l34.838,69.676a1.189,1.189,0,0,1-1.063,1.721h-69.676a1.189,1.189,0,0,1-1.063-1.721l34.838-69.675a1.127,1.127,0,0,1,1.063-.657m0-1.13a2.261,2.261,0,0,0-2.074,1.282l-34.838,69.676a2.318,2.318,0,0,0,2.074,3.355h69.676a2.318,2.318,0,0,0,2.073-3.355l-34.838-69.676a2.261,2.261,0,0,0-2.073-1.282" transform="translate(-1140.68 -30.011)"/>
    <path id="Trazado_978221" data-name="Trazado 978221" d="M1540.585,173.177l-2.533,30.034,9.721-6.6-2.636,22.674,9.741-34.709-10.313,6.875,3.619-18.274Z" transform="translate(-1313.904 -147.939)"/>
    <path id="Trazado_978222" data-name="Trazado 978222" d="M2678.354,84.905h-69.676a7.366,7.366,0,0,1-6.588-10.66l34.838-69.676a7.366,7.366,0,0,1,13.177,0l34.838,69.676a7.366,7.366,0,0,1-6.589,10.66" transform="translate(-2222.203 -0.425)" fill="#ffc404"/>
    <path id="Trazado_978223" data-name="Trazado 978223" d="M2673.1,36.261a1.127,1.127,0,0,1,1.064.657L2709,106.594a1.189,1.189,0,0,1-1.064,1.721h-69.676a1.189,1.189,0,0,1-1.063-1.721l34.838-69.675a1.127,1.127,0,0,1,1.063-.657m0-1.13a2.261,2.261,0,0,0-2.074,1.282l-34.837,69.676a2.318,2.318,0,0,0,2.073,3.355h69.676a2.318,2.318,0,0,0,2.074-3.355l-34.838-69.676a2.261,2.261,0,0,0-2.074-1.282" transform="translate(-2251.782 -30.011)"/>
    <path id="Trazado_978224" data-name="Trazado 978224" d="M2861.3,209.407h-4.516l-3.188-36.23h10.892Z" transform="translate(-2437.726 -147.939)"/>
    <path id="Trazado_978225" data-name="Trazado 978225" d="M2868.9,450.639h0a3.764,3.764,0,0,1-3.763-3.764V446.7a3.764,3.764,0,0,1,7.527,0v.175a3.764,3.764,0,0,1-3.764,3.764" transform="translate(-2447.587 -378.386)"/>
    <path id="Trazado_978226" data-name="Trazado 978226" d="M2035.274,42.239A42.24,42.24,0,1,1,1993.033,0a42.24,42.24,0,0,1,42.24,42.24" transform="translate(-1666.495 0.001)" fill="#ffc404"/>
    <path id="Trazado_978227" data-name="Trazado 978227" d="M2022.622,35.764a36.063,36.063,0,1,1-36.063,36.063,36.1,36.1,0,0,1,36.063-36.063m0-1.13a37.193,37.193,0,1,0,37.193,37.193,37.235,37.235,0,0,0-37.193-37.193" transform="translate(-1696.083 -29.587)"/>
    <path id="Trazado_978228" data-name="Trazado 978228" d="M2137.553,121.351c.561,1.257.047,6.965-1.246,10.279l-.064-.091c-3.672-10.082-8.72-10.289-9.959-18.336a10.571,10.571,0,0,1,1.8-7.465c-.032-.024-9.387,4.08-14.38,11.462a24.466,24.466,0,0,0-3.981,9.076,21.033,21.033,0,0,0-.306,2.284c-.034.064-.061.132-.094.2-1.2-2.334-2.1-5.82-1.392-7.4a20.427,20.427,0,0,0-5.553,16.255,21.385,21.385,0,0,0,3.709,10,16.325,16.325,0,0,1,2.3-9.745c-.278,1.352,1.022,3.912,2.363,5.521.014-.056.023-.114.039-.17a16.528,16.528,0,0,1-.156-1.831,19.5,19.5,0,0,1,1.532-7.752c2.612-6.61,9.187-11.42,9.215-11.407a8.427,8.427,0,0,0-.115,6.123c2.354,6.05,6.319,5.34,10.92,12.555l.065.06c.435-2.8-.151-7.336-.805-8.218a16.254,16.254,0,0,1,6.4,8.391,16.751,16.751,0,0,1,.714,7.56,20.748,20.748,0,0,0,4.546-15.333,20.38,20.38,0,0,0-5.557-12.01" transform="translate(-1795.897 -90.329)"/>
    <path id="Trazado_978229" data-name="Trazado 978229" d="M2183.392,307.376a10.764,10.764,0,0,1,.491,5.014l-.039-.036c-2.807-4.4-5.227-3.969-6.663-7.661a5.143,5.143,0,0,1,.07-3.735,18.2,18.2,0,0,0-5.623,6.96,11.907,11.907,0,0,0-.934,4.73,10.123,10.123,0,0,0,.1,1.117c-.009.034-.015.069-.024.1-.818-.981-1.61-2.543-1.441-3.368a9.935,9.935,0,0,0-.925,8.306c1.4,4.2,5.348,7.129,9.54,6.807a12.069,12.069,0,0,0,5.822-1.943,9.753,9.753,0,0,0,3.536-11.174,9.916,9.916,0,0,0-3.905-5.119" transform="translate(-1851.948 -257.097)"/>
    <path id="Trazado_978230" data-name="Trazado 978230" d="M77.052,84.905H7.375A7.366,7.366,0,0,1,.787,74.245L35.625,4.569a7.366,7.366,0,0,1,13.177,0L83.64,74.245a7.366,7.366,0,0,1-6.588,10.66" transform="translate(0 -0.425)" fill="#ffc404"/>
    <path id="Trazado_978231" data-name="Trazado 978231" d="M71.793,36.261a1.126,1.126,0,0,1,1.063.657l34.838,69.676a1.189,1.189,0,0,1-1.063,1.721H36.955a1.189,1.189,0,0,1-1.064-1.721L70.73,36.918a1.127,1.127,0,0,1,1.064-.657m0-1.13a2.261,2.261,0,0,0-2.074,1.282L34.881,106.089a2.318,2.318,0,0,0,2.074,3.355h69.676a2.318,2.318,0,0,0,2.074-3.355L73.867,36.413a2.261,2.261,0,0,0-2.074-1.282" transform="translate(-29.579 -30.011)"/>
    <rect id="Rectángulo_404419" data-name="Rectángulo 404419" width="6.026" height="23.372" transform="translate(31.82 38.492) rotate(-45)"/>
    <rect id="Rectángulo_404420" data-name="Rectángulo 404420" width="23.372" height="6.026" transform="translate(31.82 50.758) rotate(-45)"/>
    <path id="Trazado_978232" data-name="Trazado 978232" d="M140.492,426.513v-9.822h2.532a6.554,6.554,0,0,1,2.06.239,2.117,2.117,0,0,1,1.065.82,3.019,3.019,0,0,1,.434,1.17,28.225,28.225,0,0,1,0,5.36,3.078,3.078,0,0,1-.434,1.174,2.114,2.114,0,0,1-1.065.819,6.545,6.545,0,0,1-2.06.24Zm2.309-7.992v6.2a.721.721,0,0,0,.134.012h.2a1.62,1.62,0,0,0,.615-.1.888.888,0,0,0,.4-.326,1.541,1.541,0,0,0,.175-.689q.048-.51.048-2v-.447q0-1.225-.045-1.655a1.249,1.249,0,0,0-.166-.59.8.8,0,0,0-.392-.313,1.827,1.827,0,0,0-.66-.1q-.121,0-.188,0c-.045,0-.084.006-.118.01" transform="translate(-120.017 -355.965)"/>
    <path id="Trazado_978233" data-name="Trazado 978233" d="M187.885,426.513l2.143-9.822h2.73l2.118,9.822h-2.3l-.287-1.881h-1.8l-.287,1.881Zm2.838-3.655h1.32l-.657-4.286Z" transform="translate(-160.504 -355.965)"/>
    <path id="Trazado_978234" data-name="Trazado 978234" d="M242.021,426.513v-9.822h2.391l1.907,6.059q-.115-1.53-.169-2.641t-.054-1.875v-1.543h2.047v9.822h-2.4l-1.92-6.244q.128,1.219.195,2.363t.067,2.222v1.659Z" transform="translate(-206.75 -355.965)"/>
    <path id="Trazado_978235" data-name="Trazado 978235" d="M299.936,419.748v5.383h-1.582l-.1-.613a2.292,2.292,0,0,1-.762.59,2.211,2.211,0,0,1-.947.195,2.715,2.715,0,0,1-1.107-.223,2.554,2.554,0,0,1-.883-.644,2.987,2.987,0,0,1-.657-1.39,15.728,15.728,0,0,1-.191-2.96,16.721,16.721,0,0,1,.134-2.379,3.571,3.571,0,0,1,.414-1.339,2.6,2.6,0,0,1,1.081-.97,3.637,3.637,0,0,1,1.6-.325,2.838,2.838,0,0,1,2.181.787,3.339,3.339,0,0,1,.733,2.35c0,.038,0,.1-.006.175s-.006.141-.006.188h-2.181v-.121a2.912,2.912,0,0,0-.182-1.212.614.614,0,0,0-.59-.364.664.664,0,0,0-.667.447,7.134,7.134,0,0,0-.182,2.085v1.646a7.271,7.271,0,0,0,.172,2.066.634.634,0,0,0,.638.427.717.717,0,0,0,.676-.376,2.627,2.627,0,0,0,.21-1.218c0-.128,0-.226,0-.294s-.005-.134-.01-.2h-.9v-1.715Z" transform="translate(-250.902 -354.582)"/>
    <path id="Trazado_978236" data-name="Trazado 978236" d="M346.7,426.513v-9.822h5.344V418.6h-3.061v1.8h2.826v1.971h-2.826v2.143h3.061v2Z" transform="translate(-296.175 -355.965)"/>
    <path id="Trazado_978237" data-name="Trazado 978237" d="M393.133,426.513v-9.822h2.583a10.207,10.207,0,0,1,1.843.118,2.159,2.159,0,0,1,.931.4,2.132,2.132,0,0,1,.628.848,3.153,3.153,0,0,1,.207,1.2,3.075,3.075,0,0,1-.3,1.423,2.348,2.348,0,0,1-.921.944q1.065.472,1.122,2.239v.032q.006.185.013.536.025,1.658.549,2.08h-2.685a4.032,4.032,0,0,1-.131-.641,5.81,5.81,0,0,1-.041-.717q0-.236.013-.571t.013-.437a2.267,2.267,0,0,0-.236-1.231.972.972,0,0,0-.848-.332H395.4v3.929Zm2.271-5.734q.057,0,.15.006c.062,0,.107.006.137.006a1.434,1.434,0,0,0,1.011-.287,1.311,1.311,0,0,0,.3-.969,1.152,1.152,0,0,0-.3-.9,1.516,1.516,0,0,0-1.011-.265c-.03,0-.075,0-.137.006s-.112.007-.15.007Z" transform="translate(-335.84 -355.965)"/>
  </g>
</svg>
