<svg xmlns="http://www.w3.org/2000/svg" xmlns:xlink="http://www.w3.org/1999/xlink" width="235.171" height="203.721" viewBox="0 0 235.171 203.721">
  <defs>
    <clipPath id="clip-path">
      <rect id="Rectángulo_404647" data-name="Rectángulo 404647" width="235.171" height="203.721" fill="none"/>
    </clipPath>
    <clipPath id="clip-path-2">
      <rect id="Rectángulo_404648" data-name="Rectángulo 404648" width="132.117" height="185.163" rx="66.058" fill="none"/>
    </clipPath>
    <clipPath id="clip-path-4">
      <path id="Trazado_985146" data-name="Trazado 985146" d="M913.2,616.829V770.166h89.55l28.84-34.008V616.829Z" transform="translate(-913.204 -616.829)" fill="none"/>
    </clipPath>
    <clipPath id="clip-path-6">
      <path id="Trazado_985154" data-name="Trazado 985154" d="M491.1,3547.669l5.563,15.844,5.563-15.844Z" transform="translate(-491.104 -3547.669)" fill="none"/>
    </clipPath>
    <clipPath id="clip-path-8">
      <path id="Trazado_985157" data-name="Trazado 985157" d="M461.18,1537.82v94.055a7.119,7.119,0,1,0,14.238,0V1537.82a7.119,7.119,0,0,0-14.238,0" transform="translate(-461.18 -1530.701)" fill="none"/>
    </clipPath>
    <clipPath id="clip-path-10">
      <path id="Rectángulo_404660" data-name="Rectángulo 404660" d="M9.2,0h0a9.2,9.2,0,0,1,9.2,9.2V31.465a9.2,9.2,0,0,1-9.2,9.2h0a9.2,9.2,0,0,1-9.2-9.2V9.2A9.2,9.2,0,0,1,9.2,0Z" fill="none"/>
    </clipPath>
    <clipPath id="clip-path-12">
      <path id="Trazado_985162" data-name="Trazado 985162" d="M461.18,1537.82v5.77h14.238v-5.77a7.119,7.119,0,0,0-14.238,0" transform="translate(-461.18 -1530.701)" fill="none"/>
    </clipPath>
    <clipPath id="clip-path-14">
      <path id="Trazado_985166" data-name="Trazado 985166" d="M841.223,1654.587v38.934a5.562,5.562,0,0,0,5.562,5.562v-44.5Z" transform="translate(-841.223 -1654.587)" fill="none"/>
    </clipPath>
    <clipPath id="clip-path-16">
      <path id="Trazado_985170" data-name="Trazado 985170" d="M2582.938,1622.4c-15.847-.132-26.589,3.185-33.006,6.16a12.94,12.94,0,0,0-7.5,11.74v64.862a12.94,12.94,0,0,0,5.915,10.866l34.589,22.361,34.589-22.361a12.939,12.939,0,0,0,5.915-10.866V1640.3a12.94,12.94,0,0,0-7.5-11.74c-6.293-2.917-16.743-6.164-32.09-6.164-.3,0-.61,0-.916,0" transform="translate(-2542.434 -1622.398)" fill="none"/>
    </clipPath>
    <clipPath id="clip-path-18">
      <rect id="Rectángulo_404669" data-name="Rectángulo 404669" width="7.886" height="36.434" fill="none"/>
    </clipPath>
    <clipPath id="clip-path-20">
      <path id="Trazado_985184" data-name="Trazado 985184" d="M492.571,2162.179a18.352,18.352,0,1,0,18.352-18.352,18.361,18.361,0,0,0-18.352,18.352" transform="translate(-492.571 -2143.827)" fill="none"/>
    </clipPath>
    <clipPath id="clip-path-24">
      <path id="Trazado_985195" data-name="Trazado 985195" d="M698.136,3151.838v28.775a7.659,7.659,0,0,0,15.318,0v-28.775Z" transform="translate(-698.136 -3151.838)" fill="none"/>
    </clipPath>
  </defs>
  <g id="Grupo_1113059" data-name="Grupo 1113059" transform="translate(0 -0.005)">
    <g id="Grupo_1113010" data-name="Grupo 1113010" transform="translate(0 0.005)">
      <g id="Grupo_1113009" data-name="Grupo 1113009" transform="translate(0 0)" clip-path="url(#clip-path)">
        <path id="Trazado_985072" data-name="Trazado 985072" d="M56.6,749.565a110.509,110.509,0,0,1-19.284-62.733q0-1.35.032-2.692a111,111,0,0,1,1.083-13.79h71.287a5.049,5.049,0,0,0,3.634-1.56,5.462,5.462,0,0,0,0-7.531,5.049,5.049,0,0,0-3.634-1.56H30.139a5.049,5.049,0,0,1-3.634-1.56,5.462,5.462,0,0,1,0-7.531,5.049,5.049,0,0,1,3.634-1.56H43.673a106.21,106.21,0,0,1,45.494-55.673A98.453,98.453,0,0,1,139.9,579.313h.36c29.794,0,56.648,13.146,75.45,34.142H145.394a5.049,5.049,0,0,0-3.634,1.56,5.462,5.462,0,0,0,0,7.531,5.049,5.049,0,0,0,3.634,1.56h92.648a5.049,5.049,0,0,1,3.633,1.56,5.462,5.462,0,0,1,0,7.531,5.049,5.049,0,0,1-3.633,1.56h-7.5a109.143,109.143,0,0,1,12.638,51.215q0,4.688-.394,9.326h9.644a5.049,5.049,0,0,1,3.634,1.56,5.462,5.462,0,0,1,0,7.531,5.049,5.049,0,0,1-3.634,1.56H145.394a5.049,5.049,0,0,0-3.634,1.56,5.462,5.462,0,0,0,0,7.531,5.049,5.049,0,0,0,3.634,1.56h93.453a120.525,120.525,0,0,1-15.654,32.971Z" transform="translate(-23.7 -549.178)" fill="#f2eab4" fill-rule="evenodd"/>
        <rect id="Rectángulo_404646" data-name="Rectángulo 404646" width="132.117" height="185.163" rx="12" transform="translate(40.64 15.224)" fill="#f90"/>
      </g>
    </g>
    <g id="Grupo_1113012" data-name="Grupo 1113012" transform="translate(40.64 15.229)">
      <g id="Grupo_1113011" data-name="Grupo 1113011" clip-path="url(#clip-path-2)">
        <path id="Trazado_985073" data-name="Trazado 985073" d="M2663.559,2910.817v34.008h-28.84Z" transform="translate(-2538.306 -2774.626)" fill="#e18700" fill-rule="evenodd"/>
      </g>
    </g>
    <g id="Grupo_1113014" data-name="Grupo 1113014" transform="translate(0 0.005)">
      <g id="Grupo_1113013" data-name="Grupo 1113013" transform="translate(0 0)" clip-path="url(#clip-path)">
        <path id="Trazado_985074" data-name="Trazado 985074" d="M903.948,473.35H781.214a4.957,4.957,0,0,1-4.951-4.951V292.618a4.957,4.957,0,0,1,4.951-4.951H903.948a4.957,4.957,0,0,1,4.951,4.951V468.4a4.957,4.957,0,0,1-4.951,4.951M781.214,288.187a4.436,4.436,0,0,0-4.431,4.431V468.4a4.436,4.436,0,0,0,4.431,4.431H903.948a4.436,4.436,0,0,0,4.431-4.431V292.618a4.436,4.436,0,0,0-4.431-4.431Z" transform="translate(-735.883 -272.703)" fill="#336b98"/>
        <path id="Trazado_985075" data-name="Trazado 985075" d="M1002.753,770.166H913.2V616.829h118.39V736.158Z" transform="translate(-865.701 -584.743)" fill="#fff" fill-rule="evenodd"/>
      </g>
    </g>
    <g id="Grupo_1113016" data-name="Grupo 1113016" transform="translate(47.503 32.091)">
      <g id="Grupo_1113015" data-name="Grupo 1113015" clip-path="url(#clip-path-4)">
        <path id="Trazado_985076" data-name="Trazado 985076" d="M2585.452,1536.787a1.181,1.181,0,0,1,1.182-1.18h14.621a1.179,1.179,0,0,1,1.18,1.18v.169a1.179,1.179,0,0,1-1.18,1.181h-14.621a1.181,1.181,0,0,1-1.182-1.181Z" transform="translate(-2498.465 -1487.814)" fill="#7592c1"/>
        <path id="Trazado_985077" data-name="Trazado 985077" d="M1617.251,1407.24a1.179,1.179,0,0,0-1.18-1.181H1601.45a1.181,1.181,0,0,0-1.182,1.181v.169a1.181,1.181,0,0,0,1.182,1.18h14.621a1.179,1.179,0,0,0,1.18-1.18Z" transform="translate(-1564.528 -1365.005)" fill="#7592c1"/>
        <path id="Trazado_985078" data-name="Trazado 985078" d="M1911.272,1662.334a1.265,1.265,0,0,1,1.264-1.265h14.452a1.265,1.265,0,1,1,0,2.531h-14.452a1.265,1.265,0,0,1-1.264-1.265" transform="translate(-1859.354 -1606.75)" fill="#7592c1"/>
        <path id="Trazado_985079" data-name="Trazado 985079" d="M2381.678,1536.763a1.157,1.157,0,0,1,1.157-1.156h7.2a1.155,1.155,0,0,1,1.155,1.156v.218a1.155,1.155,0,0,1-1.155,1.156h-7.2a1.157,1.157,0,0,1-1.157-1.156Z" transform="translate(-2305.291 -1487.814)" fill="#7592c1"/>
        <path id="Trazado_985080" data-name="Trazado 985080" d="M1957.162,1407.215a1.155,1.155,0,0,0-1.155-1.156h-7.2a1.155,1.155,0,0,0-1.155,1.156v.219a1.155,1.155,0,0,0,1.155,1.156h7.2a1.155,1.155,0,0,0,1.155-1.156Z" transform="translate(-1893.839 -1365.005)" fill="#7592c1"/>
        <path id="Trazado_985081" data-name="Trazado 985081" d="M1707.5,1662.334a1.265,1.265,0,0,1,1.266-1.265h6.982a1.265,1.265,0,0,1,0,2.531h-6.982a1.265,1.265,0,0,1-1.266-1.265" transform="translate(-1666.181 -1606.75)" fill="#7592c1"/>
        <path id="Trazado_985082" data-name="Trazado 985082" d="M1600.268,1536.839a1.232,1.232,0,0,1,1.233-1.232h3.9a1.232,1.232,0,0,1,1.233,1.232v.067a1.232,1.232,0,0,1-1.233,1.232h-3.9a1.232,1.232,0,0,1-1.233-1.232Z" transform="translate(-1564.528 -1487.814)" fill="#7592c1"/>
        <path id="Trazado_985083" data-name="Trazado 985083" d="M2274.487,1536.734a1.126,1.126,0,0,1,1.126-1.126h2.288a1.126,1.126,0,0,1,1.126,1.126v.277a1.127,1.127,0,0,1-1.126,1.127h-2.288a1.127,1.127,0,0,1-1.126-1.127Z" transform="translate(-2203.676 -1487.814)" fill="#7592c1"/>
        <path id="Trazado_985084" data-name="Trazado 985084" d="M1600.268,1662.334a1.265,1.265,0,0,1,1.266-1.265h2.01a1.265,1.265,0,1,1,0,2.531h-2.01a1.265,1.265,0,0,1-1.266-1.265" transform="translate(-1564.528 -1606.75)" fill="#7592c1"/>
        <path id="Trazado_985085" data-name="Trazado 985085" d="M1757.492,1536.8a1.189,1.189,0,0,1,1.19-1.19h2.838a1.189,1.189,0,0,1,1.19,1.19v.15a1.189,1.189,0,0,1-1.19,1.19h-2.838a1.189,1.189,0,0,1-1.19-1.19Z" transform="translate(-1713.574 -1487.814)" fill="#7592c1"/>
        <path id="Trazado_985086" data-name="Trazado 985086" d="M1876,1536.782a1.175,1.175,0,0,1,1.176-1.175h1.715a1.175,1.175,0,0,1,1.176,1.175v.179a1.175,1.175,0,0,1-1.176,1.176h-1.715a1.175,1.175,0,0,1-1.176-1.176Z" transform="translate(-1825.921 -1487.814)" fill="#7592c1"/>
        <path id="Trazado_985087" data-name="Trazado 985087" d="M1969.895,1536.844a1.237,1.237,0,0,1,1.235-1.237h11.461a1.237,1.237,0,0,1,1.237,1.237v.057a1.237,1.237,0,0,1-1.237,1.237H1971.13a1.237,1.237,0,0,1-1.235-1.237Z" transform="translate(-1914.928 -1487.814)" fill="#7592c1"/>
        <path id="Trazado_985088" data-name="Trazado 985088" d="M2585.452,2098a1.181,1.181,0,0,1,1.182-1.18h14.621a1.179,1.179,0,0,1,1.18,1.18v.17a1.179,1.179,0,0,1-1.18,1.181h-14.621a1.181,1.181,0,0,1-1.182-1.181Z" transform="translate(-2498.465 -2019.834)" fill="#7592c1"/>
        <path id="Trazado_985089" data-name="Trazado 985089" d="M1617.251,1971.073a1.179,1.179,0,0,0-1.18-1.18H1601.45a1.181,1.181,0,0,0-1.182,1.18v.17a1.181,1.181,0,0,0,1.182,1.18h14.621a1.179,1.179,0,0,0,1.18-1.18Z" transform="translate(-1564.528 -1899.509)" fill="#7592c1"/>
        <path id="Trazado_985090" data-name="Trazado 985090" d="M1911.272,2223.549a1.265,1.265,0,0,1,1.264-1.266h14.452a1.266,1.266,0,1,1,0,2.531h-14.452a1.265,1.265,0,0,1-1.264-1.265" transform="translate(-1859.354 -2138.77)" fill="#7592c1"/>
        <path id="Trazado_985091" data-name="Trazado 985091" d="M2381.678,2097.976a1.157,1.157,0,0,1,1.157-1.156h7.2a1.155,1.155,0,0,1,1.155,1.156v.219a1.155,1.155,0,0,1-1.155,1.156h-7.2a1.157,1.157,0,0,1-1.157-1.156Z" transform="translate(-2305.291 -2019.834)" fill="#7592c1"/>
        <path id="Trazado_985092" data-name="Trazado 985092" d="M1957.162,1971.049a1.155,1.155,0,0,0-1.155-1.156h-7.2a1.155,1.155,0,0,0-1.155,1.156v.219a1.155,1.155,0,0,0,1.155,1.156h7.2a1.155,1.155,0,0,0,1.155-1.156Z" transform="translate(-1893.839 -1899.509)" fill="#7592c1"/>
        <path id="Trazado_985093" data-name="Trazado 985093" d="M1707.5,2223.549a1.266,1.266,0,0,1,1.266-1.266h6.982a1.266,1.266,0,0,1,0,2.531h-6.982a1.265,1.265,0,0,1-1.266-1.265" transform="translate(-1666.181 -2138.77)" fill="#7592c1"/>
        <path id="Trazado_985094" data-name="Trazado 985094" d="M2285.571,2223.549a1.265,1.265,0,0,1,1.264-1.266h6.982a1.266,1.266,0,1,1,0,2.531h-6.982a1.265,1.265,0,0,1-1.264-1.265" transform="translate(-2214.183 -2138.77)" fill="#7592c1"/>
        <path id="Trazado_985095" data-name="Trazado 985095" d="M1600.268,2098.052a1.232,1.232,0,0,1,1.233-1.232h3.9a1.232,1.232,0,0,1,1.233,1.232v.067a1.233,1.233,0,0,1-1.233,1.232h-3.9a1.233,1.233,0,0,1-1.233-1.232Z" transform="translate(-1564.528 -2019.834)" fill="#7592c1"/>
        <path id="Trazado_985096" data-name="Trazado 985096" d="M2274.487,2097.947a1.127,1.127,0,0,1,1.126-1.127h2.288a1.127,1.127,0,0,1,1.126,1.127v.277a1.127,1.127,0,0,1-1.126,1.127h-2.288a1.127,1.127,0,0,1-1.126-1.127Z" transform="translate(-2203.676 -2019.834)" fill="#7592c1"/>
        <path id="Trazado_985097" data-name="Trazado 985097" d="M2154.976,1971.02a1.127,1.127,0,0,0-1.126-1.126h-2.29a1.126,1.126,0,0,0-1.126,1.126v.278a1.126,1.126,0,0,0,1.126,1.126h2.29a1.127,1.127,0,0,0,1.126-1.126Z" transform="translate(-2086.076 -1899.509)" fill="#7592c1"/>
        <path id="Trazado_985098" data-name="Trazado 985098" d="M1600.268,2223.549a1.266,1.266,0,0,1,1.266-1.266h2.01a1.266,1.266,0,1,1,0,2.531h-2.01a1.265,1.265,0,0,1-1.266-1.265" transform="translate(-1564.528 -2138.77)" fill="#7592c1"/>
        <path id="Trazado_985099" data-name="Trazado 985099" d="M1757.492,2098.01a1.189,1.189,0,0,1,1.19-1.19h2.838a1.189,1.189,0,0,1,1.19,1.19v.15a1.189,1.189,0,0,1-1.19,1.19h-2.838a1.189,1.189,0,0,1-1.19-1.19Z" transform="translate(-1713.574 -2019.834)" fill="#7592c1"/>
        <path id="Trazado_985100" data-name="Trazado 985100" d="M1876,2098a1.175,1.175,0,0,1,1.176-1.176h1.715a1.175,1.175,0,0,1,1.176,1.176v.179a1.175,1.175,0,0,1-1.176,1.176h-1.715a1.175,1.175,0,0,1-1.176-1.176Z" transform="translate(-1825.921 -2019.834)" fill="#7592c1"/>
        <path id="Trazado_985101" data-name="Trazado 985101" d="M1969.895,2098.057a1.237,1.237,0,0,1,1.235-1.237h11.461a1.237,1.237,0,0,1,1.237,1.237v.057a1.237,1.237,0,0,1-1.237,1.237H1971.13a1.237,1.237,0,0,1-1.235-1.237Z" transform="translate(-1914.928 -2019.834)" fill="#7592c1"/>
        <path id="Trazado_985102" data-name="Trazado 985102" d="M2585.452,2631.185a1.181,1.181,0,0,1,1.182-1.18h14.621a1.179,1.179,0,0,1,1.18,1.18v.169a1.179,1.179,0,0,1-1.18,1.18h-14.621a1.181,1.181,0,0,1-1.182-1.18Z" transform="translate(-2498.465 -2525.283)" fill="#7592c1"/>
        <path id="Trazado_985103" data-name="Trazado 985103" d="M1617.251,2504.258a1.179,1.179,0,0,0-1.18-1.18H1601.45a1.181,1.181,0,0,0-1.182,1.18v.17a1.181,1.181,0,0,0,1.182,1.18h14.621a1.179,1.179,0,0,0,1.18-1.18Z" transform="translate(-1564.528 -2404.959)" fill="#7592c1"/>
        <path id="Trazado_985104" data-name="Trazado 985104" d="M1911.272,2756.732a1.265,1.265,0,0,1,1.264-1.265h14.452a1.265,1.265,0,1,1,0,2.531h-14.452a1.265,1.265,0,0,1-1.264-1.265" transform="translate(-1859.354 -2644.219)" fill="#7592c1"/>
        <path id="Trazado_985105" data-name="Trazado 985105" d="M2381.678,2631.161a1.157,1.157,0,0,1,1.157-1.156h7.2a1.155,1.155,0,0,1,1.155,1.156v.219a1.155,1.155,0,0,1-1.155,1.156h-7.2a1.157,1.157,0,0,1-1.157-1.156Z" transform="translate(-2305.291 -2525.283)" fill="#7592c1"/>
        <path id="Trazado_985106" data-name="Trazado 985106" d="M1957.162,2504.234a1.155,1.155,0,0,0-1.155-1.156h-7.2a1.155,1.155,0,0,0-1.155,1.156v.219a1.155,1.155,0,0,0,1.155,1.156h7.2a1.156,1.156,0,0,0,1.155-1.156Z" transform="translate(-1893.839 -2404.959)" fill="#7592c1"/>
        <path id="Trazado_985107" data-name="Trazado 985107" d="M1707.5,2756.732a1.265,1.265,0,0,1,1.266-1.265h6.982a1.265,1.265,0,0,1,0,2.531h-6.982a1.265,1.265,0,0,1-1.266-1.265" transform="translate(-1666.181 -2644.219)" fill="#7592c1"/>
        <path id="Trazado_985108" data-name="Trazado 985108" d="M2285.571,2756.732a1.265,1.265,0,0,1,1.264-1.265h6.982a1.265,1.265,0,1,1,0,2.531h-6.982a1.265,1.265,0,0,1-1.264-1.265" transform="translate(-2214.183 -2644.219)" fill="#7592c1"/>
        <path id="Trazado_985109" data-name="Trazado 985109" d="M1600.268,2631.237A1.232,1.232,0,0,1,1601.5,2630h3.9a1.232,1.232,0,0,1,1.233,1.232v.067a1.232,1.232,0,0,1-1.233,1.232h-3.9a1.232,1.232,0,0,1-1.233-1.232Z" transform="translate(-1564.528 -2525.283)" fill="#7592c1"/>
        <path id="Trazado_985110" data-name="Trazado 985110" d="M2274.487,2631.132a1.127,1.127,0,0,1,1.126-1.127h2.288a1.126,1.126,0,0,1,1.126,1.127v.277a1.126,1.126,0,0,1-1.126,1.126h-2.288a1.126,1.126,0,0,1-1.126-1.126Z" transform="translate(-2203.676 -2525.283)" fill="#7592c1"/>
        <path id="Rectángulo_404650" data-name="Rectángulo 404650" d="M1.265,0H3.277A1.265,1.265,0,0,1,4.542,1.265v0A1.265,1.265,0,0,1,3.277,2.531H1.265A1.265,1.265,0,0,1,0,1.265v0A1.265,1.265,0,0,1,1.265,0Z" transform="translate(64.358 98.119)" fill="#7592c1"/>
        <path id="Trazado_985111" data-name="Trazado 985111" d="M1600.268,2756.732a1.265,1.265,0,0,1,1.266-1.265h2.01a1.265,1.265,0,1,1,0,2.531h-2.01a1.265,1.265,0,0,1-1.266-1.265" transform="translate(-1564.528 -2644.219)" fill="#7592c1"/>
        <path id="Trazado_985112" data-name="Trazado 985112" d="M2488.355,2756.732a1.265,1.265,0,0,1,1.266-1.265h2.01a1.265,1.265,0,1,1,0,2.531h-2.01a1.265,1.265,0,0,1-1.266-1.265" transform="translate(-2406.419 -2644.219)" fill="#7592c1"/>
        <path id="Trazado_985113" data-name="Trazado 985113" d="M1757.492,2631.2a1.189,1.189,0,0,1,1.19-1.19h2.838a1.189,1.189,0,0,1,1.19,1.19v.15a1.189,1.189,0,0,1-1.19,1.19h-2.838a1.189,1.189,0,0,1-1.19-1.19Z" transform="translate(-1713.574 -2525.283)" fill="#7592c1"/>
        <path id="Trazado_985114" data-name="Trazado 985114" d="M2600.415,2756.732a1.267,1.267,0,0,1,1.266-1.265h2.01a1.265,1.265,0,1,1,0,2.531h-2.01a1.266,1.266,0,0,1-1.266-1.265" transform="translate(-2512.65 -2644.219)" fill="#7592c1"/>
        <path id="Trazado_985115" data-name="Trazado 985115" d="M1876,2631.18a1.175,1.175,0,0,1,1.176-1.176h1.715a1.175,1.175,0,0,1,1.176,1.176v.179a1.175,1.175,0,0,1-1.176,1.175h-1.715a1.175,1.175,0,0,1-1.176-1.175Z" transform="translate(-1825.921 -2525.283)" fill="#7592c1"/>
        <path id="Trazado_985116" data-name="Trazado 985116" d="M1969.895,2631.242a1.237,1.237,0,0,1,1.235-1.237h11.461a1.237,1.237,0,0,1,1.237,1.237v.057a1.237,1.237,0,0,1-1.237,1.237H1971.13a1.237,1.237,0,0,1-1.235-1.237Z" transform="translate(-1914.928 -2525.283)" fill="#7592c1"/>
        <path id="Trazado_985117" data-name="Trazado 985117" d="M1196.417,1505.885a.887.887,0,1,1,1.33-1.174l4.32,4.9a.887.887,0,1,1-1.33,1.174Z" transform="translate(-1181.474 -1458.24)" fill="#7592c1"/>
        <path id="Trazado_985118" data-name="Trazado 985118" d="M1289.162,1449.566a.887.887,0,1,0-1.33-1.174l-6.9,7.828a.887.887,0,1,0,1.33,1.174Z" transform="translate(-1261.588 -1404.851)" fill="#7592c1"/>
        <path id="Trazado_985119" data-name="Trazado 985119" d="M1155.459,1371.063a2.953,2.953,0,0,0-2.955,2.954v11.708a2.953,2.953,0,0,0,2.955,2.954h11.708a2.955,2.955,0,0,0,2.957-2.954v-11.708a2.955,2.955,0,0,0-2.957-2.954Zm0,1.214h11.708a1.739,1.739,0,0,1,1.74,1.74v11.708a1.739,1.739,0,0,1-1.74,1.739h-11.708a1.739,1.739,0,0,1-1.74-1.739v-11.708a1.74,1.74,0,0,1,1.74-1.74" transform="translate(-1140.056 -1331.829)" fill="#7592c1"/>
        <path id="Trazado_985120" data-name="Trazado 985120" d="M1196.417,2067.1a.887.887,0,1,1,1.33-1.174l4.32,4.9a.887.887,0,1,1-1.33,1.174Z" transform="translate(-1181.474 -1990.264)" fill="#7592c1"/>
        <path id="Trazado_985121" data-name="Trazado 985121" d="M1289.162,2010.783a.887.887,0,1,0-1.33-1.174l-6.9,7.828a.887.887,0,1,0,1.33,1.174Z" transform="translate(-1261.588 -1936.875)" fill="#7592c1"/>
        <path id="Trazado_985122" data-name="Trazado 985122" d="M1155.459,1932.281a2.953,2.953,0,0,0-2.955,2.954v11.708a2.954,2.954,0,0,0,2.955,2.954h11.708a2.956,2.956,0,0,0,2.957-2.954v-11.708a2.955,2.955,0,0,0-2.957-2.954Zm0,1.214h11.708a1.739,1.739,0,0,1,1.74,1.739v11.708a1.739,1.739,0,0,1-1.74,1.74h-11.708a1.739,1.739,0,0,1-1.74-1.74v-11.708a1.739,1.739,0,0,1,1.74-1.739" transform="translate(-1140.056 -1863.854)" fill="#7592c1"/>
        <path id="Trazado_985123" data-name="Trazado 985123" d="M1196.417,2600.286a.887.887,0,1,1,1.33-1.173l4.32,4.9a.887.887,0,1,1-1.33,1.174Z" transform="translate(-1181.474 -2495.713)" fill="#7592c1"/>
        <path id="Trazado_985124" data-name="Trazado 985124" d="M1289.162,2543.968a.887.887,0,1,0-1.33-1.173l-6.9,7.827a.887.887,0,1,0,1.33,1.174Z" transform="translate(-1261.588 -2442.324)" fill="#7592c1"/>
        <path id="Trazado_985125" data-name="Trazado 985125" d="M1155.459,2465.462a2.953,2.953,0,0,0-2.955,2.954v11.709a2.954,2.954,0,0,0,2.955,2.954h11.708a2.955,2.955,0,0,0,2.957-2.954v-11.709a2.955,2.955,0,0,0-2.957-2.954Zm0,1.214h11.708a1.739,1.739,0,0,1,1.74,1.739v11.709a1.74,1.74,0,0,1-1.74,1.74h-11.708a1.74,1.74,0,0,1-1.74-1.74v-11.709a1.739,1.739,0,0,1,1.74-1.739" transform="translate(-1140.056 -2369.3)" fill="#7592c1"/>
        <path id="Trazado_985126" data-name="Trazado 985126" d="M2585.452,3183.243a1.181,1.181,0,0,1,1.182-1.18h14.621a1.179,1.179,0,0,1,1.18,1.18v.17a1.179,1.179,0,0,1-1.18,1.18h-14.621a1.181,1.181,0,0,1-1.182-1.18Z" transform="translate(-2498.465 -3048.625)" fill="#7592c1"/>
        <path id="Trazado_985127" data-name="Trazado 985127" d="M1617.251,3053.7a1.179,1.179,0,0,0-1.18-1.181H1601.45a1.181,1.181,0,0,0-1.182,1.181v.169a1.182,1.182,0,0,0,1.182,1.181h14.621a1.18,1.18,0,0,0,1.18-1.181Z" transform="translate(-1564.528 -2925.815)" fill="#7592c1"/>
        <path id="Trazado_985128" data-name="Trazado 985128" d="M1911.272,3308.791a1.265,1.265,0,0,1,1.264-1.265h14.452a1.265,1.265,0,1,1,0,2.53h-14.452a1.265,1.265,0,0,1-1.264-1.265" transform="translate(-1859.354 -3167.561)" fill="#7592c1"/>
        <path id="Trazado_985129" data-name="Trazado 985129" d="M2381.678,3183.219a1.157,1.157,0,0,1,1.157-1.156h7.2a1.155,1.155,0,0,1,1.155,1.156v.219a1.155,1.155,0,0,1-1.155,1.156h-7.2a1.157,1.157,0,0,1-1.157-1.156Z" transform="translate(-2305.291 -3048.625)" fill="#7592c1"/>
        <path id="Trazado_985130" data-name="Trazado 985130" d="M1957.162,3053.671a1.155,1.155,0,0,0-1.155-1.156h-7.2a1.155,1.155,0,0,0-1.155,1.156v.219a1.155,1.155,0,0,0,1.155,1.156h7.2a1.155,1.155,0,0,0,1.155-1.156Z" transform="translate(-1893.839 -2925.815)" fill="#7592c1"/>
        <path id="Trazado_985131" data-name="Trazado 985131" d="M1707.5,3308.791a1.265,1.265,0,0,1,1.266-1.265h6.982a1.265,1.265,0,0,1,0,2.53h-6.982a1.265,1.265,0,0,1-1.266-1.265" transform="translate(-1666.181 -3167.561)" fill="#7592c1"/>
        <path id="Trazado_985132" data-name="Trazado 985132" d="M1600.268,3183.295a1.232,1.232,0,0,1,1.233-1.232h3.9a1.232,1.232,0,0,1,1.233,1.232v.067a1.232,1.232,0,0,1-1.233,1.232h-3.9a1.232,1.232,0,0,1-1.233-1.232Z" transform="translate(-1564.528 -3048.625)" fill="#7592c1"/>
        <path id="Trazado_985133" data-name="Trazado 985133" d="M2274.487,3183.189a1.126,1.126,0,0,1,1.126-1.126h2.288a1.126,1.126,0,0,1,1.126,1.126v.278a1.126,1.126,0,0,1-1.126,1.126h-2.288a1.126,1.126,0,0,1-1.126-1.126Z" transform="translate(-2203.676 -3048.625)" fill="#7592c1"/>
        <path id="Trazado_985134" data-name="Trazado 985134" d="M1600.268,3308.791a1.265,1.265,0,0,1,1.266-1.265h2.01a1.265,1.265,0,1,1,0,2.53h-2.01a1.265,1.265,0,0,1-1.266-1.265" transform="translate(-1564.528 -3167.561)" fill="#7592c1"/>
        <path id="Trazado_985135" data-name="Trazado 985135" d="M1757.492,3183.253a1.189,1.189,0,0,1,1.19-1.19h2.838a1.189,1.189,0,0,1,1.19,1.19v.15a1.189,1.189,0,0,1-1.19,1.19h-2.838a1.189,1.189,0,0,1-1.19-1.19Z" transform="translate(-1713.574 -3048.625)" fill="#7592c1"/>
        <path id="Trazado_985136" data-name="Trazado 985136" d="M1876,3183.238a1.175,1.175,0,0,1,1.176-1.175h1.715a1.175,1.175,0,0,1,1.176,1.175v.179a1.175,1.175,0,0,1-1.176,1.176h-1.715a1.175,1.175,0,0,1-1.176-1.176Z" transform="translate(-1825.921 -3048.625)" fill="#7592c1"/>
        <path id="Trazado_985137" data-name="Trazado 985137" d="M1969.895,3183.3a1.237,1.237,0,0,1,1.235-1.237h11.461a1.237,1.237,0,0,1,1.237,1.237v.057a1.237,1.237,0,0,1-1.237,1.237H1971.13a1.237,1.237,0,0,1-1.235-1.237Z" transform="translate(-1914.928 -3048.625)" fill="#7592c1"/>
        <path id="Trazado_985138" data-name="Trazado 985138" d="M1196.417,3152.341a.887.887,0,1,1,1.33-1.174l4.32,4.9a.887.887,0,1,1-1.33,1.174Z" transform="translate(-1181.474 -3019.051)" fill="#7592c1"/>
        <path id="Trazado_985139" data-name="Trazado 985139" d="M1289.162,3096.022a.887.887,0,1,0-1.33-1.174l-6.9,7.828a.887.887,0,1,0,1.33,1.174Z" transform="translate(-1261.588 -2965.662)" fill="#7592c1"/>
        <path id="Trazado_985140" data-name="Trazado 985140" d="M1155.459,3017.52a2.953,2.953,0,0,0-2.955,2.954v11.708a2.953,2.953,0,0,0,2.955,2.954h11.708a2.955,2.955,0,0,0,2.957-2.954v-11.708a2.955,2.955,0,0,0-2.957-2.954Zm0,1.214h11.708a1.739,1.739,0,0,1,1.74,1.739v11.708a1.739,1.739,0,0,1-1.74,1.74h-11.708a1.739,1.739,0,0,1-1.74-1.74v-11.708a1.739,1.739,0,0,1,1.74-1.739" transform="translate(-1140.056 -2892.641)" fill="#7592c1"/>
        <path id="Trazado_985141" data-name="Trazado 985141" d="M1211.369,1006.694h5.04v-6.9h5.75v6.9h5.016V989.2h-5.016v6.679h-5.75V989.2h-5.04Z" transform="translate(-1195.859 -969.83)" fill="#556e95"/>
        <path id="Trazado_985142" data-name="Trazado 985142" d="M1553.783,1006.694h4.673l.93-3.254h5.8l.93,3.254h5.309L1565.87,989.2h-6.484Zm8.514-13.432,1.908,6.728h-3.841Z" transform="translate(-1520.461 -969.83)" fill="#556e95"/>
        <path id="Trazado_985143" data-name="Trazado 985143" d="M1905.793,1002.083c4.526,0,7.8-2.349,8.147-6.875h-4.991a3.011,3.011,0,0,1-3.254,2.863c-2.4,0-3.743-1.786-3.743-4.942v-.2c0-3.181,1.419-4.942,3.67-4.942a2.729,2.729,0,0,1,2.936,2.765h5.162c-.416-4.624-3.572-6.728-8.123-6.728a8.555,8.555,0,0,0-8.93,8.93v.2c0,5.358,3.01,8.93,9.126,8.93" transform="translate(-1845.509 -964.926)" fill="#556e95"/>
        <path id="Trazado_985144" data-name="Trazado 985144" d="M2262.787,1002.083c4.526,0,7.8-2.349,8.147-6.875h-4.991a3.011,3.011,0,0,1-3.254,2.863c-2.4,0-3.743-1.786-3.743-4.942v-.2c0-3.181,1.419-4.942,3.67-4.942a2.728,2.728,0,0,1,2.936,2.765h5.163c-.416-4.624-3.572-6.728-8.123-6.728a8.554,8.554,0,0,0-8.93,8.93v.2c0,5.358,3.009,8.93,9.126,8.93" transform="translate(-2183.933 -964.926)" fill="#556e95"/>
        <path id="Trazado_985145" data-name="Trazado 985145" d="M2628.058,1006.694h4.991v-5.9h1.884c4.33,0,6.8-1.982,6.8-5.652v-.1c0-3.719-2.226-5.848-7.022-5.848h-6.655Zm4.991-9.322v-4.4h1.468c1.566,0,2.447.612,2.447,2.1v.1c0,1.444-.857,2.2-2.471,2.2Z" transform="translate(-2538.855 -969.83)" fill="#556e95"/>
      </g>
    </g>
    <g id="Grupo_1113018" data-name="Grupo 1113018" transform="translate(0 0.005)">
      <g id="Grupo_1113017" data-name="Grupo 1113017" transform="translate(0 0)" clip-path="url(#clip-path)">
        <path id="Trazado_985147" data-name="Trazado 985147" d="M998.014,765.686h-89.55a.26.26,0,0,1-.26-.26V612.089a.26.26,0,0,1,.26-.26h118.39a.26.26,0,0,1,.26.26V731.418a.26.26,0,0,1-.062.168l-28.84,34.008a.26.26,0,0,1-.2.092m-89.29-.52h89.169l28.7-33.844V612.349H908.724Z" transform="translate(-860.961 -580.003)" fill="#336b98"/>
        <path id="Trazado_985148" data-name="Trazado 985148" d="M1402.555,487.714V508.8a1.686,1.686,0,0,1-1.686,1.686h-71.943a1.686,1.686,0,0,1-1.686-1.686v-21.09a1.686,1.686,0,0,1,1.686-1.686h71.943a1.686,1.686,0,0,1,1.686,1.686m-3.372,1.686h-68.571v17.717h68.571Z" transform="translate(-1258.2 -460.746)" fill="#182736" fill-rule="evenodd"/>
        <path id="Trazado_985149" data-name="Trazado 985149" d="M1396.129,506.01h-71.943a1.948,1.948,0,0,1-1.946-1.946v-21.09a1.948,1.948,0,0,1,1.946-1.946h71.943a1.949,1.949,0,0,1,1.946,1.946v21.09a1.949,1.949,0,0,1-1.946,1.946m-71.943-24.462a1.428,1.428,0,0,0-1.426,1.426v21.09a1.428,1.428,0,0,0,1.426,1.426h71.943a1.428,1.428,0,0,0,1.426-1.426v-21.09a1.428,1.428,0,0,0-1.426-1.426Zm70.257,21.09h-68.571a.26.26,0,0,1-.26-.26V484.661a.26.26,0,0,1,.26-.26h68.571a.26.26,0,0,1,.26.26v17.717a.26.26,0,0,1-.26.26m-68.31-.52h68.05v-17.2h-68.05Z" transform="translate(-1253.46 -456.006)" fill="#336b98"/>
        <rect id="Rectángulo_404651" data-name="Rectángulo 404651" width="60.71" height="8.98" transform="translate(76.343 23.106)" fill="#2d4763"/>
        <rect id="Rectángulo_404652" data-name="Rectángulo 404652" width="60.71" height="5.368" transform="translate(76.343 25.262)" fill="#355375"/>
        <rect id="Rectángulo_404653" data-name="Rectángulo 404653" width="60.71" height="3.412" transform="translate(76.343 25.262)" fill="#416690"/>
        <path id="Trazado_985150" data-name="Trazado 985150" d="M1523.6,448.7h-60.709a.26.26,0,0,1-.26-.26v-8.98a.26.26,0,0,1,.26-.26H1523.6a.26.26,0,0,1,.26.26v8.98a.26.26,0,0,1-.26.26m-60.449-.52h60.189v-8.46h-60.189Z" transform="translate(-1386.55 -416.352)" fill="#336b98"/>
        <path id="Trazado_985151" data-name="Trazado 985151" d="M2634.719,2944.825v-34.008h28.84Z" transform="translate(-2497.666 -2759.402)" fill="#7592c1" fill-rule="evenodd"/>
        <path id="Trazado_985152" data-name="Trazado 985152" d="M2629.979,2940.344a.27.27,0,0,1-.09-.016.26.26,0,0,1-.171-.245v-34.008a.26.26,0,0,1,.26-.26h28.84a.26.26,0,0,1,.2.428l-28.84,34.009a.26.26,0,0,1-.2.092m.26-34.008v33.039l28.019-33.039Z" transform="translate(-2492.926 -2754.661)" fill="#336b98"/>
        <path id="Trazado_985153" data-name="Trazado 985153" d="M496.667,3563.513l5.563-15.844H491.1Z" transform="translate(-465.558 -3363.126)" fill="#ff943c" fill-rule="evenodd"/>
      </g>
    </g>
    <g id="Grupo_1113020" data-name="Grupo 1113020" transform="translate(25.546 184.548)">
      <g id="Grupo_1113019" data-name="Grupo 1113019" clip-path="url(#clip-path-6)">
        <rect id="Rectángulo_404655" data-name="Rectángulo 404655" width="7.119" height="22.923" transform="translate(5.562 -3.745)" fill="#d17428"/>
      </g>
    </g>
    <g id="Grupo_1113022" data-name="Grupo 1113022" transform="translate(0 0.005)">
      <g id="Grupo_1113021" data-name="Grupo 1113021" transform="translate(0 0)" clip-path="url(#clip-path)">
        <path id="Trazado_985155" data-name="Trazado 985155" d="M491.927,3559.033a.26.26,0,0,1-.245-.174l-5.562-15.844a.26.26,0,0,1,.245-.346h11.125a.26.26,0,0,1,.245.346l-5.562,15.844a.26.26,0,0,1-.245.174m-5.2-15.844,5.2,14.8,5.2-14.8Z" transform="translate(-460.818 -3358.386)" fill="#336b98"/>
        <path id="Trazado_985156" data-name="Trazado 985156" d="M475.418,1537.819v94.055a7.119,7.119,0,0,1-14.238,0v-94.055a7.119,7.119,0,0,1,14.238,0" transform="translate(-437.19 -1451.076)" fill="#6284c3" fill-rule="evenodd"/>
      </g>
    </g>
    <g id="Grupo_1113024" data-name="Grupo 1113024" transform="translate(23.99 79.629)">
      <g id="Grupo_1113023" data-name="Grupo 1113023" clip-path="url(#clip-path-8)">
        <rect id="Rectángulo_404657" data-name="Rectángulo 404657" width="7.119" height="95.404" transform="translate(7.119 12.889)" fill="#5272ac"/>
      </g>
    </g>
    <g id="Grupo_1113026" data-name="Grupo 1113026" transform="translate(0 0.005)">
      <g id="Grupo_1113025" data-name="Grupo 1113025" transform="translate(0 0)" clip-path="url(#clip-path)">
        <path id="Trazado_985158" data-name="Trazado 985158" d="M463.559,1634.513a7.388,7.388,0,0,1-7.379-7.379v-94.055a7.379,7.379,0,0,1,14.758,0v94.055a7.388,7.388,0,0,1-7.379,7.379m0-108.293a6.867,6.867,0,0,0-6.859,6.859v94.055a6.859,6.859,0,1,0,13.718,0v-94.055a6.867,6.867,0,0,0-6.859-6.859" transform="translate(-432.45 -1446.336)" fill="#336b98"/>
        <path id="Trazado_985159" data-name="Trazado 985159" d="M439.6,2183.631v34.924a2.871,2.871,0,0,1-2.87,2.87H424.076a2.871,2.871,0,0,1-2.87-2.87v-34.924a2.871,2.871,0,0,1,2.87-2.87h12.658a2.871,2.871,0,0,1,2.87,2.87" transform="translate(-399.296 -2067.322)" fill="#ff943c" fill-rule="evenodd"/>
      </g>
    </g>
    <g id="Grupo_1113028" data-name="Grupo 1113028" transform="translate(21.91 113.444)">
      <g id="Grupo_1113027" data-name="Grupo 1113027" clip-path="url(#clip-path-10)">
        <rect id="Rectángulo_404659" data-name="Rectángulo 404659" width="9.885" height="45.786" transform="translate(9.199 -5.122)" fill="#d17428"/>
      </g>
    </g>
    <g id="Grupo_1113030" data-name="Grupo 1113030" transform="translate(0 0.005)">
      <g id="Grupo_1113029" data-name="Grupo 1113029" transform="translate(0 0)" clip-path="url(#clip-path)">
        <path id="Trazado_985160" data-name="Trazado 985160" d="M431.993,2216.944H419.336a3.133,3.133,0,0,1-3.13-3.13v-34.924a3.133,3.133,0,0,1,3.13-3.13h12.658a3.133,3.133,0,0,1,3.13,3.13v34.924a3.133,3.133,0,0,1-3.13,3.13m-12.658-40.663a2.612,2.612,0,0,0-2.61,2.609v34.924a2.612,2.612,0,0,0,2.61,2.609h12.658a2.612,2.612,0,0,0,2.61-2.609v-34.924a2.612,2.612,0,0,0-2.61-2.609Z" transform="translate(-394.556 -2062.583)" fill="#336b98"/>
        <path id="Trazado_985161" data-name="Trazado 985161" d="M461.18,1543.589v-5.77a7.119,7.119,0,0,1,14.238,0v5.77Z" transform="translate(-437.19 -1451.076)" fill="#ff943c" fill-rule="evenodd"/>
      </g>
    </g>
    <g id="Grupo_1113032" data-name="Grupo 1113032" transform="translate(23.99 79.629)">
      <g id="Grupo_1113031" data-name="Grupo 1113031" clip-path="url(#clip-path-12)">
        <rect id="Rectángulo_404662" data-name="Rectángulo 404662" width="7.087" height="12.889" transform="translate(7.119 0)" fill="#d17428"/>
      </g>
    </g>
    <g id="Grupo_1113034" data-name="Grupo 1113034" transform="translate(0 0.005)">
      <g id="Grupo_1113033" data-name="Grupo 1113033" transform="translate(0 0)" clip-path="url(#clip-path)">
        <path id="Trazado_985163" data-name="Trazado 985163" d="M470.678,1539.11H456.44a.26.26,0,0,1-.26-.26v-5.77a7.379,7.379,0,0,1,14.758,0v5.77a.26.26,0,0,1-.26.26m-13.978-.52h13.718v-5.51a6.859,6.859,0,1,0-13.718,0Z" transform="translate(-432.45 -1446.337)" fill="#336b98"/>
        <rect id="Rectángulo_404663" data-name="Rectángulo 404663" width="11.125" height="6.444" transform="translate(38.196 86.068)" fill="#d17428"/>
        <path id="Trazado_985164" data-name="Trazado 985164" d="M740.673,1656.553H729.548a.26.26,0,0,1-.26-.26v-6.444a.26.26,0,0,1,.26-.26h11.125a.26.26,0,0,1,.26.26v6.444a.26.26,0,0,1-.26.26m-10.865-.52h10.6v-5.924h-10.6Z" transform="translate(-691.352 -1563.78)" fill="#336b98"/>
        <path id="Trazado_985165" data-name="Trazado 985165" d="M846.785,1654.588v44.5h0a5.562,5.562,0,0,1-5.562-5.562v-38.934Z" transform="translate(-797.464 -1568.52)" fill="#ff943c" fill-rule="evenodd"/>
      </g>
    </g>
    <g id="Grupo_1113036" data-name="Grupo 1113036" transform="translate(43.759 86.073)">
      <g id="Grupo_1113035" data-name="Grupo 1113035" clip-path="url(#clip-path-14)">
        <rect id="Rectángulo_404665" data-name="Rectángulo 404665" width="8.344" height="45.141" transform="translate(2.781 0)" fill="#d17428"/>
      </g>
    </g>
    <g id="Grupo_1113038" data-name="Grupo 1113038" transform="translate(0 0.005)">
      <g id="Grupo_1113037" data-name="Grupo 1113037" transform="translate(0 0)" clip-path="url(#clip-path)">
        <path id="Trazado_985167" data-name="Trazado 985167" d="M842.046,1694.6a5.822,5.822,0,0,1-5.823-5.823v-38.934a.26.26,0,0,1,.26-.26h5.563a.26.26,0,0,1,.26.26v44.5a.26.26,0,0,1-.26.26m-5.3-44.5v38.674a5.3,5.3,0,0,0,5.042,5.3v-43.97Z" transform="translate(-792.724 -1563.78)" fill="#336b98"/>
        <path id="Trazado_985168" data-name="Trazado 985168" d="M2582.938,1622.4c15.847-.132,26.589,3.185,33.006,6.16a12.94,12.94,0,0,1,7.5,11.74v64.862a12.939,12.939,0,0,1-5.915,10.866l-34.589,22.361-34.589-22.361a12.939,12.939,0,0,1-5.915-10.866V1640.3a12.94,12.94,0,0,1,7.5-11.74c6.417-2.974,17.159-6.292,33.006-6.16" transform="translate(-2410.182 -1538.005)" fill="#70cb7f" fill-rule="evenodd"/>
      </g>
    </g>
    <g id="Grupo_1113040" data-name="Grupo 1113040" transform="translate(132.252 84.399)">
      <g id="Grupo_1113039" data-name="Grupo 1113039" clip-path="url(#clip-path-16)">
        <path id="Trazado_985169" data-name="Trazado 985169" d="M3321.089,1622.4c15.847-.132,26.589,3.185,33.006,6.16a12.94,12.94,0,0,1,7.5,11.74v64.862a12.939,12.939,0,0,1-5.915,10.866l-34.589,22.361Z" transform="translate(-3280.585 -1622.398)" fill="#5cb86b" fill-rule="evenodd"/>
      </g>
    </g>
    <g id="Grupo_1113042" data-name="Grupo 1113042" transform="translate(0 0.005)">
      <g id="Grupo_1113041" data-name="Grupo 1113041" transform="translate(0 0)" clip-path="url(#clip-path)">
        <path id="Trazado_985171" data-name="Trazado 985171" d="M2578.2,1733.912a.26.26,0,0,1-.141-.042l-34.589-22.361a13.2,13.2,0,0,1-6.033-11.085v-64.862a13.2,13.2,0,0,1,7.649-11.976c6.127-2.84,16.652-6.188,32.2-6.188.3,0,.6,0,.911,0,16.054-.133,26.87,3.289,33.115,6.184a13.2,13.2,0,0,1,7.649,11.976v64.862a13.2,13.2,0,0,1-6.034,11.085l-34.59,22.361a.261.261,0,0,1-.141.042m-.911-115.993c-15.461,0-25.906,3.322-31.986,6.139a12.678,12.678,0,0,0-7.347,11.5v64.862a12.677,12.677,0,0,0,5.8,10.648l34.448,22.27,34.448-22.27a12.679,12.679,0,0,0,5.8-10.648v-64.862a12.68,12.68,0,0,0-7.347-11.5c-6.2-2.873-16.936-6.267-32.895-6.136h0c-.3,0-.608,0-.908,0" transform="translate(-2405.442 -1533.265)" fill="#336b98"/>
        <path id="Trazado_985172" data-name="Trazado 985172" d="M2697.74,1795.8c13.383-.112,22.454,2.69,27.873,5.2a10.927,10.927,0,0,1,6.332,9.914v54.774a10.927,10.927,0,0,1-4.995,9.177l-29.21,18.883-29.21-18.883a10.927,10.927,0,0,1-4.995-9.177v-54.774a10.927,10.927,0,0,1,6.332-9.914c5.419-2.512,14.49-5.313,27.873-5.2" transform="translate(-2524.983 -1702.385)" fill="#3e7a48" fill-rule="evenodd"/>
        <path id="Trazado_985173" data-name="Trazado 985173" d="M2693,1889.273a.262.262,0,0,1-.142-.042l-29.21-18.883a11.188,11.188,0,0,1-5.114-9.4v-54.774a11.188,11.188,0,0,1,6.483-10.15c5.278-2.446,14.417-5.337,27.982-5.226,13.566-.112,22.7,2.779,27.982,5.226a11.188,11.188,0,0,1,6.483,10.15v54.774a11.188,11.188,0,0,1-5.114,9.4l-29.21,18.883a.261.261,0,0,1-.141.042m-.77-97.953c-13.048,0-21.864,2.8-26.994,5.181a10.667,10.667,0,0,0-6.181,9.678v54.774a10.667,10.667,0,0,0,4.876,8.958L2693,1888.7l29.068-18.792a10.666,10.666,0,0,0,4.876-8.958v-54.774a10.666,10.666,0,0,0-6.181-9.678c-5.129-2.378-13.948-5.181-26.994-5.181-.255,0-.509,0-.767,0h0q-.386,0-.767,0" transform="translate(-2520.242 -1697.646)" fill="#336b98"/>
        <path id="Trazado_985174" data-name="Trazado 985174" d="M2755.14,1882.5c12.15-.1,20.386,2.442,25.306,4.723a9.921,9.921,0,0,1,5.749,9v49.73a9.921,9.921,0,0,1-4.535,8.332l-26.52,17.144-26.52-17.144a9.921,9.921,0,0,1-4.535-8.332v-49.73a9.921,9.921,0,0,1,5.749-9c4.92-2.281,13.156-4.824,25.306-4.723" transform="translate(-2582.383 -1784.575)" fill="#429850" fill-rule="evenodd"/>
        <path id="Trazado_985175" data-name="Trazado 985175" d="M2750.4,1966.952a.26.26,0,0,1-.141-.042l-26.52-17.144a10.183,10.183,0,0,1-4.654-8.55v-49.731a10.182,10.182,0,0,1,5.9-9.237c4.7-2.18,12.781-4.75,24.717-4.75.232,0,.464,0,.7,0,12.32-.1,20.621,2.525,25.415,4.747a10.179,10.179,0,0,1,5.9,9.237v49.731a10.179,10.179,0,0,1-4.654,8.55l-26.52,17.144a.26.26,0,0,1-.141.042m-.7-88.933c-11.842,0-19.842,2.544-24.5,4.7a9.661,9.661,0,0,0-5.6,8.765v49.731a9.625,9.625,0,0,0,4.416,8.113l26.379,17.053,26.379-17.053a9.624,9.624,0,0,0,4.416-8.113v-49.731a9.66,9.66,0,0,0-5.6-8.765c-4.746-2.2-12.97-4.8-25.194-4.7h0l-.7,0" transform="translate(-2577.644 -1779.836)" fill="#336b98"/>
        <path id="Trazado_985176" data-name="Trazado 985176" d="M2846.516,2395.36h0l-19.77-19.791,8.08-8.071,11.7,11.711,23.579-23.558,8.072,8.079-31.657,31.629Z" transform="translate(-2679.704 -2233.116)" fill="#fff" fill-rule="evenodd"/>
        <path id="Trazado_985177" data-name="Trazado 985177" d="M2841.776,2390.882a.259.259,0,0,1-.184-.077l-19.77-19.79a.26.26,0,0,1,0-.368l8.08-8.072a.259.259,0,0,1,.184-.076h0a.259.259,0,0,1,.184.076l11.516,11.527,23.4-23.374a.259.259,0,0,1,.184-.076h0a.26.26,0,0,1,.184.076l8.072,8.079a.26.26,0,0,1,0,.368l-31.658,31.629a.258.258,0,0,1-.184.076h0m-19.4-20.051,19.4,19.423,31.291-31.262-7.7-7.711-23.4,23.374a.26.26,0,0,1-.184.076h0a.26.26,0,0,1-.184-.076l-11.516-11.527Z" transform="translate(-2674.964 -2228.377)" fill="#336b98"/>
        <rect id="Rectángulo_404667" data-name="Rectángulo 404667" width="7.886" height="36.434" transform="translate(40.032 145.735)" fill="#fff"/>
      </g>
    </g>
    <g id="Grupo_1113044" data-name="Grupo 1113044" transform="translate(40.032 145.74)">
      <g id="Grupo_1113043" data-name="Grupo 1113043" clip-path="url(#clip-path-18)">
        <path id="Trazado_985178" data-name="Trazado 985178" d="M777.463,2788.114v8.1a13.625,13.625,0,0,1-7.886,0v-8.1Z" transform="translate(-769.577 -2788.817)" fill="#89a3b2" fill-rule="evenodd"/>
      </g>
    </g>
    <g id="Grupo_1113046" data-name="Grupo 1113046" transform="translate(0 0.005)">
      <g id="Grupo_1113045" data-name="Grupo 1113045" transform="translate(0 0)" clip-path="url(#clip-path)">
        <path id="Trazado_985179" data-name="Trazado 985179" d="M772.723,2833.583h-7.886a.26.26,0,0,1-.26-.26v-36.435a.26.26,0,0,1,.26-.26h7.886a.26.26,0,0,1,.26.26v36.435a.26.26,0,0,1-.26.26m-7.626-.52h7.366v-35.915H765.1Z" transform="translate(-724.805 -2651.153)" fill="#336b98"/>
        <path id="Trazado_985180" data-name="Trazado 985180" d="M443.27,2072.463a22.064,22.064,0,1,1-22.064,22.064,22.075,22.075,0,0,1,22.064-22.064" transform="translate(-399.296 -1964.658)" fill="#6193d1" fill-rule="evenodd"/>
        <path id="Trazado_985181" data-name="Trazado 985181" d="M438.531,2112.112a22.254,22.254,0,1,1,8.686-1.756,22.166,22.166,0,0,1-8.686,1.756m0-44.129a21.736,21.736,0,1,0,8.484,1.715,21.64,21.64,0,0,0-8.484-1.715" transform="translate(-394.556 -1959.918)" fill="#336b98"/>
        <path id="Trazado_985182" data-name="Trazado 985182" d="M510.923,2143.828a18.352,18.352,0,1,1-18.352,18.352,18.361,18.361,0,0,1,18.352-18.352" transform="translate(-466.948 -2032.31)" fill="#fff" fill-rule="evenodd"/>
      </g>
    </g>
    <g id="Grupo_1113048" data-name="Grupo 1113048" transform="translate(25.623 111.523)">
      <g id="Grupo_1113047" data-name="Grupo 1113047" clip-path="url(#clip-path-20)">
        <path id="Trazado_985183" data-name="Trazado 985183" d="M596,190.168H492.571V5.005H629.313V149.1Z" transform="translate(-492.571 -116.262)" fill="#fff" fill-rule="evenodd"/>
      </g>
    </g>
    <g id="Grupo_1113050" data-name="Grupo 1113050" transform="translate(25.623 111.523)">
      <g id="Grupo_1113049" data-name="Grupo 1113049" clip-path="url(#clip-path-20)">
        <path id="Trazado_985185" data-name="Trazado 985185" d="M819.687,2400.139a1.1,1.1,0,0,1,.091-1.512.993.993,0,0,1,1.446.095l4.989,5.915a1.108,1.108,0,0,1-.09,1.512.993.993,0,0,1-1.446-.095Z" transform="translate(-802.427 -2385.119)" fill="#7592c1"/>
        <path id="Trazado_985186" data-name="Trazado 985186" d="M926.808,2332.131a1.107,1.107,0,0,0-.09-1.512.993.993,0,0,0-1.446.095l-7.974,9.452a1.1,1.1,0,0,0,.09,1.512.994.994,0,0,0,1.446-.095Z" transform="translate(-894.96 -2320.648)" fill="#7592c1"/>
        <path id="Trazado_985187" data-name="Trazado 985187" d="M772.379,2237.331a3.492,3.492,0,0,0-3.413,3.567v14.138a3.492,3.492,0,0,0,3.413,3.567H785.9a3.494,3.494,0,0,0,3.415-3.567V2240.9a3.494,3.494,0,0,0-3.415-3.567Zm0,1.467H785.9a2.056,2.056,0,0,1,2.01,2.1v14.138a2.056,2.056,0,0,1-2.01,2.1H772.379a2.056,2.056,0,0,1-2.01-2.1V2240.9a2.056,2.056,0,0,1,2.01-2.1" transform="translate(-754.589 -2232.467)" fill="#7592c1"/>
      </g>
    </g>
    <g id="Grupo_1113052" data-name="Grupo 1113052" transform="translate(25.623 111.523)">
      <g id="Grupo_1113051" data-name="Grupo 1113051" clip-path="url(#clip-path-20)">
        <path id="Trazado_985189" data-name="Trazado 985189" d="M591.262,185.688H487.831a.26.26,0,0,1-.26-.26V.265a.26.26,0,0,1,.26-.26H624.573a.26.26,0,0,1,.26.26v144.1a.261.261,0,0,1-.058.164l-33.311,41.067a.26.26,0,0,1-.2.1m-103.171-.52H591.138l33.175-40.9V.525H488.091Z" transform="translate(-487.831 -111.522)" fill="#336b98"/>
      </g>
    </g>
    <g id="Grupo_1113054" data-name="Grupo 1113054" transform="translate(0 0.005)">
      <g id="Grupo_1113053" data-name="Grupo 1113053" transform="translate(0 0)" clip-path="url(#clip-path)">
        <path id="Trazado_985191" data-name="Trazado 985191" d="M506.183,2176.052A18.612,18.612,0,1,1,524.8,2157.44a18.633,18.633,0,0,1-18.612,18.612m0-36.7a18.092,18.092,0,1,0,18.092,18.092,18.113,18.113,0,0,0-18.092-18.092" transform="translate(-462.209 -2027.571)" fill="#336b98"/>
        <path id="Trazado_985192" data-name="Trazado 985192" d="M713.454,3151.838v28.775a7.659,7.659,0,0,1-15.318,0v-28.775Z" transform="translate(-661.82 -2987.886)" fill="#6193d1" fill-rule="evenodd"/>
      </g>
    </g>
    <g id="Grupo_1113056" data-name="Grupo 1113056" transform="translate(36.316 163.957)">
      <g id="Grupo_1113055" data-name="Grupo 1113055" clip-path="url(#clip-path-24)">
        <path id="Trazado_985193" data-name="Trazado 985193" d="M832.308,3151.838h2.05v28.775a7.666,7.666,0,0,1-8.684,7.591,7.661,7.661,0,0,0,6.634-7.591Z" transform="translate(-819.04 -3151.838)" fill="#416b9e" fill-rule="evenodd"/>
        <path id="Trazado_985194" data-name="Trazado 985194" d="M826.585,3188.165a7.755,7.755,0,0,1-1.026-.068.006.006,0,0,1,0-.012,7.654,7.654,0,0,0,6.629-7.585v-28.776a.006.006,0,0,1,.006-.006h2.05a.006.006,0,0,1,.006.006V3180.5a7.659,7.659,0,0,1-7.665,7.665m-.978-.074a7.72,7.72,0,0,0,.978.062,7.646,7.646,0,0,0,7.653-7.653V3151.73H832.2V3180.5a7.667,7.667,0,0,1-6.594,7.591" transform="translate(-818.926 -3151.724)" fill="#3e5ba3"/>
      </g>
    </g>
    <g id="Grupo_1113058" data-name="Grupo 1113058" transform="translate(0 0.005)">
      <g id="Grupo_1113057" data-name="Grupo 1113057" transform="translate(0 0)" clip-path="url(#clip-path)">
        <path id="Trazado_985196" data-name="Trazado 985196" d="M701.055,3183.792a7.928,7.928,0,0,1-7.919-7.919V3147.1a.26.26,0,0,1,.26-.26h15.318a.26.26,0,0,1,.26.26v28.776a7.928,7.928,0,0,1-7.919,7.919m-7.4-36.435v28.516a7.4,7.4,0,0,0,14.8,0v-28.516Z" transform="translate(-657.08 -2983.146)" fill="#336b98"/>
        <path id="Trazado_985197" data-name="Trazado 985197" d="M177.217,2749.2a2.611,2.611,0,1,1,.321,3.679,2.612,2.612,0,0,1-.321-3.679" transform="translate(-167.42 -2605.311)" fill="#34699b" fill-rule="evenodd"/>
        <path id="Trazado_985198" data-name="Trazado 985198" d="M177.217,2749.2a2.611,2.611,0,1,1,.321,3.679A2.612,2.612,0,0,1,177.217,2749.2Z" transform="translate(-167.42 -2605.311)" fill="none" stroke="#325b83" stroke-linecap="round" stroke-linejoin="round" stroke-width="0.24"/>
        <path id="Trazado_985199" data-name="Trazado 985199" d="M302.281,2956.065a.565.565,0,0,1,.941-.611l.819.99a.565.565,0,0,0,.687.146l1.151-.572a.565.565,0,0,1,.611.941l-.99.819a.565.565,0,0,0-.146.687l.572,1.15a.565.565,0,0,1-.941.612l-.819-.99a.564.564,0,0,0-.687-.146l-1.151.572a.565.565,0,0,1-.611-.941l.99-.819a.565.565,0,0,0,.146-.687l-.572-1.151" transform="translate(-285.828 -2801.522)" fill="#34699b" fill-rule="evenodd"/>
        <path id="Trazado_985200" data-name="Trazado 985200" d="M305.306,2960.323a.57.57,0,0,1-.44-.207l-.819-.99a.556.556,0,0,0-.679-.144l-.677.337-.473.235a.571.571,0,0,1-.618-.952l.99-.819a.556.556,0,0,0,.144-.679l-.572-1.151a.571.571,0,0,1,.952-.618l.819.991a.557.557,0,0,0,.679.144l1.151-.572a.571.571,0,0,1,.618.951l-.99.819a.556.556,0,0,0-.144.679l.572,1.151a.571.571,0,0,1-.511.825m-1.689-1.413a.569.569,0,0,1,.439.208l.819.99a.559.559,0,0,0,.931-.6l-.572-1.151a.569.569,0,0,1,.147-.695l.99-.819a.558.558,0,0,0-.6-.93l-1.151.572a.568.568,0,0,1-.694-.147l-.819-.99a.559.559,0,0,0-.931.6l.572,1.15a.569.569,0,0,1-.147.695l-.99.819a.559.559,0,0,0,.6.931l.473-.235.677-.337a.571.571,0,0,1,.255-.06" transform="translate(-285.714 -2801.408)" fill="#325b83"/>
        <path id="Trazado_985201" data-name="Trazado 985201" d="M3503.181,860.2a3.763,3.763,0,1,0,5.065,1.634,3.765,3.765,0,0,0-5.065-1.634" transform="translate(-3319.011 -815.059)" fill="#34699b" fill-rule="evenodd"/>
        <path id="Trazado_985202" data-name="Trazado 985202" d="M3504.767,867.217a3.782,3.782,0,0,1-1.163-.184,3.769,3.769,0,0,1-.561-6.941l0,.005,0-.005a3.769,3.769,0,1,1,1.724,7.125m-.012-7.527a3.756,3.756,0,1,0,3.35,2.044,3.736,3.736,0,0,0-3.35-2.044" transform="translate(-3318.876 -814.959)" fill="#325b83"/>
        <path id="Trazado_985203" data-name="Trazado 985203" d="M3761.338,1110.005a.814.814,0,0,0-1.162,1.125l1.128,1.469a.814.814,0,0,1-.016,1.012l-1.174,1.432a.814.814,0,0,0,1.125,1.162l1.469-1.128a.814.814,0,0,1,1.012.016l1.432,1.174a.814.814,0,0,0,1.162-1.125l-1.128-1.469a.814.814,0,0,1,.016-1.012l1.174-1.432a.814.814,0,0,0-1.125-1.162l-1.469,1.128a.814.814,0,0,1-1.012-.016l-1.432-1.174" transform="translate(-3564.345 -1052.09)" fill="#34699b" fill-rule="evenodd"/>
        <path id="Trazado_985204" data-name="Trazado 985204" d="M3765.553,1116.344a.817.817,0,0,1-.52-.186l-.111-.091-1.322-1.083a.8.8,0,0,0-1-.016l-1.469,1.128a.82.82,0,0,1-1.135-1.171l1.174-1.432a.8.8,0,0,0,.016-1l-1.128-1.469a.821.821,0,0,1,1.171-1.134l1.432,1.174a.8.8,0,0,0,1,.016l1.469-1.128a.82.82,0,0,1,1.134,1.171l-1.174,1.432a.8.8,0,0,0-.016,1l1.128,1.469a.82.82,0,0,1-.651,1.32m-2.464-1.557a.818.818,0,0,1,.52.187l1.321,1.083.111.091a.808.808,0,0,0,1.153-1.117l-1.128-1.469a.817.817,0,0,1,.016-1.02l1.174-1.432a.808.808,0,0,0-1.117-1.153l-1.469,1.128a.817.817,0,0,1-1.02-.016l-1.432-1.174a.808.808,0,0,0-1.153,1.117l1.128,1.469a.817.817,0,0,1-.016,1.02l-1.174,1.432a.808.808,0,0,0,1.117,1.153l1.469-1.128a.82.82,0,0,1,.5-.171" transform="translate(-3564.23 -1051.975)" fill="#325b83"/>
        <path id="Trazado_985205" data-name="Trazado 985205" d="M4054.865,3412.284a2.958,2.958,0,1,0-.817,4.1,2.959,2.959,0,0,0,.817-4.1" transform="translate(-3838.803 -3233.538)" fill="#34699b" fill-rule="evenodd"/>
        <path id="Trazado_985206" data-name="Trazado 985206" d="M4052.311,3416.792a2.988,2.988,0,0,1-.586-.058,2.946,2.946,0,1,1,.586.058m-.012-5.915a2.951,2.951,0,1,0,2.459,1.312,2.938,2.938,0,0,0-2.459-1.312" transform="translate(-3838.702 -3233.438)" fill="#325b83"/>
        <path id="Trazado_985207" data-name="Trazado 985207" d="M3892.452,3632.978a.64.64,0,0,0-.984-.806l-1.045,1.014a.639.639,0,0,1-.792.079l-1.225-.787a.64.64,0,0,0-.805.984l1.013,1.044a.641.641,0,0,1,.079.792l-.787,1.225a.64.64,0,0,0,.983.805l1.045-1.014a.639.639,0,0,1,.792-.079l1.224.787a.64.64,0,0,0,.805-.984l-1.014-1.045a.64.64,0,0,1-.079-.792l.787-1.225" transform="translate(-3685.205 -3443.063)" fill="#34699b" fill-rule="evenodd"/>
        <path id="Trazado_985208" data-name="Trazado 985208" d="M3888.33,3637.4a.646.646,0,0,1-.543-1l.787-1.225a.632.632,0,0,0-.079-.784l-1.014-1.045a.646.646,0,0,1,.813-.994l1.225.787a.63.63,0,0,0,.784-.078l1.045-1.013a.646.646,0,0,1,.993.813l-.787,1.224a.632.632,0,0,0,.078.784l1.013,1.044a.646.646,0,0,1-.812.994l-.457-.293-.768-.494a.631.631,0,0,0-.784.078l-1.044,1.014a.646.646,0,0,1-.45.182m-.384-5.132a.634.634,0,0,0-.455,1.075l1.014,1.044a.644.644,0,0,1,.08.8l-.787,1.224a.634.634,0,0,0,.974.8l1.045-1.014a.643.643,0,0,1,.8-.08l.769.494.456.294a.634.634,0,0,0,.8-.975l-1.014-1.045a.643.643,0,0,1-.08-.8l.787-1.225,0,0,0,0a.634.634,0,0,0-.975-.8l-1.045,1.014a.643.643,0,0,1-.8.08l-1.224-.787a.636.636,0,0,0-.343-.1" transform="translate(-3685.09 -3442.949)" fill="#325b83"/>
        <path id="Trazado_985209" data-name="Trazado 985209" d="M290.875,1090.694a3.485,3.485,0,1,1,4.639-1.662,3.486,3.486,0,0,1-4.639,1.662" transform="translate(-273.852 -1027.668)" fill="#34699b" fill-rule="evenodd"/>
        <path id="Trazado_985210" data-name="Trazado 985210" d="M292.227,1090.9a3.5,3.5,0,1,1,1.181-.207,3.473,3.473,0,0,1-1.181.207m.007-6.972a3.482,3.482,0,1,0,1.482.335,3.483,3.483,0,0,0-1.482-.335" transform="translate(-273.719 -1027.536)" fill="#325b83"/>
        <path id="Trazado_985211" data-name="Trazado 985211" d="M521.374,865.879a.754.754,0,0,1-1.109-1.007l1-1.393a.754.754,0,0,0-.045-.936l-1.129-1.291a.754.754,0,0,1,1.007-1.109l1.393,1a.754.754,0,0,0,.936-.045l1.291-1.129a.754.754,0,0,1,1.109,1.007l-1,1.393a.754.754,0,0,0,.045.936L526,864.6a.754.754,0,0,1-1.007,1.109l-1.393-1a.754.754,0,0,0-.936.045l-1.291,1.129" transform="translate(-492.861 -815.059)" fill="#34699b" fill-rule="evenodd"/>
        <path id="Trazado_985212" data-name="Trazado 985212" d="M520.763,865.958a.76.76,0,0,1-.618-1.2l1-1.393a.745.745,0,0,0-.044-.928l-1.129-1.291a.76.76,0,0,1,1.016-1.118l1.393,1a.744.744,0,0,0,.928-.045l1.291-1.129a.76.76,0,0,1,1.118,1.016l-1,1.393a.745.745,0,0,0,.045.928l1.129,1.291a.76.76,0,0,1-1.016,1.118l-1.393-1a.745.745,0,0,0-.928.045l-1.291,1.129a.758.758,0,0,1-.5.188m-.218-6.064a.748.748,0,0,0-.563,1.24l1.129,1.291a.757.757,0,0,1,.045.944l-1,1.393a.748.748,0,0,0,1.1,1l1.291-1.129a.757.757,0,0,1,.944-.045l1.393,1a.748.748,0,0,0,1-1.1l-1.129-1.291a.757.757,0,0,1-.045-.944l1-1.393a.748.748,0,0,0-1.1-1l-1.291,1.129a.757.757,0,0,1-.944.045l-1.393-1a.745.745,0,0,0-.436-.14" transform="translate(-492.746 -814.945)" fill="#325b83"/>
        <path id="Trazado_985213" data-name="Trazado 985213" d="M233.87,3829.86H218.658a1.3,1.3,0,1,1,0-2.6H233.87a1.3,1.3,0,1,1,0,2.6m-22.818,0H22.957a1.3,1.3,0,1,1,0-2.6H211.052a1.3,1.3,0,1,1,0,2.6m-194.54,0H1.3a1.3,1.3,0,1,1,0-2.6H16.513a1.3,1.3,0,1,1,0,2.6" transform="translate(0 -3628.173)" fill="#336b98"/>
      </g>
    </g>
  </g>
</svg>
