<svg id="Grupo_1113086" data-name="Grupo 1113086" xmlns="http://www.w3.org/2000/svg" xmlns:xlink="http://www.w3.org/1999/xlink" width="266.125" height="177.059" viewBox="0 0 266.125 177.059">
  <defs>
    <clipPath id="clip-path">
      <rect id="Rectángulo_404693" data-name="Rectángulo 404693" width="266.125" height="177.059" fill="none"/>
    </clipPath>
    <clipPath id="clip-path-2">
      <path id="Trazado_985218" data-name="Trazado 985218" d="M181.992,125.112c-6.906,2.756-14.037,7.362-18.315,12.876-4.7,6.059-7.3,12.554-14.211,17.242-18.247,12.369-54.329,4.652-57.678,31.164-1.9,15.013,9.313,29.074,6.032,44.083-1.808,8.271-8.009,15.365-11.41,23.151-2.985,6.834-4.412,25.594,9,25.594l221.892-.258c11.187-.263,21.715-7.35,24.77-16.674,4.161-12.7-4.6-25.421-10.872-36.384-4.917-8.6-9.54-18.4-7.277-28.171,1.739-7.5,5.367-13.656,5.141-21.591-.364-12.755-4.457-24.957-17.375-32.41-9.517-5.49-21.245-6.84-32.44-6.095-10.98.731-21.877,4.608-32.27-.666-14.82-7.52-29.968-15.486-46.38-15.488a49.6,49.6,0,0,0-18.61,3.627" transform="translate(-84.409 -121.485)" fill="#f9f2c8"/>
    </clipPath>
    <clipPath id="clip-path-4">
      <path id="Trazado_985256" data-name="Trazado 985256" d="M955.785,1272.857c-5.837,2.5-17.094,32.52-17.094,32.52h-1.124a1.235,1.235,0,0,0-1.2.933c-.535,2.12-1.845,6.989-1.428,8.24.417-.417,1.251-1.251,4.586-1.668s25.849,7.5,25.849,7.5l-2.354,20.885,55.3-.455s2.236-28.026,2.786-29.231,7.781-8.354,16.393-12.044c2.918-1.251,2.5-1.251,2.085-2.5-.327-.982-.912-5.048-1.148-6.75a.718.718,0,0,0-.853-.6l-1.335.267s-4.586-16.26-8.339-17.928-17.927-5-17.927-5l-25.432-2.5s-25.234,6.824-28.768,8.338" transform="translate(-934.858 -1264.519)" fill="none"/>
    </clipPath>
    <clipPath id="clip-path-6">
      <rect id="Rectángulo_404679" data-name="Rectángulo 404679" width="7.607" height="5.475" fill="none"/>
    </clipPath>
    <clipPath id="clip-path-7">
      <rect id="Rectángulo_404680" data-name="Rectángulo 404680" width="3.441" height="4.683" fill="none"/>
    </clipPath>
    <clipPath id="clip-path-8">
      <rect id="Rectángulo_404681" data-name="Rectángulo 404681" width="34.789" height="22.677" fill="none"/>
    </clipPath>
    <clipPath id="clip-path-9">
      <rect id="Rectángulo_404682" data-name="Rectángulo 404682" width="28.098" height="7.481" fill="none"/>
    </clipPath>
    <clipPath id="clip-path-10">
      <rect id="Rectángulo_404689" data-name="Rectángulo 404689" width="4.779" height="32.104" fill="none"/>
    </clipPath>
  </defs>
  <g id="Grupo_1113085" data-name="Grupo 1113085" clip-path="url(#clip-path)">
    <g id="Grupo_1113063" data-name="Grupo 1113063" transform="translate(5.291 7.616)">
      <g id="Grupo_1113062" data-name="Grupo 1113062" clip-path="url(#clip-path-2)">
        <path id="Trazado_985217" data-name="Trazado 985217" d="M317.306,278.964c11.187-.262,21.715-7.35,24.77-16.674,4.161-12.7-4.6-25.421-10.872-36.384-4.917-8.6-9.54-18.4-7.277-28.171,1.739-7.5,5.367-13.656,5.141-21.591-.364-12.755-4.457-24.957-17.375-32.41-9.517-5.491-21.245-6.84-32.44-6.095-10.98.731-21.877,4.608-32.27-.666-20.255-10.277-41.114-21.389-64.99-11.861-6.906,2.756-14.037,7.362-18.315,12.876-4.7,6.059-7.3,12.554-14.211,17.242-18.247,12.369-54.329,4.652-57.678,31.164-1.9,15.013,9.313,29.074,6.032,44.083-1.808,8.271-8.009,15.365-11.41,23.151-2.985,6.834-4.412,25.594,9,25.594Z" transform="translate(-84.41 -121.485)" fill="#f0e077"/>
      </g>
    </g>
    <g id="Grupo_1113065" data-name="Grupo 1113065" transform="translate(0 0)">
      <g id="Grupo_1113064" data-name="Grupo 1113064" clip-path="url(#clip-path)">
        <path id="Trazado_985219" data-name="Trazado 985219" d="M576.339,1688.359h0a.179.179,0,0,0,.176-.181,34.513,34.513,0,0,1,7.444-21.665.179.179,0,0,0-.279-.224,34.877,34.877,0,0,0-7.522,21.893.179.179,0,0,0,.179.177" transform="translate(-540.04 -1561.771)" fill="#528238"/>
        <path id="Trazado_985220" data-name="Trazado 985220" d="M553.862,1635.687a.178.178,0,0,0,.177-.16,194.735,194.735,0,0,1,4.295-24.707.179.179,0,0,0-.348-.084,195.1,195.1,0,0,0-4.3,24.752.179.179,0,0,0,.158.2h.02" transform="translate(-518.974 -1509.635)" fill="#528238"/>
        <path id="Trazado_985221" data-name="Trazado 985221" d="M356.66,1765.108a.181.181,0,0,0,.046-.006.178.178,0,0,0,.126-.219,39.4,39.4,0,0,0-6.516-13.359.179.179,0,1,0-.286.215,39.044,39.044,0,0,1,6.457,13.237.179.179,0,0,0,.172.133" transform="translate(-328.054 -1641.658)" fill="#528238"/>
        <path id="Trazado_985222" data-name="Trazado 985222" d="M241.7,1999.059a.176.176,0,0,0,.08-.019.179.179,0,0,0,.08-.24,9.057,9.057,0,0,0-8.385-4.853.179.179,0,0,0-.168.188.171.171,0,0,0,.189.168,8.685,8.685,0,0,1,8.045,4.656.179.179,0,0,0,.16.1" transform="translate(-218.686 -1868.939)" fill="#528238"/>
        <path id="Trazado_985223" data-name="Trazado 985223" d="M688.638,1988.235a.178.178,0,0,0,.134-.06l1.784-2.021a17.78,17.78,0,0,1,2.462-2.448,5.807,5.807,0,0,1,3.107-1.275.179.179,0,0,0,.168-.189.173.173,0,0,0-.189-.168,6.161,6.161,0,0,0-3.3,1.348,18.06,18.06,0,0,0-2.514,2.5l-1.784,2.021a.179.179,0,0,0,.134.3" transform="translate(-645.301 -1857.821)" fill="#528238"/>
        <path id="Trazado_985224" data-name="Trazado 985224" d="M595.2,1572.376a1.966,1.966,0,1,0,1.966-1.966,1.966,1.966,0,0,0-1.966,1.966" transform="translate(-557.89 -1471.965)" fill="#bc5d57"/>
        <path id="Trazado_985225" data-name="Trazado 985225" d="M315.792,1709.23a1.966,1.966,0,1,0,1.966-1.966,1.966,1.966,0,0,0-1.966,1.966" transform="translate(-295.996 -1600.24)" fill="#bc5d57"/>
        <path id="Trazado_985226" data-name="Trazado 985226" d="M680.736,1645.79a1.251,1.251,0,1,0,1.251-1.251,1.251,1.251,0,0,0-1.251,1.251" transform="translate(-638.062 -1541.447)" fill="#bc5d57"/>
        <path id="Trazado_985227" data-name="Trazado 985227" d="M218.854,1976.52a1.251,1.251,0,1,0,1.251-1.251,1.251,1.251,0,0,0-1.251,1.251" transform="translate(-205.135 -1851.444)" fill="#bc5d57"/>
        <path id="Trazado_985228" data-name="Trazado 985228" d="M789.079,1965.116a1.251,1.251,0,1,0,1.251-1.251,1.251,1.251,0,0,0-1.251,1.251" transform="translate(-739.613 -1840.755)" fill="#bc5d57"/>
        <path id="Trazado_985229" data-name="Trazado 985229" d="M221.053,1739.216a1.659,1.659,0,0,1-1.2-.8c-.635-1.208.889-2.494.919-3.859.05-2.3-1.81-2.52-3.4-2.963a2.69,2.69,0,0,1-1.734-1.309c-1.065-2.179.251-3.818-2.822-4.549-1.261-.3-3.347.425-3.567,1.874-.274,1.808,2.12,3.224,1.824,5.028-.269,1.635-2.659,2.692-2.159,4.272.314.993,1.568,1.269,2.607,1.348,1.019.078,2.65.317,2.967,1.515s-1.068,2.551-1.223,3.717a1.931,1.931,0,0,0,.5,1.668,2.482,2.482,0,0,0,1.652.512,5.493,5.493,0,0,1,1.751.18,1.336,1.336,0,0,1,.956,1.324c-.094.626-.8,1.1-.7,1.726.1.676.994.836,1.677.832,1.87-.009,4.724.329,6.41-.671a1.556,1.556,0,0,0,.661-2.088c-.313-.443-.9-.606-1.272-1-1.445-1.528.921-4.5-1.2-6.079a7.006,7.006,0,0,0-2.635-.684" transform="translate(-195.749 -1617.494)" fill="#799380"/>
        <path id="Trazado_985230" data-name="Trazado 985230" d="M552.138,1704.749a1.788,1.788,0,0,0,1.3-.859c.684-1.3-.958-2.687-.99-4.158-.054-2.475,1.95-2.715,3.665-3.193a2.9,2.9,0,0,0,1.869-1.41c1.148-2.348-.27-4.114,3.04-4.9,1.359-.323,3.607.458,3.844,2.02.3,1.948-2.285,3.474-1.965,5.418.29,1.762,2.865,2.9,2.326,4.6-.339,1.07-1.69,1.367-2.809,1.453-1.1.084-2.856.341-3.2,1.632-.337,1.276,1.151,2.749,1.318,4.005a2.081,2.081,0,0,1-.538,1.8,2.676,2.676,0,0,1-1.78.552,5.917,5.917,0,0,0-1.887.194,1.44,1.44,0,0,0-1.03,1.427c.1.675.863,1.185.759,1.86-.113.728-1.071.9-1.807.9-2.015-.01-5.09.354-6.907-.723a1.676,1.676,0,0,1-.712-2.25c.337-.477.969-.653,1.37-1.077,1.557-1.646-.993-4.849,1.3-6.55.766-.569,1.913-.522,2.839-.737" transform="translate(-512.164 -1584.204)" fill="#799380"/>
        <path id="Trazado_985231" data-name="Trazado 985231" d="M396.957,1595.611c-.783-1.187-2.643-1.629-2.865-3.034-.192-1.217,1.023-2.156,2.116-2.723s2.439-1.631,2.556-2.857c.138-1.448-1.481-2.041-2.781-2.692s-2.779-1.837-2.354-3.228c.35-1.149,2.224-1.162,3.348-1.587a2.266,2.266,0,0,0,1.243-3c-.778-1.356-3.19-.205-4.311-1.295-.841-.817-.348-2.208-.387-3.38-.133-4.072-7.333-4.371-6.243.068a8.385,8.385,0,0,0,.537,1.338,3.013,3.013,0,0,1,.322,1.393c-.1,1.506-1.616,1.271-2.673,1.164-.922-.094-2.25.171-2.676,1.051a2.47,2.47,0,0,0,.581,2.826,6.038,6.038,0,0,0,2.459.781c.845.2,1.766.731,1.834,1.6.142,1.795-3.117,1.986-3.522,3.74-.285,1.233,1.028,2.193,2.158,2.763s2.458,1.487,2.225,2.73c-.322,1.717-3.228,1.817-3.643,3.514-.191.781-.484,1.546-.057,2.227.765,1.219,2.81,1.641,3.575,2.86.586.935-.694,3.075,0,3.932.787.972,3.128,1.492,4.371,1.634a2.386,2.386,0,0,0,2.428-1.366c.4-1.036-.517-1.832-.412-2.781.221-2.006,3.937-3,2.173-5.673" transform="translate(-358.593 -1470.322)" fill="#8aa191"/>
        <path id="Trazado_985232" data-name="Trazado 985232" d="M609.163,1751.087a.178.178,0,0,0,.154-.088,193.828,193.828,0,0,0,11.079-21.913.179.179,0,0,0-.329-.141,193.433,193.433,0,0,1-11.058,21.872.179.179,0,0,0,.154.269" transform="translate(-570.808 -1620.46)" fill="#4a7032"/>
        <path id="Trazado_985233" data-name="Trazado 985233" d="M263.081,1782.589a.179.179,0,0,0,.158-.262c-2.323-4.4-4.8-8.817-7.2-13.085l-4.535-8.068a.179.179,0,1,0-.311.175l4.532,8.064c2.4,4.27,4.879,8.681,7.2,13.082a.179.179,0,0,0,.158.1" transform="translate(-235.423 -1650.684)" fill="#4a7032"/>
        <path id="Trazado_985234" data-name="Trazado 985234" d="M501.475,1632.257h0a.179.179,0,0,0,.174-.184l-.633-22.931c-.094-3.383-.2-7.218-1.631-10.573a.179.179,0,0,0-.329.14c1.4,3.293,1.509,7.091,1.6,10.443l.633,22.932a.179.179,0,0,0,.179.174" transform="translate(-467.763 -1498.256)" fill="#4a7032"/>
        <path id="Trazado_985235" data-name="Trazado 985235" d="M287.281,2078.649v5.671a.739.739,0,0,0,.739.739h1.238l.615,3.5,2.581,14.731h22.184l3.2-18.23h1.238a.739.739,0,0,0,.739-.739v-5.671a.739.739,0,0,0-.739-.739H288.02a.739.739,0,0,0-.739.739" transform="translate(-269.272 -1947.651)" fill="#ffbc53"/>
        <path id="Trazado_985236" data-name="Trazado 985236" d="M318.815,2191.955l.615,3.5,27.793-3.5Z" transform="translate(-298.829 -2054.546)" fill="#e0984c"/>
        <path id="Trazado_985237" data-name="Trazado 985237" d="M336.321,2291.744l.125.715h26.13l.125-.715Z" transform="translate(-315.238 -2148.08)" fill="#e0984c"/>
        <path id="Trazado_985238" data-name="Trazado 985238" d="M341.338,2320.255l.5,2.86h24.751l.5-2.86Z" transform="translate(-319.94 -2174.804)" fill="#e0984c"/>
        <path id="Trazado_985239" data-name="Trazado 985239" d="M352.286,2382.98l.125.715H376.54l.125-.715Z" transform="translate(-330.202 -2233.596)" fill="#e0984c"/>
        <path id="Trazado_985240" data-name="Trazado 985240" d="M266.125,2489.567c0,3.213-1.692,5.924-4,6.769a4.449,4.449,0,0,1-1.53.272H5.533c-3.005,0-5.452-3.049-5.531-6.85v-.011c0-.059,0-.119,0-.181s0-.121,0-.181v-.014a8.779,8.779,0,0,1,.192-1.658,7.648,7.648,0,0,1,1.427-3.126,5.008,5.008,0,0,1,3.912-2.062H260.591a4.624,4.624,0,0,1,2.71.9,7.524,7.524,0,0,1,2.824,6.14" transform="translate(0 -2326.902)" fill="#98d1e2"/>
        <path id="Trazado_985241" data-name="Trazado 985241" d="M266.152,2489.567c0,3.213-1.692,5.924-4,6.769a4.449,4.449,0,0,1-1.53.272H5.56c-3.005,0-5.452-3.049-5.531-6.85v-.387a8.779,8.779,0,0,1,.192-1.658c3.993-.9,69.145,1.362,74.661,1.528,25.5.769,51.032.987,76.539.182,14.058-.444,28.6-.639,42.959-1.861l.744-.065a198.76,198.76,0,0,0,29.6-4.612q.724-.176,1.447-.359h34.443a4.624,4.624,0,0,1,2.71.9,7.524,7.524,0,0,1,2.824,6.14" transform="translate(-0.027 -2326.902)" fill="#00627f"/>
        <path id="Trazado_985242" data-name="Trazado 985242" d="M947.553,1265.512c-.081-.338-8.095-33.95-10.647-45.116-2.69-11.771-7.783-20.688-15.136-26.5-6.647-5.258-15.029-7.924-24.91-7.924-8.171,0-14.8,2.919-19.172,8.442a24.94,24.94,0,0,0-4.953,11.861,38.712,38.712,0,0,0,.8,14.792l10.918,46.263h63.537Zm-50.693-76.6a46.2,46.2,0,0,1,6.9.5l21.2,74.969h-7.423L896.2,1188.919q.329-.007.661-.007m18.439,75.47h-7.1l-20.854-73.693a22.94,22.94,0,0,1,6.649-1.636Zm-38.9-44a35.794,35.794,0,0,1-.752-13.666A22.039,22.039,0,0,1,880,1196.237a18.129,18.129,0,0,1,5.384-4.588l20.582,72.732H886.779Zm50.8,44-21.078-74.541a33.067,33.067,0,0,1,13.822,6.36c6.814,5.39,11.555,13.751,14.092,24.851,2.211,9.673,8.511,36.149,10.221,43.329Z" transform="translate(-817.664 -1111.622)" fill="#d18f86"/>
        <path id="Trazado_985243" data-name="Trazado 985243" d="M2322.879,1823.184l8.755,29.184-15.009,7.088s-10.423-19.155-10.423-22.931c0-5.42,16.677-13.341,16.677-13.341" transform="translate(-2161.631 -1708.893)" fill="#f49173"/>
        <path id="Trazado_985244" data-name="Trazado 985244" d="M2320.859,1823.809s-13.321,11.856-15.2,18.136l-1.668-4.442a3.611,3.611,0,0,1,1.274-3.9c2.062-1.668,10.4-9.589,15.4-10.423Z" transform="translate(-2159.424 -1708.893)" fill="#00627f"/>
        <path id="Trazado_985245" data-name="Trazado 985245" d="M937.36,2007.456a6.486,6.486,0,0,0,2.663.126,49.945,49.945,0,0,0,11.347-1.93c.812-.271,1.739-.745,1.82-1.6a1.579,1.579,0,0,0-.923-1.456,4.281,4.281,0,0,0-1.781-.356,36.845,36.845,0,0,0-11.914,1.411,9.468,9.468,0,0,0-2.514,1.5c-1.251.834.406,2,1.3,2.3" transform="translate(-876.956 -1876.69)" fill="#252a4f"/>
        <path id="Trazado_985246" data-name="Trazado 985246" d="M1037.5,1299.541a50.01,50.01,0,0,0-15.8,11.228,5,5,0,0,0-.575.775.386.386,0,0,0-.021.042c-.55,1.2-2.785,29.23-2.785,29.23l-54.071.332,1.122-20.761s-22.514-7.922-25.849-7.5-4.169,1.251-4.586,1.668c-.417-1.251.892-6.12,1.43-8.238a1.231,1.231,0,0,1,1.2-.934h1.126s11.257-30.018,17.094-32.52c3.531-1.513,28.768-8.338,28.768-8.338l25.432,2.5s14.175,3.335,17.928,5,8.339,17.928,8.339,17.928l1.334-.267a.718.718,0,0,1,.855.6c.234,1.7.817,5.766,1.147,6.75.417,1.251.834,1.251-2.085,2.5" transform="translate(-876.254 -1185.25)" fill="#00455a"/>
      </g>
    </g>
    <g id="Grupo_1113067" data-name="Grupo 1113067" transform="translate(58.604 79.27)">
      <g id="Grupo_1113066" data-name="Grupo 1113066" clip-path="url(#clip-path-4)">
        <path id="Trazado_985247" data-name="Trazado 985247" d="M1020.337,554.432l-12.665,109.246-.414-.047,12.665-109.245Z" transform="translate(-1002.719 -598.902)" fill="#777ab2"/>
        <path id="Trazado_985248" data-name="Trazado 985248" d="M1178.076,642.2l-12.665,109.246L1165,751.4l12.665-109.245Z" transform="translate(-1150.57 -681.171)" fill="#777ab2"/>
        <path id="Trazado_985249" data-name="Trazado 985249" d="M1335.815,729.975,1323.15,839.22l-.414-.047L1335.4,729.928Z" transform="translate(-1298.421 -763.44)" fill="#777ab2"/>
        <path id="Trazado_985250" data-name="Trazado 985250" d="M1493.554,817.746l-12.665,109.246-.414-.047L1493.14,817.7Z" transform="translate(-1446.272 -845.709)" fill="#777ab2"/>
        <path id="Trazado_985251" data-name="Trazado 985251" d="M1651.293,905.517l-12.665,109.246-.414-.047,12.665-109.245Z" transform="translate(-1594.123 -927.978)" fill="#777ab2"/>
        <path id="Trazado_985252" data-name="Trazado 985252" d="M1809.032,993.289l-12.665,109.246-.414-.047,12.665-109.245Z" transform="translate(-1741.973 -1010.247)" fill="#777ab2"/>
        <path id="Trazado_985253" data-name="Trazado 985253" d="M1966.771,1081.058,1954.106,1190.3l-.414-.047,12.665-109.246Z" transform="translate(-1889.824 -1092.514)" fill="#777ab2"/>
        <rect id="Rectángulo_404678" data-name="Rectángulo 404678" width="134.059" height="0.417" transform="translate(74.361 89.872) rotate(-83.465)" fill="#777ab2"/>
        <path id="Trazado_985254" data-name="Trazado 985254" d="M2333.238,661.342l-12.665,109.246-.414-.047L2332.823,661.3Z" transform="translate(-2233.317 -699.11)" fill="#777ab2"/>
        <path id="Trazado_985255" data-name="Trazado 985255" d="M2490.976,749.113l-12.665,109.246-.414-.047,12.665-109.245Z" transform="translate(-2381.168 -781.378)" fill="#777ab2"/>
      </g>
    </g>
    <g id="Grupo_1113084" data-name="Grupo 1113084" transform="translate(0 0)">
      <g id="Grupo_1113083" data-name="Grupo 1113083" clip-path="url(#clip-path)">
        <path id="Trazado_985257" data-name="Trazado 985257" d="M1873.787,378.988a10.423,10.423,0,0,1-3.638,6.39c.8,2.581-1,5.393-3.387,6.649s-5.206,1.336-7.9,1.352a130.749,130.749,0,0,1-14.308-.523,67.67,67.67,0,0,1-7.156-1.1q-1.771-.371-3.514-.866c-1.448-.407-1.7-.4-1.847-1.9-.04-.411-.076-.818-.1-1.229a25.344,25.344,0,0,1,.387-7.116,14.4,14.4,0,0,1,4.719-8.225,9.718,9.718,0,0,1,9.067-1.883,5.2,5.2,0,0,1,4.583-3.187,16.725,16.725,0,0,1,5.812.894,13.114,13.114,0,0,0,5.828.614c1.935-.371,3.805-1.819,4.037-3.773.056.04.108.076.159.12a8.716,8.716,0,0,1,3.175,8.9,4.272,4.272,0,0,0,2.557-2.306,10.43,10.43,0,0,1,1.532,7.192" transform="translate(-1717.012 -342.201)" fill="#22213d"/>
        <path id="Trazado_985258" data-name="Trazado 985258" d="M1781.174,660.164c-.6,3.139-1.6,6.957-1.6,6.957s1.995,1.6.4,4.388a10.651,10.651,0,0,1-3.191,3.59s-4.156,10.5-5.584,11.568c-1.6,1.2-5.983,2.393-5.983,2.393v4.787s-6.382,6.382-9.174,6.781c0,0-13.163-7.18-15.158-9.174,0,0,5.186-15.158,6.382-20.343a8.231,8.231,0,0,1-2.393-6.781c.395-4.348,1.181-7.128,4.687-5.237.032.016.068.032.1.052l.423-.179c.642-.275,1.938-.854,3.434-1.6a31.513,31.513,0,0,0,6.115-3.806c3.191-2.792,7.579,1.995,13.562,1.995s7.978-.8,8.377.8a13.4,13.4,0,0,1-.4,3.813" transform="translate(-1631.754 -611.769)" fill="#fe9c77"/>
        <path id="Trazado_985259" data-name="Trazado 985259" d="M1899.965,1022.972s1.994,6.382,3.989,7.978,6.781,5.186,10.371,5.186v4.756s-10.093-2.464-11.967-7.149c-1.6-3.989-2.393-10.77-2.393-10.77" transform="translate(-1780.86 -958.844)" fill="#e0633d"/>
        <path id="Trazado_985260" data-name="Trazado 985260" d="M1836.856,946.614s.4.8,1.6.4l-1.986,1.141Z" transform="translate(-1721.341 -887.273)" fill="#e0633d"/>
        <path id="Trazado_985261" data-name="Trazado 985261" d="M2010.56,782.362a.8.8,0,0,1-.28-.051,25.925,25.925,0,0,0-10.79-1.152.8.8,0,1,1-.2-1.583,32.236,32.236,0,0,1,11.548.444c.72.133.622,1.013.467,1.426-.12.32-.424.917-.747.917" transform="translate(-1873.306 -730.401)" fill="#22213d"/>
        <path id="Trazado_985262" data-name="Trazado 985262" d="M2253.838,806.294a.793.793,0,0,1-.464-.15c-1.043-.748-3.739-1.039-5.655-.608a.8.8,0,0,1-.953-.6c-.1-.43.166-1.7.6-1.751a12.28,12.28,0,0,1,6.934,1.667.8.8,0,0,1-.465,1.446" transform="translate(-2105.903 -752.796)" fill="#22213d"/>
        <path id="Trazado_985263" data-name="Trazado 985263" d="M2072.8,858.728c0,.661-.842,1.2-1.881,1.2s-1.88-.536-1.88-1.2.842-1.2,1.88-1.2,1.881.536,1.881,1.2" transform="translate(-1939.339 -803.774)" fill="#22213d"/>
        <path id="Trazado_985264" data-name="Trazado 985264" d="M2272.618,884.125c0,.631-.8,1.142-1.795,1.142s-1.795-.511-1.795-1.142.8-1.142,1.795-1.142,1.795.511,1.795,1.142" transform="translate(-2126.788 -827.631)" fill="#22213d"/>
        <path id="Trazado_985265" data-name="Trazado 985265" d="M2038.721,855.175a.2.2,0,0,1-.13-.048c-2.105-1.808-5.06-.906-6.634-.206a.2.2,0,0,1-.162-.365c1.66-.737,4.785-1.682,7.056.268a.2.2,0,0,1-.13.351" transform="translate(-1904.316 -800.153)" fill="#22213d"/>
        <path id="Trazado_985266" data-name="Trazado 985266" d="M2249.357,881.145a.2.2,0,0,1-.141-.058c-1.08-1.08-3.97-1.283-5.333-.374a.2.2,0,1,1-.221-.332c1.387-.926,4.527-.886,5.836.424a.2.2,0,0,1-.141.34" transform="translate(-2102.929 -824.596)" fill="#22213d"/>
        <path id="Trazado_985267" data-name="Trazado 985267" d="M2183.568,848.612a.2.2,0,0,1-.014-.4,2.6,2.6,0,0,0,1.964-.706,2.5,2.5,0,0,0,.351-1.291l.706-7.667a.2.2,0,0,1,.4.037l-.706,7.667a2.237,2.237,0,0,1-2.684,2.359h-.014" transform="translate(-2046.499 -785.813)" fill="#e0633d"/>
        <path id="Trazado_985268" data-name="Trazado 985268" d="M2118.233,1014.764a6.708,6.708,0,0,1-5.162-2.423.2.2,0,1,1,.307-.255,6.323,6.323,0,0,0,7.563,1.675.2.2,0,1,1,.17.361,6.75,6.75,0,0,1-2.878.643" transform="translate(-1980.564 -948.573)" fill="#e0633d"/>
        <path id="Trazado_985269" data-name="Trazado 985269" d="M2138.046,1059.109a3.694,3.694,0,0,1-2.563-1.023.2.2,0,0,1,.28-.284,3.282,3.282,0,0,0,3.189.775.2.2,0,1,1,.118.381,3.463,3.463,0,0,1-1.024.152" transform="translate(-2001.558 -991.437)" fill="#e0633d"/>
        <path id="Trazado_985270" data-name="Trazado 985270" d="M1817.383,786.946a.2.2,0,0,1-.2-.192,2.452,2.452,0,0,1,.44-1.724,2.181,2.181,0,0,1,2.046-.618,4.012,4.012,0,0,1,1.512.991.2.2,0,1,1-.271.292,3.676,3.676,0,0,0-1.355-.9,1.774,1.774,0,0,0-1.614.478,2.072,2.072,0,0,0-.358,1.467.2.2,0,0,1-.192.207h-.008" transform="translate(-1703.265 -735.184)" fill="#e0633d"/>
        <path id="Trazado_985271" data-name="Trazado 985271" d="M1881.248,755.019a.187.187,0,0,1-.068.012.2.2,0,0,1-.187-.132,2.485,2.485,0,0,0-1.576-1.767.19.19,0,0,1-.132-.148c.032.016.068.032.1.052l.423-.179a3.026,3.026,0,0,1,1.56,1.907.2.2,0,0,1-.12.255" transform="translate(-1761.477 -705.662)" fill="#e0633d"/>
        <path id="Trazado_985272" data-name="Trazado 985272" d="M2341.423,916.56a.2.2,0,0,1-.166-.31c.531-.8.524-1.231.472-1.419a.412.412,0,0,0-.219-.276.447.447,0,0,0-.591.39.2.2,0,0,1-.19.208.2.2,0,0,1-.208-.19.843.843,0,0,1,1.163-.767.813.813,0,0,1,.43.53,2.266,2.266,0,0,1-.525,1.746.2.2,0,0,1-.166.089" transform="translate(-2193.798 -856.82)" fill="#e0633d"/>
        <path id="Trazado_985273" data-name="Trazado 985273" d="M1829.315,793.183a.2.2,0,0,1-.2-.161,10.564,10.564,0,0,1,.756-6.417.2.2,0,1,1,.363.166,10.165,10.165,0,0,0-.728,6.173.2.2,0,0,1-.157.234.192.192,0,0,1-.039,0" transform="translate(-1714.271 -737.186)" fill="#e0633d"/>
        <g id="Grupo_1113070" data-name="Grupo 1113070" transform="translate(123.169 56.159)" opacity="0.38">
          <g id="Grupo_1113069" data-name="Grupo 1113069">
            <g id="Grupo_1113068" data-name="Grupo 1113068" clip-path="url(#clip-path-6)">
              <path id="Trazado_985274" data-name="Trazado 985274" d="M1972.322,899.764c-.43,1.366-2.445,1.948-4.5,1.3s-3.374-2.279-2.944-3.645,2.445-1.948,4.5-1.3,3.374,2.279,2.944,3.645" transform="translate(-1964.796 -895.854)" fill="#ea6359"/>
            </g>
          </g>
        </g>
        <g id="Grupo_1113073" data-name="Grupo 1113073" transform="translate(142.788 59.341)" opacity="0.38">
          <g id="Grupo_1113072" data-name="Grupo 1113072">
            <g id="Grupo_1113071" data-name="Grupo 1113071" clip-path="url(#clip-path-7)">
              <path id="Trazado_985275" data-name="Trazado 985275" d="M2280.014,950.6c-.059.177-.1.255-.279.694a2.32,2.32,0,0,1-1.879-1.34c-.514-1.336,1.36-2.944,3.355-3.343,0,0-.4,1.6-1.2,3.989" transform="translate(-2277.77 -946.615)" fill="#ea6359"/>
            </g>
          </g>
        </g>
        <g id="Grupo_1113076" data-name="Grupo 1113076" transform="translate(114.834 22.887)" opacity="0.18">
          <g id="Grupo_1113075" data-name="Grupo 1113075">
            <g id="Grupo_1113074" data-name="Grupo 1113074" clip-path="url(#clip-path-8)">
              <path id="Trazado_985276" data-name="Trazado 985276" d="M1862.626,372.394c-2.485,1.153-5.373.69-8.109.558s-5.864.287-7.463,2.513c-2.333-.957-5.824-.69-7.746.945a26.712,26.712,0,0,0-5.186,5.983,15.508,15.508,0,0,0-2.19,5.369,25.348,25.348,0,0,1,.387-7.116,14.4,14.4,0,0,1,4.719-8.225,9.718,9.718,0,0,1,9.067-1.883,5.2,5.2,0,0,1,4.583-3.187,16.726,16.726,0,0,1,5.812.893,13.114,13.114,0,0,0,5.828.614c1.935-.371,3.805-1.819,4.037-3.774.056.04.108.076.159.12.634,2.744-1.532,6.091-3.9,7.188" transform="translate(-1831.845 -365.086)" fill="#fff"/>
            </g>
          </g>
        </g>
        <path id="Trazado_985277" data-name="Trazado 985277" d="M2363.038,535.643a.2.2,0,0,1-.014-.4,7.424,7.424,0,0,0,6.663-9.2.2.2,0,1,1,.387-.1,7.823,7.823,0,0,1-7.021,9.694h-.015" transform="translate(-2214.718 -492.836)" fill="#06060f"/>
        <path id="Trazado_985278" data-name="Trazado 985278" d="M2352.25,585.539a.2.2,0,0,1-.006-.4,4.74,4.74,0,0,0,4.36-3.6.2.2,0,1,1,.389.088,5.149,5.149,0,0,1-4.736,3.914h-.007" transform="translate(-2204.606 -544.936)" fill="#06060f"/>
        <path id="Trazado_985279" data-name="Trazado 985279" d="M2350.206,443.045a.2.2,0,0,1-.041-.395,4.709,4.709,0,0,0,2.864-7.327.2.2,0,0,1,.326-.231,5.108,5.108,0,0,1-3.106,7.948.206.206,0,0,1-.042,0" transform="translate(-2202.69 -407.739)" fill="#06060f"/>
        <path id="Trazado_985280" data-name="Trazado 985280" d="M2393.306,705.471a.2.2,0,0,1-.088-.378,3.1,3.1,0,0,0,1.505-1.506,2.615,2.615,0,0,0,.054-2.266.2.2,0,1,1,.37-.15,2.994,2.994,0,0,1-.066,2.594,3.472,3.472,0,0,1-1.686,1.685.2.2,0,0,1-.088.02" transform="translate(-2243.088 -657.099)" fill="#06060f"/>
        <path id="Trazado_985281" data-name="Trazado 985281" d="M1890.7,635.348a.2.2,0,0,1-.032-.4,14.544,14.544,0,0,0,9.084-5.438.2.2,0,1,1,.316.243,14.946,14.946,0,0,1-9.336,5.589.186.186,0,0,1-.033,0" transform="translate(-1771.991 -589.978)" fill="#06060f"/>
        <path id="Trazado_985282" data-name="Trazado 985282" d="M1888.326,633.218a.2.2,0,0,1-.07-.386,8.61,8.61,0,0,0,4.36-3.693.2.2,0,1,1,.346.2,8.9,8.9,0,0,1-4.565,3.867.2.2,0,0,1-.07.013" transform="translate(-1769.764 -589.606)" fill="#06060f"/>
        <path id="Trazado_985283" data-name="Trazado 985283" d="M2325.159,496.048a3.742,3.742,0,0,1-.382-.019.2.2,0,0,1-.178-.219.2.2,0,0,1,.219-.178,3.763,3.763,0,0,0,3.78-2.364.2.2,0,1,1,.375.137,4.14,4.14,0,0,1-3.813,2.643" transform="translate(-2178.875 -462.224)" fill="#06060f"/>
        <path id="Trazado_985284" data-name="Trazado 985284" d="M2122.042,619.5a9.94,9.94,0,0,1-7.66-3.633.2.2,0,1,1,.311-.25,9.507,9.507,0,0,0,8.7,3.382.2.2,0,1,1,.06.394,9.34,9.34,0,0,1-1.412.107" transform="translate(-1981.795 -576.96)" fill="#06060f"/>
        <path id="Trazado_985285" data-name="Trazado 985285" d="M2167.471,626.233a5.472,5.472,0,0,1-4.044-1.828.2.2,0,1,1,.3-.263,5.057,5.057,0,0,0,3.963,1.687.2.2,0,0,1,.019.4c-.079,0-.159.006-.238.006" transform="translate(-2027.76 -584.953)" fill="#06060f"/>
        <g id="Grupo_1113079" data-name="Grupo 1113079" transform="translate(121.765 40.915)" opacity="0.62">
          <g id="Grupo_1113078" data-name="Grupo 1113078">
            <g id="Grupo_1113077" data-name="Grupo 1113077" clip-path="url(#clip-path-9)">
              <path id="Trazado_985286" data-name="Trazado 985286" d="M1970.062,660.164c-.088-1.1.052-2.357-.8-3.016-1.3-1.005-3.582-.315-5.2-.036a14.933,14.933,0,0,1-8.3-.957c-1.4-.59-2.78-1.408-4.292-1.348a7.613,7.613,0,0,0-2.01.451c-2.054.662-4.128,1.5-6.235,1.971a6.732,6.732,0,0,1-.818.136,31.513,31.513,0,0,0,6.115-3.806c3.191-2.792,7.579,1.995,13.562,1.995s7.978-.8,8.377.8a13.4,13.4,0,0,1-.4,3.813" transform="translate(-1942.407 -652.684)" fill="#e0633d"/>
            </g>
          </g>
        </g>
        <path id="Trazado_985287" data-name="Trazado 985287" d="M1880.988,1414.606c-.042.309-4.179,30.927-5,37.521s-1.658,17.8-1.667,17.917a.208.208,0,0,1-.208.193h-.016a.208.208,0,0,1-.192-.223c.008-.113.844-11.338,1.669-17.938s4.96-36.98,5-37.289Z" transform="translate(-1756.431 -1325.928)" fill="#383a6b"/>
        <path id="Trazado_985288" data-name="Trazado 985288" d="M1656.154,1245.756l-5.837,6.254s-14.175-7.5-15.843-14.175l6.118-3.441a.954.954,0,0,1,1.053.078Z" transform="translate(-1532.013 -1156.897)" fill="#00627f"/>
        <path id="Trazado_985289" data-name="Trazado 985289" d="M1986.151,1306.427s-2.918-6.254-5.837-6.671c0,0,7.2-5.2,9.452-7.762a.319.319,0,0,1,.338-.1,72.939,72.939,0,0,1,6.887,2.439s-7.088,10.423-10.84,12.091" transform="translate(-1856.173 -1210.897)" fill="#00627f"/>
        <path id="Trazado_985290" data-name="Trazado 985290" d="M1045.921,1891.446a.209.209,0,0,1-.06-.009c-8.579-2.57-18.494-2.038-24.913-.682a.209.209,0,1,1-.086-.408c6.469-1.366,16.465-1.9,25.119.691a.209.209,0,0,1-.06.408" transform="translate(-956.711 -1770.777)" fill="#383a6b"/>
        <path id="Trazado_985291" data-name="Trazado 985291" d="M2339.664,1692.7a.208.208,0,0,1-.154-.349c4.159-4.575,6.724-5.789,12.92-8.722l.17-.081a.209.209,0,1,1,.178.377l-.17.08c-6.143,2.908-8.686,4.112-12.79,8.626a.208.208,0,0,1-.154.068" transform="translate(-2192.8 -1577.99)" fill="#383a6b"/>
        <path id="Trazado_985292" data-name="Trazado 985292" d="M1425.4,1587.024l-3.752,21.68,5.42.834c-2.032-4.065-1.684-13.385-1.451-18.671.034-.764.092-1.524.174-2.285l1.066-9.787a4.122,4.122,0,0,0-.048-1.468l-1.1-5.126a.1.1,0,0,0-.2.044l1.1,5.126a3.91,3.91,0,0,1,.045,1.394Z" transform="translate(-1332.529 -1473.566)" fill="#252a4f"/>
        <path id="Trazado_985293" data-name="Trazado 985293" d="M2311.4,1605.5l-1.476,4.419a5.066,5.066,0,0,0-.238,1.172l-1.051,19.153a5.018,5.018,0,0,0-.575.776c-.05-.008-.083-.017-.1-.017h-.008a.1.1,0,0,1-.1-.113l1.617-19.816a5.1,5.1,0,0,1,.25-1.222l1.472-4.419a.105.105,0,1,1,.2.067" transform="translate(-2163.186 -1504.726)" fill="#252a4f"/>
        <path id="Trazado_985294" data-name="Trazado 985294" d="M1574.432,1874.438a.1.1,0,0,1-.081-.039c-4-4.958-3.933-12.239-3.865-19.28a.1.1,0,0,1,.105-.1.1.1,0,0,1,.1.105c-.068,7-.137,14.247,3.819,19.147a.1.1,0,0,1-.081.17" transform="translate(-1472.019 -1738.729)" fill="#252a4f"/>
        <path id="Trazado_985295" data-name="Trazado 985295" d="M1634.373,2032.711a.1.1,0,0,1-.054-.015,9.931,9.931,0,0,1-4.833-8.222.1.1,0,0,1,.1-.1h0a.1.1,0,0,1,.1.1,9.851,9.851,0,0,0,4.732,8.044.1.1,0,0,1-.054.193" transform="translate(-1527.337 -1897.467)" fill="#252a4f"/>
        <path id="Trazado_985296" data-name="Trazado 985296" d="M1000.825,2016.614l-1.251,7.5s28.351,4.169,36.272,4.169,13.758-2.5,15.426-2.5,16.26,4.586,16.26,5.42,0,2.5-1.251,2.5-8.338-2.5-8.338-2.5,7.088,2.918,8.338,4.586-4.586,2.918-8.338,2.085-12.091,2.085-15.009,1.668-20.012,3.335-27.517,3.752-38.774,4.169-41.692,3.335-2.5-10.84-2.085-15.009,2.085-15.009,2.085-15.009,15.426-2.918,27.1,0" transform="translate(-910.454 -1888.982)" fill="#fe9c77"/>
        <path id="Trazado_985297" data-name="Trazado 985297" d="M2276.736,2366.07c.413.157.893.419.9.861a.761.761,0,0,1-.475.654,2.043,2.043,0,0,1-.837.133c-3.279.03-5.437-.117-10.024-2.618.05.035,2.7-.667,2.973-.673a11.417,11.417,0,0,1,2.175.177,28.37,28.37,0,0,1,5.292,1.467" transform="translate(-2124.228 -2216.204)" fill="#fe9c77"/>
        <path id="Trazado_985298" data-name="Trazado 985298" d="M2296.861,2250.5a.208.208,0,0,1-.066-.011l-3.752-1.251a.208.208,0,0,1,.132-.4l3.752,1.251a.209.209,0,0,1-.066.406" transform="translate(-2149.164 -2107.86)" fill="#e0633d"/>
        <path id="Trazado_985299" data-name="Trazado 985299" d="M2290.21,2343.608a.208.208,0,0,1-.066-.011l-3.752-1.251a.208.208,0,0,1,.132-.4l3.752,1.251a.209.209,0,0,1-.066.406" transform="translate(-2142.929 -2195.129)" fill="#e0633d"/>
        <path id="Trazado_985300" data-name="Trazado 985300" d="M2296.463,2298.719a.212.212,0,0,1-.059-.008l-10.006-2.918a.209.209,0,0,1,.117-.4l10.006,2.918a.209.209,0,0,1-.058.409" transform="translate(-2142.929 -2151.491)" fill="#e0633d"/>
        <path id="Trazado_985301" data-name="Trazado 985301" d="M1001.036,2020.052s20.114-4.272,27.618-3.438c0,0-10.423-2.918-27.1,0Z" transform="translate(-938.283 -1888.981)" fill="#00627f"/>
        <path id="Trazado_985302" data-name="Trazado 985302" d="M1980.314,1417.487l5.837,6.671s-2.085-5.837-5.837-6.671" transform="translate(-1856.173 -1328.628)" fill="#252a4f"/>
        <path id="Trazado_985303" data-name="Trazado 985303" d="M1988.032,1471.931c-.084.57-.429.991-.77.94s-.551-.553-.467-1.122.429-.991.77-.94.551.553.467,1.122" transform="translate(-1862.23 -1378.604)" fill="#fff"/>
        <path id="Trazado_985304" data-name="Trazado 985304" d="M1961.429,1671.454c-.084.569-.429.99-.77.94s-.551-.553-.467-1.122.429-.99.77-.94.551.553.467,1.122" transform="translate(-1837.295 -1565.619)" fill="#fff"/>
        <path id="Trazado_985305" data-name="Trazado 985305" d="M1934.827,1870.977c-.084.57-.429.99-.77.94s-.551-.553-.467-1.122.429-.99.77-.94.551.553.467,1.122" transform="translate(-1812.36 -1752.635)" fill="#fff"/>
        <path id="Trazado_985306" data-name="Trazado 985306" d="M1908.223,2070.5c-.084.57-.429.99-.77.94s-.551-.553-.467-1.122.429-.99.77-.94.551.553.467,1.122" transform="translate(-1787.424 -1939.65)" fill="#fff"/>
        <path id="Trazado_985307" data-name="Trazado 985307" d="M2120.929,1710.121l4.169,3.752s-6.268,1.31-8.554.447Z" transform="translate(-1983.863 -1602.917)" fill="#fff"/>
        <path id="Trazado_985308" data-name="Trazado 985308" d="M2105.945,1765.193a14.077,14.077,0,0,1-3.794-.482l.112-.4c3.478.969,7.238.226,10.555-.429l.081.409a36.2,36.2,0,0,1-6.953.9" transform="translate(-1970.372 -1653.307)" fill="#383a6b"/>
        <path id="Trazado_985309" data-name="Trazado 985309" d="M2105.945,1798.447a14.082,14.082,0,0,1-3.794-.482l.112-.4c3.478.969,7.238.227,10.555-.429l.081.409a36.2,36.2,0,0,1-6.953.9" transform="translate(-1970.372 -1684.477)" fill="#383a6b"/>
        <path id="Trazado_985310" data-name="Trazado 985310" d="M1919.3,2410.359h-39.191v-4.137a.866.866,0,0,1,.866-.866H1919.3Z" transform="translate(-1762.248 -2254.57)" fill="#393a4e"/>
        <path id="Trazado_985311" data-name="Trazado 985311" d="M2423.151,1743.287h-68.24l16.742-46.709a4.307,4.307,0,0,1,4.055-2.854h63.806a2.549,2.549,0,0,1,2.4,3.41l-15.794,44.064a3.154,3.154,0,0,1-2.969,2.09" transform="translate(-2207.287 -1587.548)" fill="#393a4e"/>
        <path id="Trazado_985312" data-name="Trazado 985312" d="M2405.934,1772.422a.418.418,0,0,1-.393-.556l14.947-42.152a4.171,4.171,0,0,1,3.906-2.736h61.589a.417.417,0,1,1,0,.834h-61.589a3.333,3.333,0,0,0-3.121,2.185l-14.946,42.148a.417.417,0,0,1-.393.278" transform="translate(-2254.72 -1618.717)" fill="#f4f4f4"/>
        <path id="Trazado_985313" data-name="Trazado 985313" d="M3047.938,2021.3c-.933,2.6-3.183,4.173-5.025,3.512s-2.579-3.305-1.646-5.906,3.183-4.173,5.025-3.512,2.579,3.305,1.646,5.906" transform="translate(-2850.238 -1888.911)" fill="#f4f4f4"/>
        <path id="Trazado_985314" data-name="Trazado 985314" d="M1154.691,0h-36.432a4.466,4.466,0,0,0-4.466,4.466v9.62a4.466,4.466,0,0,0,4.466,4.466h36.432a4.5,4.5,0,0,0,.507-.029l2.714,3.766a.687.687,0,0,0,1.245-.4V4.468A4.466,4.466,0,0,0,1154.691,0" transform="translate(-1043.972 -0.002)" fill="#f8a230"/>
        <path id="Trazado_985315" data-name="Trazado 985315" d="M1252.54,77.461h-31.069a.187.187,0,1,1,0-.374h31.069a.187.187,0,1,1,0,.374" transform="translate(-1144.725 -72.255)" fill="#fff"/>
        <path id="Trazado_985316" data-name="Trazado 985316" d="M1247.91,138.4h-26.3a.178.178,0,1,1,0-.356h26.3a.178.178,0,0,1,0,.356" transform="translate(-1144.859 -129.39)" fill="#fff"/>
        <path id="Trazado_985317" data-name="Trazado 985317" d="M1251.594,199.21H1221.6a.178.178,0,0,1,0-.356h29.989a.178.178,0,1,1,0,.356" transform="translate(-1144.859 -186.388)" fill="#fff"/>
        <path id="Trazado_985318" data-name="Trazado 985318" d="M2788.438,659.25h-54.321a2.622,2.622,0,0,1-2.622-2.622V612.763a2.622,2.622,0,0,1,2.622-2.622h54.321a2.622,2.622,0,0,1,2.622,2.622v43.865a2.622,2.622,0,0,1-2.622,2.622" transform="translate(-2560.265 -571.893)" fill="#008db6"/>
        <rect id="Rectángulo_404683" data-name="Rectángulo 404683" width="4.779" height="11.319" transform="translate(194.309 70.261)" fill="#fcfcfc"/>
        <rect id="Rectángulo_404684" data-name="Rectángulo 404684" width="4.779" height="5.659" transform="translate(186.807 75.92)" fill="#fcfcfc"/>
        <rect id="Rectángulo_404685" data-name="Rectángulo 404685" width="4.779" height="8.053" transform="translate(179.211 73.527)" fill="#fcfcfc"/>
        <rect id="Rectángulo_404686" data-name="Rectángulo 404686" width="4.779" height="15.846" transform="translate(201.854 65.734)" fill="#fcfcfc"/>
        <rect id="Rectángulo_404687" data-name="Rectángulo 404687" width="4.779" height="21.376" transform="translate(209.4 60.203)" fill="#fcfcfc"/>
        <g id="Grupo_1113082" data-name="Grupo 1113082" transform="translate(216.946 49.476)" opacity="0.84">
          <g id="Grupo_1113081" data-name="Grupo 1113081">
            <g id="Grupo_1113080" data-name="Grupo 1113080" clip-path="url(#clip-path-10)">
              <rect id="Rectángulo_404688" data-name="Rectángulo 404688" width="4.779" height="32.104" transform="translate(0 0)" fill="#fff"/>
            </g>
          </g>
        </g>
        <path id="Trazado_985319" data-name="Trazado 985319" d="M2862.43,731.741a.236.236,0,0,1,.191-.254,52.548,52.548,0,0,0,35.315-25.311.478.478,0,0,1,.648-.186,52.1,52.1,0,0,1-16.9,18.159,52.653,52.653,0,0,1-18.97,7.8.239.239,0,0,1-.282-.212" transform="translate(-2682.99 -661.678)" fill="#fff"/>
        <path id="Trazado_985320" data-name="Trazado 985320" d="M3397.474,704.914l-.475-.026.1-1.85a8.788,8.788,0,0,1-2.17.821l-.108-.463a8.311,8.311,0,0,0,2.416-.984l.385-.233Z" transform="translate(-3182.009 -658.161)" fill="#fff"/>
        <path id="Trazado_985321" data-name="Trazado 985321" d="M2886.139,725.364h-27a.343.343,0,0,1-.343-.343v-.682a.343.343,0,0,1,.343-.343h27a.343.343,0,0,1,.343.343v.682a.343.343,0,0,1-.343.343" transform="translate(-2679.583 -678.61)" fill="#fcfcfc"/>
        <path id="Trazado_985322" data-name="Trazado 985322" d="M2880.054,790.61h-20.917a.343.343,0,0,1-.343-.343v-.682a.343.343,0,0,1,.343-.343h20.917a.343.343,0,0,1,.343.343v.682a.343.343,0,0,1-.343.343" transform="translate(-2679.583 -739.766)" fill="#fcfcfc"/>
        <path id="Trazado_985323" data-name="Trazado 985323" d="M2880.054,855.855h-20.917a.343.343,0,0,1-.343-.343v-.682a.343.343,0,0,1,.343-.343h20.917a.343.343,0,0,1,.343.343v.682a.343.343,0,0,1-.343.343" transform="translate(-2679.583 -800.921)" fill="#fcfcfc"/>
        <path id="Trazado_985324" data-name="Trazado 985324" d="M673.971,602.62H627.86A2.622,2.622,0,0,1,625.238,600V577.747a2.622,2.622,0,0,1,2.622-2.622h46.111a2.622,2.622,0,0,1,2.622,2.622V600a2.622,2.622,0,0,1-2.622,2.622" transform="translate(-586.043 -539.072)" fill="#ffbc53"/>
        <path id="Trazado_985325" data-name="Trazado 985325" d="M719.647,668.8H675.034v-.491h44.122V649.458h.491Z" transform="translate(-632.717 -608.745)" fill="#fff"/>
        <path id="Trazado_985326" data-name="Trazado 985326" d="M743.341,718.681l-5.5-6.117-5.419,4.219-7.977-6.976-7.357,7.565-.352-.342,7.681-7.9,8.023,7.016,5.46-4.25,5.425,6.034,10.005-12.054.378.314Z" transform="translate(-671.807 -661.626)" fill="#fff"/>
        <path id="Trazado_985327" data-name="Trazado 985327" d="M706.118,866.591a1.1,1.1,0,1,1-1.1-1.1,1.1,1.1,0,0,1,1.1,1.1" transform="translate(-659.783 -811.231)" fill="#fff"/>
        <path id="Trazado_985328" data-name="Trazado 985328" d="M824.584,745.246a1.1,1.1,0,1,1-1.1-1.1,1.1,1.1,0,0,1,1.1,1.1" transform="translate(-770.822 -697.493)" fill="#fff"/>
        <path id="Trazado_985329" data-name="Trazado 985329" d="M953.11,855.234a1.1,1.1,0,1,1-1.1-1.1,1.1,1.1,0,0,1,1.1,1.1" transform="translate(-891.291 -800.586)" fill="#fff"/>
        <path id="Trazado_985330" data-name="Trazado 985330" d="M1038.667,789.748a1.1,1.1,0,1,1-1.1-1.1,1.1,1.1,0,0,1,1.1,1.1" transform="translate(-971.485 -739.205)" fill="#fff"/>
        <path id="Trazado_985331" data-name="Trazado 985331" d="M1122.567,884.212a1.1,1.1,0,1,1-1.1-1.1,1.1,1.1,0,0,1,1.1,1.1" transform="translate(-1050.125 -827.747)" fill="#fff"/>
        <path id="Trazado_985332" data-name="Trazado 985332" d="M1288.092,691.857a1.1,1.1,0,1,1-1.1-1.1,1.1,1.1,0,0,1,1.1,1.1" transform="translate(-1205.274 -647.451)" fill="#fff"/>
        <path id="Trazado_985333" data-name="Trazado 985333" d="M1359.448,639.29l-.4-.285,1.493-2.1,1.426,2.1-.407.275-1.029-1.517Z" transform="translate(-1273.852 -596.981)" fill="#fff"/>
        <path id="Trazado_985334" data-name="Trazado 985334" d="M665.367,945.822a.552.552,0,1,1-.552-.552.552.552,0,0,1,.552.552" transform="translate(-622.621 -886.013)" fill="#fff"/>
        <rect id="Rectángulo_404690" data-name="Rectángulo 404690" width="34.529" height="0.491" transform="translate(42.746 40.583)" fill="#fff"/>
        <rect id="Rectángulo_404691" data-name="Rectángulo 404691" width="26.858" height="0.491" transform="translate(42.746 42.888)" fill="#fff"/>
      </g>
    </g>
  </g>
</svg>
