<svg xmlns="http://www.w3.org/2000/svg" xmlns:xlink="http://www.w3.org/1999/xlink" width="105" height="105" viewBox="0 0 105 105">
  <defs>
    <clipPath id="clip-path">
      <rect id="Rectángulo_405230" data-name="Rectángulo 405230" width="64.584" height="61.526" fill="#12263f"/>
    </clipPath>
  </defs>
  <g id="Grupo_1115807" data-name="Grupo 1115807" transform="translate(-275.051 -2774)">
    <circle id="Elipse_11802" data-name="Elipse 11802" cx="52.5" cy="52.5" r="52.5" transform="translate(275.051 2774)" fill="#f9f2c8"/>
    <g id="Grupo_1115797" data-name="Grupo 1115797" transform="translate(295.051 2796)">
      <g id="Grupo_1115796" data-name="Grupo 1115796" clip-path="url(#clip-path)">
        <path id="Trazado_988743" data-name="Trazado 988743" d="M122.979,128.027H88.872a3.907,3.907,0,0,1-3.384-5.861l17.053-29.537a3.907,3.907,0,0,1,6.768,0l17.053,29.537a3.907,3.907,0,0,1-3.384,5.861M104.389,93.7,87.336,123.232a1.775,1.775,0,0,0,1.537,2.662h34.107a1.775,1.775,0,0,0,1.537-2.662L107.463,93.7a1.775,1.775,0,0,0-3.074,0" transform="translate(-62.309 -66.501)" fill="#12263f"/>
        <path id="Trazado_988744" data-name="Trazado 988744" d="M160.672,141.153a1.066,1.066,0,0,1-1.066-1.066V127.842a1.066,1.066,0,1,1,2.133,0v12.244a1.066,1.066,0,0,1-1.066,1.066" transform="translate(-117.055 -92.978)" fill="#12263f"/>
        <path id="Trazado_988745" data-name="Trazado 988745" d="M160.672,200.272a1.066,1.066,0,0,1-1.066-1.066v-.317a1.066,1.066,0,0,1,2.133,0v.317a1.066,1.066,0,0,1-1.066,1.066" transform="translate(-117.055 -145.083)" fill="#12263f"/>
        <path id="Trazado_988746" data-name="Trazado 988746" d="M12.43,54.518a1.065,1.065,0,0,1-.754-.312L5.942,48.472a1.067,1.067,0,0,1-.1-1.39l3.7-4.985A23.6,23.6,0,0,1,7.05,36.091L.91,35.182A1.066,1.066,0,0,1,0,34.127V26.019a1.066,1.066,0,0,1,.91-1.055l6.14-.909a23.592,23.592,0,0,1,2.488-6.006l-3.7-4.985a1.067,1.067,0,0,1,.1-1.39l5.733-5.733a1.066,1.066,0,0,1,1.39-.1l4.985,3.7a23.6,23.6,0,0,1,6.006-2.488l.909-6.14A1.067,1.067,0,0,1,26.02,0h8.109a1.067,1.067,0,0,1,1.055.91l.909,6.14A23.6,23.6,0,0,1,42.1,9.538l4.985-3.7a1.066,1.066,0,0,1,1.39.1l5.733,5.733a1.067,1.067,0,0,1,.1,1.39l-3.7,4.985A23.6,23.6,0,0,1,53.1,24.055l6.14.909a1.066,1.066,0,0,1,.91,1.055v8.108a1.066,1.066,0,0,1-2.133,0V26.939l-5.939-.88a1.066,1.066,0,0,1-.884-.818,21.489,21.489,0,0,0-2.769-6.684,1.066,1.066,0,0,1,.046-1.2l3.578-4.822L47.615,8.1l-4.822,3.578a1.066,1.066,0,0,1-1.2.046,21.5,21.5,0,0,0-6.684-2.769,1.066,1.066,0,0,1-.818-.884l-.88-5.939H26.94L26.06,8.071a1.067,1.067,0,0,1-.818.884,21.5,21.5,0,0,0-6.684,2.769,1.066,1.066,0,0,1-1.2-.046L12.533,8.1,8.1,12.532l3.578,4.822a1.066,1.066,0,0,1,.046,1.2,21.494,21.494,0,0,0-2.769,6.684,1.066,1.066,0,0,1-.884.818l-5.939.88v6.268l5.939.879a1.067,1.067,0,0,1,.884.818,21.494,21.494,0,0,0,2.769,6.684,1.066,1.066,0,0,1-.046,1.2L8.1,47.614l4.432,4.432,4.822-3.578a1.066,1.066,0,0,1,1.2-.046,21.615,21.615,0,0,0,3.2,1.657,1.066,1.066,0,1,1-.819,1.969,23.7,23.7,0,0,1-2.89-1.44l-4.985,3.7a1.063,1.063,0,0,1-.635.21" transform="translate(0 0.001)" fill="#12263f"/>
        <path id="Trazado_988747" data-name="Trazado 988747" d="M66.263,85.318a1.062,1.062,0,0,1-.337-.055A15.287,15.287,0,1,1,82.63,61.13a1.066,1.066,0,1,1-1.656,1.344A13.153,13.153,0,1,0,66.6,83.239a1.067,1.067,0,0,1-.337,2.078" transform="translate(-40.684 -40.684)" fill="#12263f"/>
      </g>
    </g>
  </g>
</svg>
