<svg xmlns="http://www.w3.org/2000/svg" xmlns:xlink="http://www.w3.org/1999/xlink" width="105" height="105" viewBox="0 0 105 105">
  <defs>
    <clipPath id="clip-path">
      <rect id="Rectángulo_405233" data-name="Rectángulo 405233" width="80.185" height="58.988" fill="#12263f"/>
    </clipPath>
  </defs>
  <g id="Grupo_1115804" data-name="Grupo 1115804" transform="translate(-1220.051 -2774)">
    <g id="Grupo_1115795" data-name="Grupo 1115795" transform="translate(0 1491)">
      <circle id="Elipse_11805" data-name="Elipse 11805" cx="52.5" cy="52.5" r="52.5" transform="translate(1220.051 1283)" fill="#f9f2c8"/>
    </g>
    <g id="Grupo_1115803" data-name="Grupo 1115803" transform="translate(1231 2794.646)">
      <g id="Grupo_1115802" data-name="Grupo 1115802" clip-path="url(#clip-path)">
        <path id="Trazado_988766" data-name="Trazado 988766" d="M126.732,16.674a1.306,1.306,0,0,1-1.306-1.306V1.306a1.306,1.306,0,1,1,2.612,0V15.368a1.306,1.306,0,0,1-1.306,1.306" transform="translate(-84.467)" fill="#12263f"/>
        <path id="Trazado_988767" data-name="Trazado 988767" d="M175.565,45.395a1.306,1.306,0,0,1-.924-2.23l9.943-9.942a1.306,1.306,0,0,1,1.847,1.847l-9.942,9.943a1.3,1.3,0,0,1-.924.382" transform="translate(-117.353 -22.115)" fill="#12263f"/>
        <path id="Trazado_988768" data-name="Trazado 988768" d="M87.839,39.226H73.778a1.306,1.306,0,0,1-1.306-1.306,21.246,21.246,0,1,0-42.493,0,1.306,1.306,0,0,1-1.306,1.306H14.612a1.306,1.306,0,0,1-1.306-1.306c0-1.264.063-2.538.187-3.788a1.306,1.306,0,0,1,2.6.258c-.073.734-.123,1.478-.15,2.223H27.4a23.859,23.859,0,0,1,47.647,0h11.46a35.309,35.309,0,0,0-62.977-20.6,1.306,1.306,0,0,1-2.048-1.622A37.921,37.921,0,0,1,89.146,37.92a1.306,1.306,0,0,1-1.306,1.306" transform="translate(-8.961 0)" fill="#12263f"/>
        <path id="Trazado_988769" data-name="Trazado 988769" d="M57.393,45.395a1.3,1.3,0,0,1-.924-.382l-9.942-9.943a1.306,1.306,0,0,1,1.847-1.847l9.943,9.942a1.306,1.306,0,0,1-.924,2.23" transform="translate(-31.076 -22.115)" fill="#12263f"/>
        <path id="Trazado_988770" data-name="Trazado 988770" d="M1.306,57.068a1.306,1.306,0,0,1-1.2-1.831L5.9,42.035a1.306,1.306,0,0,1,2.249-.249L16.686,53.4a1.306,1.306,0,0,1-.908,2.072L1.45,57.06a1.333,1.333,0,0,1-.144.008M7.382,45.156,3.411,54.214l9.83-1.09Z" transform="translate(0 -27.782)" fill="#12263f"/>
        <path id="Trazado_988771" data-name="Trazado 988771" d="M102.569,103.828H70.617a4.787,4.787,0,0,1-4.145-7.18L82.448,68.977a4.786,4.786,0,0,1,8.29,0l15.976,27.671a4.787,4.787,0,0,1-4.145,7.18M84.71,70.284,68.735,97.955a2.174,2.174,0,0,0,1.883,3.261h31.952a2.174,2.174,0,0,0,1.883-3.261L88.476,70.284a2.174,2.174,0,0,0-3.766,0" transform="translate(-44.328 -44.84)" fill="#12263f"/>
        <path id="Trazado_988772" data-name="Trazado 988772" d="M126.732,109.024a1.306,1.306,0,0,1-1.306-1.306V95.457a1.306,1.306,0,1,1,2.612,0v12.26a1.306,1.306,0,0,1-1.306,1.306" transform="translate(-84.467 -63.405)" fill="#12263f"/>
        <path id="Trazado_988773" data-name="Trazado 988773" d="M126.732,155.157a1.306,1.306,0,0,1-1.306-1.306v-.318a1.306,1.306,0,0,1,2.612,0v.318a1.306,1.306,0,0,1-1.306,1.306" transform="translate(-84.467 -102.516)" fill="#12263f"/>
      </g>
    </g>
  </g>
</svg>
