<svg xmlns="http://www.w3.org/2000/svg" xmlns:xlink="http://www.w3.org/1999/xlink" width="105" height="105" viewBox="0 0 105 105">
  <defs>
    <clipPath id="clip-path">
      <rect id="Rectángulo_406208" data-name="Rectángulo 406208" width="67.036" height="61.907" fill="#12263f"/>
    </clipPath>
  </defs>
  <g id="Grupo_1118487" data-name="Grupo 1118487" transform="translate(-274.976 -2987)">
    <circle id="Elipse_11802" data-name="Elipse 11802" cx="52.5" cy="52.5" r="52.5" transform="translate(274.976 2987)" fill="#f9f2c8"/>
    <g id="Grupo_1118477" data-name="Grupo 1118477" transform="translate(295.458 3008.547)">
      <g id="Grupo_1118476" data-name="Grupo 1118476" clip-path="url(#clip-path)">
        <path id="Trazado_1018562" data-name="Trazado 1018562" d="M42.989,9.255A4.476,4.476,0,0,0,38.66,5.895H32.4a6.615,6.615,0,0,0-1.112-2.464,6.5,6.5,0,0,0-3.336-2.4A20.69,20.69,0,0,0,15.244.974a6.6,6.6,0,0,0-4.523,4.921H4.468A4.473,4.473,0,0,0,0,10.363V57.439a4.473,4.473,0,0,0,4.468,4.468H38.66a4.466,4.466,0,0,0,4.468-4.468V10.363a4.442,4.442,0,0,0-.139-1.107M12.113,7.31A5.071,5.071,0,0,1,15.7,2.448a19.188,19.188,0,0,1,11.79.052,5.037,5.037,0,0,1,3.523,4.841v2.18h-18.9ZM38.66,60.364H4.468a2.928,2.928,0,0,1-2.925-2.925V10.363A2.928,2.928,0,0,1,4.468,7.438h6.1v2.855a.772.772,0,0,0,.772.771H31.786a.772.772,0,0,0,.771-.771V7.438h6.1A2.929,2.929,0,0,1,41.573,10.1v0c.008.084.012.17.012.256V57.439c0,.086,0,.172-.012.256v0a2.929,2.929,0,0,1-2.913,2.665" transform="translate(0 0)" fill="#12263f"/>
        <path id="Trazado_1018563" data-name="Trazado 1018563" d="M102.474,275.6H84.96a.772.772,0,0,1,0-1.543h17.513a.772.772,0,1,1,0,1.543" transform="translate(-78.325 -254.971)" fill="#12263f"/>
        <path id="Trazado_1018564" data-name="Trazado 1018564" d="M102.474,387.483H84.96a.772.772,0,0,1,0-1.543h17.513a.772.772,0,1,1,0,1.543" transform="translate(-78.325 -359.06)" fill="#12263f"/>
        <path id="Trazado_1018565" data-name="Trazado 1018565" d="M102.474,499.366H84.96a.772.772,0,0,1,0-1.543h17.513a.772.772,0,1,1,0,1.543" transform="translate(-78.325 -463.151)" fill="#12263f"/>
        <path id="Trazado_1018566" data-name="Trazado 1018566" d="M102.474,611.248H84.96a.772.772,0,0,1,0-1.543h17.513a.772.772,0,1,1,0,1.543" transform="translate(-78.325 -567.241)" fill="#12263f"/>
        <path id="Trazado_1018567" data-name="Trazado 1018567" d="M102.474,723.131H84.96a.772.772,0,0,1,0-1.543h17.513a.772.772,0,1,1,0,1.543" transform="translate(-78.325 -671.331)" fill="#12263f"/>
        <path id="Trazado_1018568" data-name="Trazado 1018568" d="M428.461,246.044a.772.772,0,0,1-.546-.226L425.6,243.5a.772.772,0,0,1,1.091-1.091l1.735,1.735,3.7-4.171A.771.771,0,1,1,433.281,241l-4.243,4.783a.771.771,0,0,1-.554.259h-.023" transform="translate(-395.748 -223.022)" fill="#12263f"/>
        <path id="Trazado_1018569" data-name="Trazado 1018569" d="M428.461,357.927a.771.771,0,0,1-.546-.226l-2.315-2.315a.772.772,0,1,1,1.091-1.091l1.735,1.735,3.7-4.171a.771.771,0,1,1,1.154,1.024l-4.243,4.783a.771.771,0,0,1-.554.259h-.023" transform="translate(-395.748 -327.112)" fill="#12263f"/>
        <path id="Trazado_1018570" data-name="Trazado 1018570" d="M428.461,469.809a.771.771,0,0,1-.546-.226l-2.315-2.315a.772.772,0,0,1,1.091-1.091l1.735,1.735,3.7-4.171a.771.771,0,0,1,1.154,1.024l-4.243,4.783a.771.771,0,0,1-.554.259h-.023" transform="translate(-395.748 -431.202)" fill="#12263f"/>
        <path id="Trazado_1018571" data-name="Trazado 1018571" d="M428.461,581.692a.772.772,0,0,1-.546-.226l-2.315-2.315a.772.772,0,0,1,1.091-1.091l1.735,1.735,3.7-4.171a.772.772,0,0,1,1.154,1.024l-4.243,4.783a.771.771,0,0,1-.554.259h-.023" transform="translate(-395.748 -535.293)" fill="#12263f"/>
        <path id="Trazado_1018572" data-name="Trazado 1018572" d="M428.461,693.574a.772.772,0,0,1-.546-.226l-2.315-2.315a.772.772,0,0,1,1.091-1.091l1.735,1.735,3.7-4.171a.772.772,0,0,1,1.154,1.024l-4.243,4.783a.771.771,0,0,1-.554.259h-.023" transform="translate(-395.748 -639.383)" fill="#12263f"/>
        <path id="Trazado_1018573" data-name="Trazado 1018573" d="M624.694,149.478a11.3,11.3,0,0,0-7.317-3.312v1.548a9.847,9.847,0,0,1,0,19.639V168.9a11.381,11.381,0,0,0,7.317-19.421m0,0a11.3,11.3,0,0,0-7.317-3.312v1.548a9.847,9.847,0,0,1,0,19.639V168.9a11.381,11.381,0,0,0,7.317-19.421m0,0a11.3,11.3,0,0,0-7.317-3.312v1.548a9.847,9.847,0,0,1,0,19.639V168.9a11.381,11.381,0,0,0,7.317-19.421m13.813,3.027h-3.29a.653.653,0,0,1-.627-.462,18.591,18.591,0,0,0-1.375-3.321.651.651,0,0,1,.116-.771l2.326-2.326a2.781,2.781,0,0,0,0-3.929l-3.181-3.182a2.782,2.782,0,0,0-3.929,0l-2.326,2.326a.651.651,0,0,1-.772.116,18.744,18.744,0,0,0-3.32-1.375.652.652,0,0,1-.462-.627v-3.289a2.781,2.781,0,0,0-2.778-2.778h-1.65a4.446,4.446,0,0,1,.139,1.107v.436h1.511a1.236,1.236,0,0,1,1.235,1.235v3.289a2.184,2.184,0,0,0,1.555,2.1,17.223,17.223,0,0,1,3.044,1.261,2.187,2.187,0,0,0,2.589-.386l2.326-2.327a1.237,1.237,0,0,1,1.747,0l3.181,3.182a1.237,1.237,0,0,1,0,1.747l-2.326,2.325a2.187,2.187,0,0,0-.387,2.588,17.1,17.1,0,0,1,1.262,3.047,2.186,2.186,0,0,0,2.1,1.554h3.29a1.236,1.236,0,0,1,1.235,1.234v4.5a1.236,1.236,0,0,1-1.235,1.234h-3.29a2.186,2.186,0,0,0-2.1,1.555,17.123,17.123,0,0,1-1.262,3.046,2.186,2.186,0,0,0,.387,2.588l2.326,2.326a1.237,1.237,0,0,1,0,1.747l-3.181,3.182a1.237,1.237,0,0,1-1.747,0l-2.326-2.328a2.189,2.189,0,0,0-2.588-.386,17.139,17.139,0,0,1-3.045,1.261,2.186,2.186,0,0,0-1.555,2.1V179.4a1.236,1.236,0,0,1-1.235,1.235h-1.511v.436a4.447,4.447,0,0,1-.139,1.107h1.65a2.781,2.781,0,0,0,2.778-2.778V176.11a.652.652,0,0,1,.462-.627,18.716,18.716,0,0,0,3.321-1.376.652.652,0,0,1,.771.116l2.326,2.327a2.782,2.782,0,0,0,3.929,0l3.181-3.182a2.781,2.781,0,0,0,0-3.929l-2.326-2.327a.65.65,0,0,1-.116-.771,18.61,18.61,0,0,0,1.375-3.32.652.652,0,0,1,.627-.463h3.29a2.781,2.781,0,0,0,2.778-2.777v-4.5a2.781,2.781,0,0,0-2.778-2.777m-21.13,14.847V168.9a11.391,11.391,0,0,0,0-22.734v1.548a9.847,9.847,0,0,1,0,19.639m7.317-17.874a11.3,11.3,0,0,0-7.317-3.312v1.548a9.847,9.847,0,0,1,0,19.639V168.9a11.381,11.381,0,0,0,7.317-19.421m0,0a11.3,11.3,0,0,0-7.317-3.312v1.548a9.847,9.847,0,0,1,0,19.639V168.9a11.381,11.381,0,0,0,7.317-19.421" transform="translate(-574.249 -123.632)" fill="#12263f"/>
      </g>
    </g>
  </g>
</svg>
