<svg xmlns="http://www.w3.org/2000/svg" xmlns:xlink="http://www.w3.org/1999/xlink" width="105" height="105" viewBox="0 0 105 105">
  <defs>
    <clipPath id="clip-path">
      <rect id="Rectángulo_406209" data-name="Rectángulo 406209" width="46.097" height="66.168" fill="#12263f"/>
    </clipPath>
  </defs>
  <g id="Grupo_1118486" data-name="Grupo 1118486" transform="translate(-589.976 -2987)">
    <g id="Grupo_1115793" data-name="Grupo 1115793" transform="translate(-0.075 1704)">
      <circle id="Elipse_11803" data-name="Elipse 11803" cx="52.5" cy="52.5" r="52.5" transform="translate(590.051 1283)" fill="#f9f2c8"/>
    </g>
    <g id="Grupo_1118479" data-name="Grupo 1118479" transform="translate(619.427 3004.953)">
      <g id="Grupo_1118478" data-name="Grupo 1118478" clip-path="url(#clip-path)">
        <path id="Trazado_1018574" data-name="Trazado 1018574" d="M41.321,6.3h-6.69a7.069,7.069,0,0,0-1.188-2.634A6.949,6.949,0,0,0,29.877,1.1a22.113,22.113,0,0,0-13.584-.057A7.059,7.059,0,0,0,11.459,6.3H4.775A4.781,4.781,0,0,0,0,11.076V61.393a4.781,4.781,0,0,0,4.775,4.775H41.321A4.781,4.781,0,0,0,46.1,61.393V11.076A4.781,4.781,0,0,0,41.321,6.3M12.947,7.813a5.42,5.42,0,0,1,3.835-5.2,20.509,20.509,0,0,1,12.6.056A5.384,5.384,0,0,1,33.15,7.846v2.33h-20.2Zm31.5,53.579a3.13,3.13,0,0,1-3.126,3.126H4.775a3.13,3.13,0,0,1-3.126-3.126V11.076A3.13,3.13,0,0,1,4.775,7.949H11.3V11a.825.825,0,0,0,.825.825H33.975A.825.825,0,0,0,34.8,11V7.949h6.522a3.13,3.13,0,0,1,3.126,3.126Z" transform="translate(0 0)" fill="#12263f"/>
        <path id="Trazado_1018575" data-name="Trazado 1018575" d="M97.96,268.507H85.014a.825.825,0,1,1,0-1.649H97.96a.825.825,0,0,1,0,1.649" transform="translate(-77.922 -246.993)" fill="#12263f"/>
        <path id="Trazado_1018576" data-name="Trazado 1018576" d="M97.96,322.786H85.014a.825.825,0,1,1,0-1.649H97.96a.825.825,0,0,1,0,1.649" transform="translate(-77.922 -297.231)" fill="#12263f"/>
        <path id="Trazado_1018577" data-name="Trazado 1018577" d="M97.96,482.3H85.014a.825.825,0,1,1,0-1.649H97.96a.825.825,0,0,1,0,1.649" transform="translate(-77.922 -444.872)" fill="#12263f"/>
        <path id="Trazado_1018578" data-name="Trazado 1018578" d="M97.96,536.581H85.014a.825.825,0,1,1,0-1.649H97.96a.825.825,0,0,1,0,1.649" transform="translate(-77.922 -495.111)" fill="#12263f"/>
        <path id="Trazado_1018579" data-name="Trazado 1018579" d="M97.96,696.1H85.014a.825.825,0,1,1,0-1.649H97.96a.825.825,0,1,1,0,1.649" transform="translate(-77.922 -642.752)" fill="#12263f"/>
        <path id="Trazado_1018580" data-name="Trazado 1018580" d="M97.96,750.377H85.014a.825.825,0,1,1,0-1.649H97.96a.825.825,0,0,1,0,1.649" transform="translate(-77.922 -692.991)" fill="#12263f"/>
        <path id="Trazado_1018581" data-name="Trazado 1018581" d="M370.459,273.64a.824.824,0,0,1-.583-.242l-1.863-1.863a.825.825,0,1,1,1.166-1.166l1.244,1.244,2.834-3.195a.825.825,0,1,1,1.234,1.094l-3.415,3.85a.825.825,0,0,1-.592.277h-.025" transform="translate(-340.394 -248.18)" fill="#12263f"/>
        <path id="Trazado_1018582" data-name="Trazado 1018582" d="M348.418,240.02h-9.731a.825.825,0,0,1-.825-.825v-9.731a.825.825,0,0,1,.825-.825h9.731a.825.825,0,0,1,.825.825V239.2a.825.825,0,0,1-.825.825m-8.906-1.649h8.081v-8.081h-8.081Z" transform="translate(-312.712 -211.62)" fill="#12263f"/>
        <path id="Trazado_1018583" data-name="Trazado 1018583" d="M370.459,487.435a.825.825,0,0,1-.583-.242l-1.863-1.863a.825.825,0,1,1,1.166-1.166l1.244,1.244,2.834-3.195a.825.825,0,1,1,1.234,1.094l-3.415,3.85a.824.824,0,0,1-.592.277h-.025" transform="translate(-340.394 -446.06)" fill="#12263f"/>
        <path id="Trazado_1018584" data-name="Trazado 1018584" d="M348.418,453.816h-9.731a.825.825,0,0,1-.825-.825v-9.731a.825.825,0,0,1,.825-.825h9.731a.825.825,0,0,1,.825.825v9.731a.825.825,0,0,1-.825.825m-8.906-1.649h8.081v-8.081h-8.081Z" transform="translate(-312.712 -409.5)" fill="#12263f"/>
        <path id="Trazado_1018585" data-name="Trazado 1018585" d="M370.459,701.23a.824.824,0,0,1-.583-.242l-1.863-1.863a.825.825,0,0,1,1.166-1.166l1.244,1.244,2.834-3.195a.825.825,0,1,1,1.234,1.094l-3.415,3.85a.824.824,0,0,1-.592.277h-.025" transform="translate(-340.394 -643.94)" fill="#12263f"/>
        <path id="Trazado_1018586" data-name="Trazado 1018586" d="M348.418,667.611h-9.731a.824.824,0,0,1-.825-.825v-9.731a.825.825,0,0,1,.825-.825h9.731a.825.825,0,0,1,.825.825v9.731a.825.825,0,0,1-.825.825m-8.906-1.649h8.081V657.88h-8.081Z" transform="translate(-312.712 -607.38)" fill="#12263f"/>
      </g>
    </g>
  </g>
</svg>
