<svg xmlns="http://www.w3.org/2000/svg" xmlns:xlink="http://www.w3.org/1999/xlink" width="105" height="105" viewBox="0 0 105 105">
  <defs>
    <clipPath id="clip-path">
      <rect id="Rectángulo_406210" data-name="Rectángulo 406210" width="50.466" height="79.631" transform="translate(0 0)" fill="#12263f"/>
    </clipPath>
  </defs>
  <g id="Grupo_1118485" data-name="Grupo 1118485" transform="translate(-904.976 -2987)">
    <g id="Grupo_1115794" data-name="Grupo 1115794" transform="translate(-0.075 1704)">
      <circle id="Elipse_11804" data-name="Elipse 11804" cx="52.5" cy="52.5" r="52.5" transform="translate(905.051 1283)" fill="#f9f2c8"/>
    </g>
    <g id="Grupo_1118481" data-name="Grupo 1118481" transform="translate(931.976 3000.005)">
      <g id="Grupo_1118480" data-name="Grupo 1118480" transform="translate(0 -0.005)" clip-path="url(#clip-path)">
        <path id="Trazado_1018587" data-name="Trazado 1018587" d="M40.157,6.118h-6.5A6.858,6.858,0,0,0,32.5,3.558a6.753,6.753,0,0,0-3.465-2.5,21.491,21.491,0,0,0-13.2-.055,6.858,6.858,0,0,0-4.7,5.111h-6.5A4.646,4.646,0,0,0,0,10.759v48.9A4.646,4.646,0,0,0,4.641,64.3H23.873a.8.8,0,0,0,0-1.6H4.641A3.042,3.042,0,0,1,1.6,59.658v-48.9A3.041,3.041,0,0,1,4.641,7.72h6.338v2.965a.8.8,0,0,0,.8.8H33.018a.8.8,0,0,0,.8-.8V7.72h6.338A3.041,3.041,0,0,1,43.2,10.759V43.85a.8.8,0,0,0,1.6,0V10.759a4.646,4.646,0,0,0-4.641-4.641M32.216,9.884H12.582v-2.3a5.267,5.267,0,0,1,3.727-5.051,19.938,19.938,0,0,1,12.247.054,5.234,5.234,0,0,1,3.66,5.03Z" transform="translate(0 0.005)" fill="#12263f"/>
        <path id="Trazado_1018588" data-name="Trazado 1018588" d="M103.182,275.653H84.99a.8.8,0,0,1,0-1.6h18.192a.8.8,0,1,1,0,1.6" transform="translate(-78.098 -254.224)" fill="#12263f"/>
        <path id="Trazado_1018589" data-name="Trazado 1018589" d="M103.182,387.536H84.99a.8.8,0,0,1,0-1.6h18.192a.8.8,0,1,1,0,1.6" transform="translate(-78.098 -358.012)" fill="#12263f"/>
        <path id="Trazado_1018590" data-name="Trazado 1018590" d="M103.182,499.418H84.99a.8.8,0,0,1,0-1.6h18.192a.8.8,0,1,1,0,1.6" transform="translate(-78.098 -461.8)" fill="#12263f"/>
        <path id="Trazado_1018591" data-name="Trazado 1018591" d="M103.182,611.3H84.99a.8.8,0,0,1,0-1.6h18.192a.8.8,0,1,1,0,1.6" transform="translate(-78.098 -565.589)" fill="#12263f"/>
        <path id="Trazado_1018592" data-name="Trazado 1018592" d="M99.226,723.183H84.859a.814.814,0,0,1,0-1.6H99.226a.814.814,0,0,1,0,1.6" transform="translate(-78.098 -669.377)" fill="#12263f"/>
        <path id="Trazado_1018593" data-name="Trazado 1018593" d="M428.58,246.281a.8.8,0,0,1-.567-.235l-2.4-2.4a.8.8,0,1,1,1.133-1.133l1.8,1.8,3.843-4.332a.8.8,0,1,1,1.2,1.064l-4.408,4.969a.8.8,0,0,1-.576.269h-.024" transform="translate(-394.601 -222.367)" fill="#12263f"/>
        <path id="Trazado_1018594" data-name="Trazado 1018594" d="M428.58,358.164a.8.8,0,0,1-.567-.235l-2.4-2.4a.8.8,0,0,1,1.133-1.133l1.8,1.8,3.843-4.332a.8.8,0,1,1,1.2,1.064l-4.408,4.969a.8.8,0,0,1-.576.269h-.024" transform="translate(-394.601 -326.156)" fill="#12263f"/>
        <path id="Trazado_1018595" data-name="Trazado 1018595" d="M428.58,470.046a.8.8,0,0,1-.567-.235l-2.4-2.4a.8.8,0,0,1,1.133-1.133l1.8,1.8,3.843-4.332a.8.8,0,1,1,1.2,1.064l-4.408,4.969a.8.8,0,0,1-.576.269h-.024" transform="translate(-394.601 -429.944)" fill="#12263f"/>
        <path id="Trazado_1018596" data-name="Trazado 1018596" d="M378.209,662.728A8.332,8.332,0,1,1,382.2,661.7a8.341,8.341,0,0,1-3.991,1.024m-.025-15.064a6.731,6.731,0,1,0,5.915,3.5,6.689,6.689,0,0,0-5.915-3.5" transform="translate(-343.105 -599.322)" fill="#12263f"/>
        <path id="Trazado_1018597" data-name="Trazado 1018597" d="M345.785,625.4l-3.966-7.239a.8.8,0,0,0-1.088-.318l-.6.328-1.155-2.109a11.988,11.988,0,1,0-5.1,2.724c.084-.022.168-.043.252-.067l1.156,2.109-.6.328a.8.8,0,0,0-.317,1.088l3.966,7.239a4.252,4.252,0,0,0,3.732,2.206,4.2,4.2,0,0,0,1.033-.128,4.251,4.251,0,0,0,2.685-6.16M334.274,617l-.01,0a10.415,10.415,0,1,1,3.218-1.77l-.042.034A10.52,10.52,0,0,1,334.274,617m1.387,1.183q.53-.227,1.047-.51t.992-.607l1.028,1.877-2.039,1.116Zm7.67,11.579a2.647,2.647,0,0,1-3.59-1.048l-3.582-6.536.586-.321.026-.014,3.43-1.879.6-.327,3.581,6.536a2.644,2.644,0,0,1-1.048,3.59" transform="translate(-295.84 -552.061)" fill="#12263f"/>
      </g>
    </g>
  </g>
</svg>
